SplineFontDB: 3.0
FontName: Exo-ExtraBoldItalic
FullName: Exo ExtraBold Italic
FamilyName: Exo
Weight: ExtraBold
Copyright: Copyright (c) 2011 Natanael Gama (exo@ndiscovered.com), with Reserved Font Name "Exo"
Version: 1.00
ItalicAngle: 0
UnderlinePosition: -50
UnderlineWidth: 50
Ascent: 800
Descent: 200
sfntRevision: 0x00010000
LayerCount: 2
Layer: 0 0 "Back"  1
Layer: 1 0 "Fore"  0
XUID: [1021 762 1116966003 15054055]
FSType: 8
OS2Version: 0
OS2_WeightWidthSlopeOnly: 0
OS2_UseTypoMetrics: 1
CreationTime: 1317848505
ModificationTime: 1325020211
PfmFamily: 33
TTFWeight: 800
TTFWidth: 5
LineGap: 90
VLineGap: 0
OS2TypoAscent: 0
OS2TypoAOffset: 1
OS2TypoDescent: 0
OS2TypoDOffset: 1
OS2TypoLinegap: 90
OS2WinAscent: 0
OS2WinAOffset: 1
OS2WinDescent: 0
OS2WinDOffset: 1
HheadAscent: 0
HheadAOffset: 1
HheadDescent: 0
HheadDOffset: 1
OS2Vendor: 'PfEd'
Lookup: 4 0 0 "'ordn' Ordinals lookup 21"  {"'ordn' Ordinals lookup 21-1"  } ['ordn' ('DFLT' <'dflt' > 'grek' <'dflt' > 'latn' <'dflt' > ) ]
Lookup: 1 0 0 "'smcp' Lowercase to Small Capitals lookup 16"  {"'smcp' Lowercase to Small Capitals lookup 16-1" ("smcp" ) } ['smcp' ('DFLT' <'dflt' > 'grek' <'dflt' > 'latn' <'FRA ' 'dflt' > ) ]
Lookup: 1 0 0 "'c2sc' Capitals to Small Capitals in Latin lookup 17"  {"'c2sc' Capitals to Small Capitals in Latin lookup 17 subtable" ("smcp" ) } ['c2sc' ('latn' <'dflt' > ) ]
Lookup: 4 0 0 "'dlig' Discretionary Ligatures lookup 14"  {"'dlig' Discretionary Ligatures lookup 14-1"  } ['dlig' ('DFLT' <'dflt' > 'grek' <'dflt' > 'latn' <'dflt' > ) ]
Lookup: 4 0 1 "'liga' Standard Ligatures lookup 15"  {"'liga' Standard Ligatures lookup 15-1"  } ['liga' ('DFLT' <'dflt' > 'grek' <'dflt' > 'latn' <'FRA ' 'dflt' > ) ]
Lookup: 1 0 0 "'frac' Diagonal Fractions lookup 13"  {"'frac' Diagonal Fractions lookup 13-1"  } ['frac' ('DFLT' <'dflt' > 'grek' <'dflt' > 'latn' <'FRA ' 'dflt' > ) ]

StartChar: a
Encoding: 97 97 0
Width: 544
VWidth: 0
Flags: W
HStem: -5.5 134.75<158.125 311.416>
DStem2: 374.25 180.25 512.75 1.5 0.145047 0.989425<-33.5947 232.453>
LayerCount: 2
Fore
SplineSet
73.75 303.5 m 4
 118 524.25 238.5 538.5 337 541 c 4
 416 543.25 531.75 528 582.75 479 c 13
 512.75 1.5 l 21
 384.75 1.5 l 5
 359.5 54 l 21
 334.25 16.25 267 -5.5 208 -5.5 c 7
 108.25 -5.5 31.5 92.5 73.75 303.5 c 4
234 278.75 m 4
 221 191.75 220.75 129.25 277.75 129.25 c 7
 328.5 129.25 355 148.25 374.25 180.25 c 5
 407.5 407 l 5
 386.5 416.25 350 419.75 324.75 414 c 4
 286.75 405.75 250.75 391.75 234 278.75 c 4
EndSplineSet
AlternateSubs2: "'salt' Access All Alternates in Latin lookup 4-1" a.salt
Substitution2: "'smcp' Lowercase to Small Capitals lookup 16-1" a.smcp
EndChar

StartChar: z
Encoding: 122 122 1
Width: 480
VWidth: 0
Flags: HW
LayerCount: 2
Fore
SplineSet
35.25 1 m 25
 55.5 133.5 l 25
 316.5 397 l 17
 83.75 397 l 1
 104.25 531 l 25
 545.25 531 l 25
 524.75 397 l 25
 277.25 135 l 17
 482 135 l 17
 483 134 461.25 1 461.25 1 c 25
 35.25 1 l 25
EndSplineSet
Substitution2: "'smcp' Lowercase to Small Capitals lookup 16-1" z.smcp
EndChar

StartChar: e
Encoding: 101 101 2
Width: 528
VWidth: 0
Flags: W
HStem: 22 116<407.268 496.5> 414.5 126.5<280.619 388.106>
LayerCount: 2
Fore
SplineSet
75.5 308 m 0
 106.5 471 152 539.5 347 541 c 0
 457.25 541.75 567.25 512.25 561.25 388 c 0
 550.5 137.5 267.75 185.75 230.75 200.75 c 1
 220.25 135.25 240 120.5 311 120.25 c 0
 364.5 118.75 460.25 127.75 516.5 138 c 1
 496.5 22 l 17
 417.75 -2.5 331 -16 209.75 -7 c 0
 82.5 1.25 39.5 114 75.5 308 c 0
244 307.25 m 0
 244 307.25 378 279.25 392.75 361.75 c 0
 400.25 403.5 378.75 415.25 334.75 414.5 c 0
 263.5 413 254 363.75 244 307.25 c 0
EndSplineSet
Substitution2: "'smcp' Lowercase to Small Capitals lookup 16-1" e.smcp
EndChar

StartChar: o
Encoding: 111 111 3
Width: 555
VWidth: 0
Flags: W
HStem: -5 126.5<237.539 365.538> 411.75 126.5<276.233 402.017>
LayerCount: 2
Fore
SplineSet
73.25 276.75 m 0
 107.25 493.75 180.25 538.25 361.75 538.25 c 3
 543.25 538.25 596.25 444.25 563.75 239.25 c 0
 532.25 42.25 466.25 -5 279.25 -5 c 3
 96 -5 43.25 86.75 73.25 276.75 c 0
237.25 258 m 0
 217.25 136.25 232.75 121.5 296.75 121.5 c 3
 364.25 121.5 378.75 131 399.75 258 c 0
 420.5 387 413.75 411.75 342.5 411.75 c 3
 270.25 411.75 258.5 389.5 237.25 258 c 0
EndSplineSet
Substitution2: "'smcp' Lowercase to Small Capitals lookup 16-1" o.smcp
EndChar

StartChar: c
Encoding: 99 99 5
Width: 490
VWidth: 0
Flags: HW
LayerCount: 2
Fore
SplineSet
74.75 288.5 m 0
 110.5 507.75 192 540.25 292 540.25 c 3
 344 540.25 462 532.75 537.5 506.25 c 1
 522 407.25 l 1
 522 407.25 443.25 413.75 354.25 413.75 c 3
 288.5 413.75 262.5 409.5 237.75 263.5 c 0
 216.75 134.75 237.5 121 307.75 121 c 3
 399.75 121 485.5 129.75 485.5 129.75 c 1
 469.75 30.25 l 17
 393.75 -0.25 328.75 -7 209 -5.25 c 0
 109.25 -4.25 41.25 82.25 74.75 288.5 c 0
EndSplineSet
Substitution2: "'smcp' Lowercase to Small Capitals lookup 16-1" c.smcp
EndChar

StartChar: d
Encoding: 100 100 6
Width: 549
VWidth: 0
Flags: HW
LayerCount: 2
Fore
SplineSet
74 293 m 0
 100 441.75 145 539 290.75 539 c 3
 335.75 539 393.75 527.25 433.5 506.5 c 1
 478 785 l 1
 641.5 785 l 1
 517.25 0 l 1
 379.5 0 l 1
 360.5 51.5 l 17
 320.25 22 268.75 -6 207.5 -6 c 3
 83.25 -6 45 128.25 74 293 c 0
239.5 270.5 m 0
 221.5 157.75 237.75 130.25 276.25 130.25 c 3
 319.25 130.25 353.75 140 377.75 158.25 c 1
 416 398.5 l 1
 393.5 411.25 358.75 416.25 320.75 416.25 c 1
 284.75 416.25 259.75 396 239.5 270.5 c 0
EndSplineSet
AlternateSubs2: "'salt' Access All Alternates in Latin lookup 4-1" d.salt
Substitution2: "'smcp' Lowercase to Small Capitals lookup 16-1" d.smcp
EndChar

StartChar: A
Encoding: 65 65 7
Width: 698
VWidth: 0
Flags: W
HStem: 0 21G<30 220.99 518.531 690> 0 21G<30 220.99 518.531 690> 147 142.25<343.5 483.25> 712 20G<375.301 578.385>
DStem2: 30 0 211.5 0 0.436364 0.89977<79.2001 241.903 397.059 615.002> 385 732 450.25 523.75 0.436364 0.89977<-725.741 -571.638 -416.482 -158.904> 575.25 732 450.25 523.75 0.154871 -0.987935<186.379 423.16>
LayerCount: 2
Fore
SplineSet
30 0 m 1xb0
 385 732 l 1
 575.25 732 l 1
 690 0 l 1
 522 0 l 1
 496.5 147 l 1
 281.25 147 l 1
 211.5 0 l 1
 30 0 l 1xb0
343.5 289.25 m 1
 483.25 289.25 l 1
 450.25 523.75 l 1
 343.5 289.25 l 1
EndSplineSet
Substitution2: "'c2sc' Capitals to Small Capitals in Latin lookup 17 subtable" a.smcp
EndChar

StartChar: p
Encoding: 112 112 8
Width: 556
VWidth: 0
Flags: HW
LayerCount: 2
Fore
SplineSet
-1.75 -270 m 1
 123 506 l 1
 187 525 310 536.25 409 536.25 c 3
 544 536.25 594.25 421 566.5 241.75 c 0
 539.5 63.75 475.75 -9.5 327.25 -9.5 c 1
 282.25 -9.5 237.25 0.75 209.5 29 c 1
 162 -270 l 1
 -1.75 -270 l 1
226.5 134.25 m 1
 245.25 119.25 275.5 111.25 309 114.5 c 0
 360.75 116.75 383 145.75 403.25 272 c 0
 416.75 354.5 413.75 417.25 354.75 417.25 c 2
 272.75 417.25 l 2
 226.5 134.25 l 1
EndSplineSet
AlternateSubs2: "'salt' Access All Alternates in Latin lookup 4-1" p.salt
Substitution2: "'smcp' Lowercase to Small Capitals lookup 16-1" p.smcp
EndChar

StartChar: b
Encoding: 98 98 9
Width: 557
VWidth: 0
Flags: HW
LayerCount: 2
Fore
SplineSet
40.5 0 m 1
 164.5 785 l 1
 328 785 l 1
 284.5 506.5 l 1
 330.75 527.25 390.75 539 435.75 539 c 3
 583.25 539 594.5 404.5 567 233 c 0
 538.5 58 481.25 -8.5 351.25 -6 c 1
 290 -5 244.5 22 213.25 51.5 c 9
 178.25 0 l 1
 40.5 0 l 1
229.75 158.25 m 1
 247.75 140 280.5 130.25 323.5 130.25 c 3
 364 130.25 386.25 157.25 403.75 270.5 c 0
 421.75 386 411.5 416.25 368.25 416.25 c 1
 330.25 416.25 295.25 411.25 268.25 398.5 c 1
 229.75 158.25 l 1
EndSplineSet
AlternateSubs2: "'salt' Access All Alternates in Latin lookup 4-1" b.salt
Substitution2: "'smcp' Lowercase to Small Capitals lookup 16-1" b.smcp
EndChar

StartChar: q
Encoding: 113 113 10
Width: 553
VWidth: 0
Flags: HW
LayerCount: 2
Fore
SplineSet
75.25 290.5 m 0
 106 482.5 190 540 315.75 540 c 3
 421.75 540 544.75 524.75 594.5 507.25 c 1
 472 -270 l 17
 308 -270 l 9
 355 29 l 1
 317.75 0.75 276.75 -10 231.75 -10 c 3
 78.75 -10 46.5 107 75.25 290.5 c 0
240 273.25 m 0
 222.75 161.25 219 113.5 285 113.5 c 3
 318.5 113.5 339.75 117.5 371.75 134 c 1
 416.5 421 l 2
 334.5 421 l 2
 266 421 249.75 334 240 273.25 c 0
EndSplineSet
Substitution2: "'smcp' Lowercase to Small Capitals lookup 16-1" q.smcp
EndChar

StartChar: n
Encoding: 110 110 11
Width: 552
VWidth: 0
Flags: HW
LayerCount: 2
Fore
SplineSet
40.5 0 m 1
 124.5 531 l 1
 259 531 l 1
 280 476.5 l 1
 325.25 508.5 368 540 449 540 c 3
 579 540 591.75 453.5 574.75 347.5 c 2
 519.5 0 l 9
 355.5 0 l 17
 410.75 350.5 l 2
 418.5 398.5 403.25 413.5 374 413.5 c 3
 326.25 413.5 296.25 401 263.5 371.5 c 1
 204.5 0 l 1
 40.5 0 l 1
EndSplineSet
AlternateSubs2: "'salt' Access All Alternates in Latin lookup 4-1" n.salt
Substitution2: "'smcp' Lowercase to Small Capitals lookup 16-1" n.smcp
EndChar

StartChar: i
Encoding: 105 105 12
Width: 237
VWidth: 0
Flags: W
HStem: 0 21G<36.75 203.914> 0 21G<36.75 203.914> 511 20G<117.586 284.75> 584 149.25<145.724 300.045>
VStem: 36.75 279.5
DStem2: 36.75 0 200.75 0 0.160952 0.986962<26.3961 537.597 614.653 745.962>
LayerCount: 2
Fore
SplineSet
36.75 0 m 1xb8
 120.75 531 l 1
 284.75 531 l 1
 200.75 0 l 1
 36.75 0 l 1xb8
129.5 607 m 2
 145 708.25 l 2
 147 723.25 157 733.25 173 733.25 c 2
 298 733.25 l 2
 313 733.25 318.25 722.25 316.25 708.25 c 2
 300.75 607 l 2
 298.75 592 288.5 584 274.5 584 c 2
 149.5 584 l 2
 135.5 584 127.5 593 129.5 607 c 2
EndSplineSet
Substitution2: "'smcp' Lowercase to Small Capitals lookup 16-1" i.smcp
EndChar

StartChar: h
Encoding: 104 104 13
Width: 552
VWidth: 0
Flags: HW
LayerCount: 2
Fore
SplineSet
40.5 0 m 1
 164.5 782.5 l 1
 327.75 782.5 l 1
 279.25 476.5 l 1
 321.5 507 368 540 449 540 c 3
 579 540 591.75 453.5 574.75 347.5 c 2
 519.5 0 l 9
 355.5 0 l 17
 410.75 350.5 l 2
 418.5 398.5 403.5 413.5 374 413.5 c 3
 326.25 413.5 296.25 401 263.5 371.5 c 1
 204.5 0 l 1
 40.5 0 l 1
EndSplineSet
Substitution2: "'smcp' Lowercase to Small Capitals lookup 16-1" h.smcp
EndChar

StartChar: u
Encoding: 117 117 14
Width: 551
VWidth: 0
Flags: HW
LayerCount: 2
Fore
SplineSet
62.5 183.5 m 2
 117.5 531 l 9
 281.5 531 l 17
 225.75 180.5 l 2
 217.5 130 234 117.5 263.25 117.5 c 3
 311 117.5 341 130 373.75 159.5 c 1
 432.5 531 l 1
 596.5 531 l 1
 511.75 0 l 1
 377.25 0 l 1
 357 54.5 l 1
 308.75 16.5 269.25 -9 188.25 -9 c 3
 58.25 -9 45.25 75.75 62.5 183.5 c 2
EndSplineSet
AlternateSubs2: "'salt' Access All Alternates in Latin lookup 4-1" u.salt
Substitution2: "'smcp' Lowercase to Small Capitals lookup 16-1" u.smcp
EndChar

StartChar: r
Encoding: 114 114 15
Width: 414
VWidth: 0
Flags: HW
LayerCount: 2
Fore
SplineSet
40.5 0 m 1
 124.5 531 l 1
 266.5 531 l 1
 277.5 464 l 1
 311.5 499.75 365 536.25 425.25 536.25 c 27
 446 536.25 464 535.75 478 530.5 c 1
 453.25 372.75 l 1
 438.25 373.5 406.25 374.25 375.75 374.25 c 27
 325.75 374.25 282.5 369 254.25 314.75 c 1
 204.5 0 l 1
 40.5 0 l 1
EndSplineSet
AlternateSubs2: "'salt' Access All Alternates in Latin lookup 4-1" r.salt
Substitution2: "'smcp' Lowercase to Small Capitals lookup 16-1" r.smcp
EndChar

StartChar: m
Encoding: 109 109 16
Width: 867
VWidth: 0
Flags: W
HStem: 0 21G<40.5 207.667 354 521.179 670.5 837.675> 0 21G<40.5 207.667 354 521.179 670.5 837.675> 412.75 126.5<345.703 480.75 654.709 826.125> 511 20G<121.336 266.636>
DStem2: 40.5 0 204.5 0 0.156249 0.987718<25.6249 423.748> 354 0 518 0 0.156198 0.987726<25.6166 407.88> 670.5 0 834.5 0 0.157522 0.987515<25.8336 406.971>
LayerCount: 2
Fore
SplineSet
40.5 0 m 1xa0
 124.5 531 l 1
 259 531 l 1x90
 280 476 l 1
 328.25 509.5 365.5 539.25 447 539.25 c 1
 514.5 539.25 554.25 512.75 569.25 472 c 1
 620 503.75 681.75 539.25 763.75 539.25 c 1
 888.5 539.25 907 456 889.5 346.5 c 2
 834.5 0 l 1
 670.5 0 l 1
 726.25 349.5 l 2
 733.75 395.75 717.25 412.75 688.75 412.75 c 1
 643.25 412.75 608.5 403.5 577.5 376.25 c 1
 576.75 370.25 573.75 352.75 573 346 c 2
 518 0 l 1
 354 0 l 1
 409 349.5 l 2
 416.5 395.75 400.5 412.75 372 412.75 c 1
 324.25 412.75 296 400.5 263.25 371 c 1
 204.5 0 l 1
 40.5 0 l 1xa0
EndSplineSet
AlternateSubs2: "'salt' Access All Alternates in Latin lookup 4-1" m.salt
Substitution2: "'smcp' Lowercase to Small Capitals lookup 16-1" m.smcp
EndChar

StartChar: f
Encoding: 102 102 17
Width: 405
VWidth: 0
Flags: HW
LayerCount: 2
Fore
SplineSet
77.75 412 m 1
 94.25 513.5 l 1
 175.75 531 l 1
 189.25 614.25 l 2
 209.75 744.25 270.25 785.75 389.25 785.75 c 1
 436 785.75 481.75 778 512.75 761.75 c 1
 497.5 666.25 l 1
 496.75 666.25 414.75 667 414.75 667 c 2
 360 667.75 357.5 644.25 345.75 569.25 c 2
 339.75 531 l 1
 454.5 531 l 1
 435.75 412 l 1
 320.75 412 l 1
 254.5 0 l 1
 90.5 0 l 1
 156.5 412 l 1
 77.75 412 l 1
EndSplineSet
AlternateSubs2: "'salt' Access All Alternates in Latin lookup 4-1" f.salt
Substitution2: "'smcp' Lowercase to Small Capitals lookup 16-1" f.smcp
EndChar

StartChar: l
Encoding: 108 108 18
Width: 314
VWidth: 0
Flags: W
HStem: 0 98.75<260.59 300.75> 763 20G<158.835 326>
DStem2: 68 189 237.25 219 0.156304 0.987709<-25.039 601.392>
LayerCount: 2
Fore
SplineSet
68 189 m 2
 162 783 l 1
 326 783 l 1
 237.25 219 l 2
 225 142.5 239.25 130.25 264 119 c 2
 264 119 311 98.75 316.5 98.75 c 1
 300.75 0 l 1
 202.75 0 l 2
 107.75 0 46.5 51 68 189 c 2
EndSplineSet
Substitution2: "'smcp' Lowercase to Small Capitals lookup 16-1" l.smcp
EndChar

StartChar: j
Encoding: 106 106 19
Width: 253
VWidth: 0
Flags: HW
LayerCount: 2
Fore
SplineSet
2.5 -270 m 1
 129.5 531 l 1
 293.5 531 l 1
 208.5 -4 l 2
 195.5 -90 177.5 -188.5 125.5 -270 c 1
 2.5 -270 l 1
136.75 607 m 2
 153.25 708.25 l 2
 155.25 723.25 165.25 733.25 181.25 733.25 c 2
 306.25 733.25 l 2
 321.25 733.25 327.25 722.25 325.25 708.25 c 2
 308.75 607 l 2
 306.75 592 296.5 584 282.5 584 c 2
 157.5 584 l 2
 143.5 584 134.75 593 136.75 607 c 2
EndSplineSet
Substitution2: "'smcp' Lowercase to Small Capitals lookup 16-1" j.smcp
EndChar

StartChar: t
Encoding: 116 116 20
Width: 375
VWidth: 0
Flags: W
HStem: -0.75 98.75<307.847 349> 413 119<334.75 421.5>
DStem2: 116.75 189.75 285.25 219.75 0.157174 0.987571<-31.0153 226.016>
LayerCount: 2
Fore
SplineSet
71 413 m 1
 84.5 499 l 1
 170.75 532 l 1
 220 680 l 1
 358.5 680 l 1
 334.75 532 l 1
 440.25 532 l 1
 421.5 413 l 1
 316 413 l 1
 285.25 219.75 l 2
 273.25 141.75 286.5 129.5 311.25 118.25 c 2
 311.25 118.25 359 98 364.5 98 c 1
 349 -0.75 l 1
 242 -0.75 l 2
 157.75 -0.75 95.25 51.5 116.75 189.75 c 2
 152 413 l 1
 71 413 l 1
EndSplineSet
AlternateSubs2: "'salt' Access All Alternates in Latin lookup 4-1" t.salt
Substitution2: "'smcp' Lowercase to Small Capitals lookup 16-1" t.smcp
EndChar

StartChar: s
Encoding: 115 115 21
Width: 509
VWidth: 0
Flags: W
HStem: -6.25 131.75<69.8013 341.604> 196.25 138.5<246.823 346.451> 406.5 130.75<251.656 519.134>
LayerCount: 2
Fore
SplineSet
52.75 26.25 m 9
 68.5 125.5 l 17
 310.25 125.5 l 18
 323 125.5 338.75 129.25 342.75 151.75 c 2
 345.75 169 l 2
 348.75 186.75 344.25 196.25 321.25 196.25 c 10
 213 196.25 l 2
 119 196.25 64.5 255.75 80.5 358 c 10
 88.5 405.25 l 18
 101.75 488.25 146.75 537.25 249.75 537.25 c 3
 370 537.25 503.5 536.75 535.75 506.25 c 9
 520 406.5 l 17
 287.5 406.5 l 2
 261.75 406.5 253.25 396.75 250.25 378.25 c 10
 247.5 361 l 18
 242.5 332.25 260.25 334.75 276.25 334.75 c 2
 388.75 334.75 l 2
 495.25 334.75 526.25 257.5 513.5 179.5 c 1
 504.5 119.5 l 2
 487.5 10.5 413.5 -6.25 351.5 -6.25 c 3
 232 -6.25 84.5 -5.5 52.75 26.25 c 9
EndSplineSet
Substitution2: "'smcp' Lowercase to Small Capitals lookup 16-1" s.smcp
EndChar

StartChar: k
Encoding: 107 107 22
Width: 545
VWidth: 0
Flags: W
HStem: 0 21G<40.5 207.727 386.606 576.5> 0 21G<40.5 207.727 386.606 576.5> 511 20G<421.5 608.5> 762 20G<161.329 328.5>
DStem2: 40.5 0 204.5 0 0.156611 0.98766<25.6842 262.709 375.95 791.77> 428 288 280.25 235 0.458289 -0.888803<-1.2716 241.539>
LayerCount: 2
Fore
SplineSet
40.5 0 m 1xb0
 164.5 782 l 1
 328.5 782 l 1
 259 346 l 1
 332.75 375 407.5 441 435.5 531 c 1
 608.5 531 l 1
 570 391 487 321 428 288 c 1
 576.5 0 l 1
 396.5 0 l 1
 280.25 235 l 1
 242.25 234 l 9
 204.5 0 l 17
 40.5 0 l 1xb0
EndSplineSet
Substitution2: "'smcp' Lowercase to Small Capitals lookup 16-1" k.smcp
EndChar

StartChar: g
Encoding: 103 103 23
Width: 558
VWidth: 0
Flags: HW
LayerCount: 2
Fore
SplineSet
13 -248 m 1
 30 -139 l 1
 243 -139 l 2
 294.5 -139 333 -108 343 -44 c 2
 356.5 40.25 l 1
 320 12.75 279 2.25 234 2.25 c 3
 79.25 2.25 48 120 76.75 303.5 c 0
 106 487.25 193 541.5 314.75 541.5 c 3
 420.75 541.5 547 526.25 596.75 508.75 c 1
 505.5 -66.5 l 2
 483.25 -207 405.75 -289 244.5 -272 c 2
 13 -248 l 1
241.5 285.25 m 0
 225.5 183.5 218.75 125.5 286.25 125.5 c 3
 319.75 125.5 341 129.5 373 146 c 1
 417.25 422.5 l 2
 336.5 422.5 l 2
 266.25 422.5 250.75 341.5 241.5 285.25 c 0
EndSplineSet
AlternateSubs2: "'salt' Access All Alternates in Latin lookup 4-1" g.salt
Substitution2: "'smcp' Lowercase to Small Capitals lookup 16-1" g.smcp
EndChar

StartChar: v
Encoding: 118 118 24
Width: 542
VWidth: 0
Flags: W
HStem: 0 21G<169.007 381.448> 0 21G<169.007 381.448> 511 20G<79.75 255.833 431.125 594.25>
VStem: 433.75 154.25<437.775 532.5>
DStem2: 294.5 179.5 371.25 0 0.454256 0.890871<0 334.776>
LayerCount: 2
Fore
SplineSet
79.75 531 m 25xb0
 253.5 531 l 17
 294.5 179.5 l 1
 399.5 409 l 2
 412.5 436 428.5 473.75 433.75 532.5 c 9
 588 532.5 l 17
 600.5 466.5 574 397.25 551.5 353.5 c 1
 371.25 0 l 9
 172.5 0 l 25
 79.75 531 l 25xb0
EndSplineSet
Substitution2: "'smcp' Lowercase to Small Capitals lookup 16-1" v.smcp
EndChar

StartChar: w
Encoding: 119 119 25
Width: 839
VWidth: 0
Flags: HW
LayerCount: 2
Fore
SplineSet
79.75 531 m 1
 252.75 531 l 1
 293 180.75 l 1
 398.25 408.25 l 1
 411.25 435.25 427.25 473 432.5 531.75 c 1
 585.5 531.75 l 1
 594.25 486 585 439.25 569.25 398.5 c 1
 557.5 370.25 l 1
 592 182.25 l 1
 699 409 l 1
 712 436 728 473.75 733.25 532.5 c 1
 886.5 532.5 l 1
 899 466.5 873 397 850 353.5 c 2
 665.25 0 l 1
 480.5 0 l 1
 448.75 176.5 l 1
 368.5 0 l 1
 172.5 0 l 1
 79.75 531 l 1
EndSplineSet
Substitution2: "'smcp' Lowercase to Small Capitals lookup 16-1" w.smcp
EndChar

StartChar: y
Encoding: 121 121 26
Width: 568
VWidth: 0
Flags: HW
LayerCount: 2
Fore
SplineSet
80.5 531 m 1
 250.5 531 l 1
 272.5 175.25 l 2
 275.25 139.75 305.25 137 317.25 136.25 c 1
 430 408.75 l 2
 441 436.5 450.5 473.5 455.75 532.25 c 1
 610.5 532.25 l 1
 623 466.25 601 397.5 581.25 352.25 c 1
 428.5 0.25 l 2
 314.75 -257.75 159.5 -283.75 89.75 -295.25 c 1
 89.75 -180 l 1
 182 -133.75 227.25 -73.25 264.25 0 c 1
 170.25 0 122.5 52 114.25 144.5 c 2
 80.5 531 l 1
EndSplineSet
Substitution2: "'smcp' Lowercase to Small Capitals lookup 16-1" y.smcp
EndChar

StartChar: x
Encoding: 120 120 27
Width: 590
VWidth: 0
Flags: W
HStem: 0 21G<16.5 230.546 369.406 567.5> 0 21G<16.5 230.546 369.406 567.5> 511 20G<100.5 304.066 445.693 658.25>
LayerCount: 2
Fore
SplineSet
16.5 0 m 1xa0
 238.75 277 l 1
 100.5 531 l 1
 295.75 531 l 1
 355 388.5 l 1
 460.5 531 l 1
 658.25 531 l 1
 433.75 247 l 1
 567.5 0 l 1
 378.25 0 l 1
 318 136.25 l 1
 215.5 0 l 1
 16.5 0 l 1xa0
EndSplineSet
AlternateSubs2: "'salt' Access All Alternates in Latin lookup 4-1" x.salt
Substitution2: "'smcp' Lowercase to Small Capitals lookup 16-1" x.smcp
EndChar

StartChar: V
Encoding: 86 86 28
Width: 691
VWidth: 0
Flags: HW
LayerCount: 2
Fore
SplineSet
135 732 m 1
 307.5 732 l 1
 365.75 208.25 l 1
 598.25 732 l 1
 780 732 l 1
 432.5 0 l 1
 238.5 0 l 1
 135 732 l 1
EndSplineSet
Substitution2: "'c2sc' Capitals to Small Capitals in Latin lookup 17 subtable" v.smcp
EndChar

StartChar: W
Encoding: 87 87 29
Width: 1013
VWidth: 0
Flags: HW
LayerCount: 2
Fore
SplineSet
135 732 m 1
 306.75 732 l 1
 366.75 216.25 l 1
 575.75 732 l 1
 749.75 732 l 1
 669.25 547.5 l 1
 717 214.75 l 1
 929.75 732 l 1
 1103 732 l 1
 785.5 0 l 1
 597.5 0 l 1
 556 274.25 l 1
 437.75 0 l 1
 238.5 0 l 1
 135 732 l 1
EndSplineSet
Substitution2: "'c2sc' Capitals to Small Capitals in Latin lookup 17 subtable" w.smcp
EndChar

StartChar: C
Encoding: 67 67 30
Width: 569
VWidth: 0
Flags: W
HStem: -6 149<278.421 524.562> 591 149<335.084 608.58>
LayerCount: 2
Fore
SplineSet
94.75 391.25 m 0
 131.5 624.5 205 740 404 740 c 0
 525 740 579.75 729.75 657.5 702.5 c 1
 637.25 574.5 l 1
 631 575.25 527.5 591.5 426.5 591 c 1
 349.75 590.75 294.75 595 258.75 366 c 1
 232.25 202.5 249 145.25 354 143 c 1
 443.75 142.25 535.5 149.25 571 151.75 c 1
 551 23.75 l 1
 480.25 -1.5 414.25 -8.25 287 -6 c 0
 101.75 -3.75 59.25 164.25 94.75 391.25 c 0
EndSplineSet
Substitution2: "'c2sc' Capitals to Small Capitals in Latin lookup 17 subtable" c.smcp
EndChar

StartChar: D
Encoding: 68 68 31
Width: 651
VWidth: 0
Flags: W
HStem: 0 142.25<240.25 425.4> 590.5 141.5<311.25 493.735>
DStem2: 53.75 0 240.25 142.25 0.156569 0.987667<169.696 623.534>
LayerCount: 2
Fore
SplineSet
53.75 0 m 1
 169.75 731.75 l 2
 169.75 732 460 732 475 732 c 0
 680.5 732 703.5 539 673.25 340.5 c 0
 633.25 77.25 544.25 0 371.75 0 c 0
 53.75 0 l 1
240.25 142.25 m 1
 368 142.25 l 2
 448.5 142.25 487.5 221 510 364 c 0
 539.75 550.25 506.5 590.5 431.5 590.5 c 2
 311.25 590.5 l 1
 240.25 142.25 l 1
EndSplineSet
Substitution2: "'c2sc' Capitals to Small Capitals in Latin lookup 17 subtable" d.smcp
EndChar

StartChar: O
Encoding: 79 79 32
Width: 666
VWidth: 0
Flags: W
HStem: -4 149<276.819 451.577> 588 149<340.192 517.413>
LayerCount: 2
Fore
SplineSet
99.25 379.75 m 0
 153.25 722.75 284.25 737 454 737 c 3
 627.25 737 748.25 682.25 695.25 342.25 c 0
 644.75 19.25 520 -4 341.75 -4 c 3
 166.25 -4 46.25 46.75 99.25 379.75 c 0
263.25 361 m 0
 235 182 251.5 145 362.5 145 c 3
 462.5 145 502.75 182.5 531.25 361 c 0
 563.25 563.25 532.5 588 433.25 588 c 3
 334 588 296 570 263.25 361 c 0
EndSplineSet
Substitution2: "'c2sc' Capitals to Small Capitals in Latin lookup 17 subtable" o.smcp
EndChar

StartChar: S
Encoding: 83 83 33
Width: 582
VWidth: 0
Flags: HW
LayerCount: 2
Fore
SplineSet
67.75 23.5 m 9
 88 151.75 l 17
 128 147.25 242 141 335 141 c 0
 377.5 141 413.25 150.5 420.25 194.25 c 2
 424.5 223.25 l 2
 430.5 259.25 425 280.75 373 280.75 c 10
 285.75 280.75 l 2
 103.25 280.75 107.873 432.414 115.5 486.5 c 10
 126.25 566 l 18
 147.5 713.75 245 736.75 356 738 c 0
 480.25 740.5 572.5 729.5 638.5 707.25 c 9
 618.25 579.25 l 17
 558.5 584.5 434 589 384.5 589 c 1
 325 590 297.75 585.5 288.75 530 c 10
 284.75 505.25 l 18
 276.75 455.25 292.75 444.75 346.5 444.75 c 2
 436.75 444.75 l 18
 581.5 444.75 600 323.25 589.25 242.75 c 2
 585 178.5 l 2
 573.75 -0.5 436.5 -8 341.75 -8 c 3
 214.225 -8 147.75 -3.75 67.75 23.5 c 9
EndSplineSet
Substitution2: "'c2sc' Capitals to Small Capitals in Latin lookup 17 subtable" s.smcp
EndChar

StartChar: G
Encoding: 71 71 34
Width: 615
VWidth: 0
Flags: HW
LayerCount: 2
Fore
SplineSet
99 399.25 m 0
 143.25 632.5 202 739.75 401 739.75 c 0
 532.5 740 568.5 734.25 682.25 703.25 c 1
 662.25 578.25 l 1
 642.75 580.5 531 598 424.25 598.25 c 1
 339.75 598.5 294.5 565.75 263.75 367.25 c 1
 237.75 203.5 245.5 146.25 340.75 146.5 c 1
 406.75 146.5 448.5 194.75 448.5 194.75 c 9
 466 299 l 25
 387 299 l 25
 403.25 401.5 l 17
 450.5 422.25 512.5 426.5 582.25 426.5 c 0
 603.25 426.5 626 425.5 650 423.5 c 9
 582.25 0 l 17
 465.25 0 l 0
 427.5 51 l 1
 394 16 359.25 -1.75 280.25 -5.5 c 0
 77 -15 61.25 200.75 99 399.25 c 0
EndSplineSet
Substitution2: "'c2sc' Capitals to Small Capitals in Latin lookup 17 subtable" g.smcp
EndChar

StartChar: Q
Encoding: 81 81 35
Width: 667
VWidth: 0
Flags: HW
LayerCount: 2
Fore
SplineSet
100.25 383.5 m 0
 154.25 726.5 285.25 737 455 737 c 3
 628.25 737 749.25 678.5 696.25 338.5 c 1
 645.75 15.5 521 -2.5 342.75 -4 c 1
 167.25 -4 47.25 50.5 100.25 383.5 c 0
264.25 361 m 0
 236 182 252.5 145 363.5 145 c 3
 463.5 145 503.75 182.5 532.25 361 c 0
 564.25 563.25 533.5 588 434.25 588 c 3
 335 588 297 570 264.25 361 c 0
287.25 -33 m 9
 376.75 -33 l 17
 387.5 -89.75 471 -78.5 532.75 -64.25 c 1
 513 -189.25 l 1
 398.75 -209.5 270 -171.25 287.25 -33 c 9
EndSplineSet
Substitution2: "'c2sc' Capitals to Small Capitals in Latin lookup 17 subtable" q.smcp
EndChar

StartChar: M
Encoding: 77 77 36
Width: 837
VWidth: 0
Flags: W
HStem: 0 21G<41 211.48 342.613 540.383 670.75 833.668> 0 21G<41 211.48 342.613 540.383 670.75 833.668> 712 20G<222.404 455.01 636.519 875.25>
DStem2: 41 0 206.5 0 0.246894 0.969042<40.861 503.309> 477.25 271.5 533 0 0.340021 0.940418<0 242.239> 670.75 0 832.5 0 0.0583023 0.998299<9.4304 449.869>
LayerCount: 2
Fore
SplineSet
41 0 m 1xa0
 227.5 732 l 1
 454 732 l 1
 477.25 271.5 l 1
 643.75 732 l 1
 875.25 732 l 1
 832.5 0 l 1
 670.75 0 l 1
 698.75 449 l 1
 533 0 l 1
 343.75 0 l 1
 318.25 448.75 l 1
 206.5 0 l 1
 41 0 l 1xa0
EndSplineSet
AlternateSubs2: "'salt' Access All Alternates in Latin lookup 4-1" M.salt
Substitution2: "'c2sc' Capitals to Small Capitals in Latin lookup 17 subtable" m.smcp
EndChar

StartChar: I
Encoding: 73 73 37
Width: 267
VWidth: 0
Flags: W
HStem: 0 21G<56.25 223.419> 0 21G<56.25 223.419> 712 20G<169.081 336.25>
VStem: 56.25 280
DStem2: 56.25 0 220.25 0 0.156517 0.987675<25.6688 741.134>
LayerCount: 2
Fore
SplineSet
56.25 0 m 1xb0
 172.25 732 l 1
 336.25 732 l 1
 220.25 0 l 1
 56.25 0 l 1xb0
EndSplineSet
Substitution2: "'c2sc' Capitals to Small Capitals in Latin lookup 17 subtable" i.smcp
EndChar

StartChar: J
Encoding: 74 74 38
Width: 355
VWidth: 0
Flags: W
HStem: 712 20G<264.337 431.5>
DStem2: 191 248.25 341.5 165 0.156768 0.987636<-82.3105 489.761>
LayerCount: 2
Fore
SplineSet
26.75 24 m 1
 48 153 l 1
 144.5 148.5 176.75 157 191 248.25 c 1
 267.5 732 l 1
 431.5 732 l 1
 341.5 165 l 2
 334.5 118 320 50 265 18 c 0
 207 -16 73.75 -10 26.75 24 c 1
EndSplineSet
Substitution2: "'c2sc' Capitals to Small Capitals in Latin lookup 17 subtable" j.smcp
EndChar

StartChar: H
Encoding: 72 72 39
Width: 636
VWidth: 0
Flags: W
HStem: 0 21G<55 222.166 434 601.169> 0 21G<55 222.166 434 601.169> 279.5 149<286.75 478.25> 712 20G<167.831 335 546.82 714>
DStem2: 55 0 219 0 0.156517 0.987675<25.6688 308.65 459.492 741.134> 434 0 598 0 0.156517 0.987675<25.6688 282.981 433.823 741.134>
LayerCount: 2
Fore
SplineSet
55 0 m 1xb0
 171 732 l 1
 335 732 l 1
 286.75 428.5 l 1
 501.75 428.5 l 1
 550 732 l 1
 714 732 l 1
 598 0 l 1
 434 0 l 1
 478.25 279.5 l 1
 263.25 279.5 l 1
 219 0 l 1
 55 0 l 1xb0
EndSplineSet
Substitution2: "'c2sc' Capitals to Small Capitals in Latin lookup 17 subtable" h.smcp
EndChar

StartChar: E
Encoding: 69 69 40
Width: 558
VWidth: 0
Flags: W
HStem: -3 152.75<244.812 526.92> 14 135.75<246.152 530.75> 287.75 155.5<282.75 456.285> 297 135.5<375.715 527.25> 579.25 152.75<307.073 619.25> 579.25 136.75<339.114 620>
DStem2: 72.5 160.5 244 201.75 0.156174 0.987729<23.8475 154.659 312.116 442.428>
LayerCount: 2
Fore
SplineSet
72.5 160.5 m 2x80
 138.75 579.5 l 2
 160 712 249.5 733 335.25 732 c 1x88
 335.25 732 555.5 728 641.75 716 c 1
 620 579.25 l 1x04
 355.5 579.25 l 2
 304.5 579.25 299.25 550.25 295.25 523.25 c 2
 282.75 443.25 l 1x28
 549.25 432.5 l 1
 527.25 297 l 1x10
 258 287.75 l 1
 244 201.75 l 2
 235.5 148.75 269.25 149.75 298.25 149.75 c 2xa0
 552.75 149.75 l 1
 530.75 14 l 1x40
 451.25 3.5 228.25 -3 228.25 -3 c 1
 156 -5.75 50.75 22.25 72.5 160.5 c 2x80
EndSplineSet
Substitution2: "'c2sc' Capitals to Small Capitals in Latin lookup 17 subtable" e.smcp
EndChar

StartChar: L
Encoding: 76 76 41
Width: 527
VWidth: 0
Flags: W
HStem: 0 149<249.773 510.25> 712 20G<166.071 333>
DStem2: 76.5 148.5 248.75 201 0.156984 0.987601<35.2551 590.826>
LayerCount: 2
Fore
SplineSet
76.5 148.5 m 2
 169.25 732 l 1
 333 732 l 1
 248.75 201 l 2
 240.75 148 274 149 303 149 c 2
 534 149 l 1
 510.25 0 l 1
 211.25 0 l 2
 126.25 0 59.25 40.25 76.5 148.5 c 2
EndSplineSet
Substitution2: "'c2sc' Capitals to Small Capitals in Latin lookup 17 subtable" l.smcp
EndChar

StartChar: F
Encoding: 70 70 42
Width: 559
VWidth: 0
Flags: HW
LayerCount: 2
Fore
SplineSet
50 0 m 17
 139 564.5 l 2
 160.25 697 250.5 733 337 732 c 1
 337 732 557.25 728 643.5 716 c 1
 622.5 579.25 l 1
 358 579.25 l 2
 307 579.25 301 550.25 297 523.25 c 2
 284 440.25 l 1
 551 429.5 l 1
 530 294 l 1
 259 284.75 l 1
 214 0 l 9
 50 0 l 17
EndSplineSet
Substitution2: "'c2sc' Capitals to Small Capitals in Latin lookup 17 subtable" f.smcp
EndChar

StartChar: K
Encoding: 75 75 43
Width: 638
VWidth: 0
Flags: HW
LayerCount: 2
Fore
SplineSet
53.75 0 m 1
 169.75 732 l 1
 326.25 732 l 1
 278.75 434 l 1
 323 434 l 1
 538 732 l 1
 735.75 732 l 1
 465.5 352.25 l 1
 619.75 0 l 1
 434 0 l 1
 316.75 292.5 l 1
 257.25 292.5 l 9
 211.25 0 l 17
 53.75 0 l 1
EndSplineSet
Substitution2: "'c2sc' Capitals to Small Capitals in Latin lookup 17 subtable" k.smcp
EndChar

StartChar: T
Encoding: 84 84 44
Width: 592
VWidth: 0
Flags: W
HStem: 0 21G<215.25 382.406> 0 21G<215.25 382.406> 583 149<139.75 307.25 471.25 668.75>
DStem2: 215.25 0 379.25 0 0.155876 0.987777<25.5636 590.214>
LayerCount: 2
Fore
SplineSet
115.75 583 m 1xa0
 139.75 732 l 1
 692.75 732 l 1
 668.75 583 l 1
 471.25 583 l 1
 379.25 0 l 1
 215.25 0 l 1
 307.25 583 l 1
 115.75 583 l 1xa0
EndSplineSet
Substitution2: "'c2sc' Capitals to Small Capitals in Latin lookup 17 subtable" t.smcp
EndChar

StartChar: P
Encoding: 80 80 45
Width: 598
VWidth: 0
Flags: HW
LayerCount: 2
Fore
SplineSet
51.75 0 m 1
 167.75 732 l 1
 473.75 732 l 2
 570 732 681.25 678.75 650.25 478.75 c 0
 614.75 246.25 485.75 255.25 399 260.5 c 0
 359 262.75 265 276.75 260 279.75 c 1
 215.75 0 l 1
 51.75 0 l 1
279.25 402 m 2
 406 402 l 2
 447.5 402 474 427.5 485.25 499 c 1
 496 569.25 472.25 589.5 436.25 589.5 c 2
 309.25 589.5 l 1
 279.25 402 l 2
EndSplineSet
Substitution2: "'c2sc' Capitals to Small Capitals in Latin lookup 17 subtable" p.smcp
EndChar

StartChar: R
Encoding: 82 82 46
Width: 601
VWidth: 0
Flags: W
HStem: 0 21G<51.75 218.909 413.864 605.75> 0 21G<51.75 218.909 413.864 605.75> 281.75 125.5<281 338.75> 589.5 142.5<310.25 480.707>
DStem2: 51.75 0 215.75 0 0.156517 0.987675<25.6688 310.911 438.112 622.694>
LayerCount: 2
Fore
SplineSet
51.75 0 m 1xb0
 167.75 732 l 1
 476 732 l 2
 594.75 732 675.75 660.25 649.75 482 c 0
 624 303.5 540.75 288.75 502.75 283.25 c 1
 605.75 0 l 1
 419.75 0 l 1
 338.75 275.25 l 1
 260.25 281.75 l 1
 215.75 0 l 1
 51.75 0 l 1xb0
281 407.25 m 1
 404.25 407.25 l 2
 456.25 407.25 476.5 434.75 484.75 500.75 c 0
 492.75 566.75 480.75 589.5 434.75 589.5 c 2
 310.25 589.5 l 1
 281 407.25 l 1
EndSplineSet
Substitution2: "'c2sc' Capitals to Small Capitals in Latin lookup 17 subtable" r.smcp
EndChar

StartChar: U
Encoding: 85 85 47
Width: 653
VWidth: 0
Flags: HW
LayerCount: 2
Fore
SplineSet
103.75 338 m 2
 167.25 732 l 1
 331.5 732 l 1
 265.75 315.5 l 2
 247 197.5 254.75 144 356 144 c 3
 455.25 144 481 203.5 498.5 315.5 c 2
 564.25 732 l 1
 729.25 732 l 1
 667.25 293 l 2
 623.25 15 485 -5 333.5 -5 c 3
 190.5 -5 55.25 33 103.75 338 c 2
EndSplineSet
Substitution2: "'c2sc' Capitals to Small Capitals in Latin lookup 17 subtable" u.smcp
EndChar

StartChar: B
Encoding: 66 66 48
Width: 600
VWidth: 0
Flags: HW
LayerCount: 2
Fore
SplineSet
53.75 0 m 1
 169.75 732 l 1
 471.5 732 l 2
 625 732 670.25 632.75 652.75 518.75 c 0
 642.25 447.25 593.75 388.5 524.75 380 c 1
 586.75 369.75 630.25 297.25 617 197.25 c 0
 593.25 26.25 513.25 0 359.25 0 c 2
 53.75 0 l 1
240.5 141.5 m 1
 374.25 141.5 l 2
 414.75 141.5 444.25 164.25 454.25 227 c 0
 461.75 273.25 451.75 316.25 401.5 316.25 c 9
 267.75 316.25 l 1
 240.5 141.5 l 1
289.5 450.25 m 1
 415.75 450.25 l 2
 457 450.25 483 477.25 489.25 518.75 c 0
 498.25 576 470.75 590.5 438.25 590.5 c 2
 311.75 590.5 l 1
 289.5 450.25 l 1
EndSplineSet
Substitution2: "'c2sc' Capitals to Small Capitals in Latin lookup 17 subtable" b.smcp
EndChar

StartChar: N
Encoding: 78 78 49
Width: 672
VWidth: 0
Flags: HW
LayerCount: 2
Fore
SplineSet
53.75 0 m 1
 169.75 732 l 1
 334.75 732 l 1
 517 299.25 l 1
 584.75 732 l 1
 748.75 732 l 1
 632.75 0 l 0
 469.75 0 l 1
 285.75 425.25 l 1
 218.75 0 l 1
 53.75 0 l 1
EndSplineSet
AlternateSubs2: "'salt' Access All Alternates in Latin lookup 4-1" N.salt
Substitution2: "'c2sc' Capitals to Small Capitals in Latin lookup 17 subtable" n.smcp
EndChar

StartChar: X
Encoding: 88 88 50
Width: 659
VWidth: 0
Flags: W
HStem: 0 21G<30.5 228.032 444.801 633.25> 0 21G<30.5 228.032 444.801 633.25> 712 20G<143.5 331.991 558.465 756>
DStem2: 30.5 0 214 0 0.578839 0.815441<106.217 374.348> 324.25 732 143.5 732 0.388901 -0.92128<0 244.372 489.17 724.253> 412.5 504 480.75 346 0.58059 0.814196<0 278.531>
LayerCount: 2
Fore
SplineSet
30.5 0 m 1xa0
 299 378.25 l 1
 143.5 732 l 1
 324.25 732 l 1
 412.5 504 l 1
 572.5 732 l 1
 756 732 l 1
 480.75 346 l 1
 633.25 0 l 1
 452.5 0 l 1
 368 219.5 l 1
 214 0 l 1
 30.5 0 l 1xa0
EndSplineSet
AlternateSubs2: "'salt' Access All Alternates in Latin lookup 4-1" X.salt
Substitution2: "'c2sc' Capitals to Small Capitals in Latin lookup 17 subtable" x.smcp
EndChar

StartChar: Z
Encoding: 90 90 51
Width: 555
VWidth: 0
Flags: HW
LayerCount: 2
Fore
SplineSet
23.75 0 m 1
 47.75 149 l 1
 425.5 583 l 1
 115.75 583 l 1
 139.75 732 l 1
 647.75 732 l 1
 623.75 583 l 1
 260.25 149 l 1
 555.75 149 l 1
 531.75 0 l 1
 23.75 0 l 1
EndSplineSet
Substitution2: "'c2sc' Capitals to Small Capitals in Latin lookup 17 subtable" z.smcp
EndChar

StartChar: Y
Encoding: 89 89 52
Width: 666
VWidth: 0
Flags: HW
LayerCount: 2
Fore
SplineSet
135 732 m 1
 312.75 732 l 1
 380.75 393.75 l 1
 568.75 732 l 1
 755 732 l 1
 436.75 215 l 1
 402.5 0 l 1
 238.5 0 l 1
 272.75 215 l 1
 135 732 l 1
EndSplineSet
Substitution2: "'c2sc' Capitals to Small Capitals in Latin lookup 17 subtable" y.smcp
EndChar

StartChar: AE
Encoding: 198 198 59
Width: 1050
VWidth: 0
Flags: HW
LayerCount: 2
Fore
SplineSet
20.25 0 m 1
 387.25 565 l 2
 491.25 724.75 617.5 737.25 741.75 732 c 1
 741.75 732 963.5 728 1049 716 c 1
 1028 579 l 1
 762.75 579 l 2
 711.75 579 707 550.75 702.5 523.75 c 1
 689 439 l 1
 956.25 428.25 l 1
 935.25 292.75 l 1
 664 283.5 l 1
 651 201.25 l 2
 643 148.25 676.25 149.25 705.25 149.25 c 2
 959.75 149.25 l 1
 937.75 13.5 l 1
 859 3 638.25 -3.5 638.25 -3.5 c 2
 568.5 -7.5 457.25 15 474.25 123.25 c 2
 483.5 182.75 l 1
 323 182.75 l 1
 202.75 0 l 1
 20.25 0 l 1
412.75 324.25 m 1
 506.25 324.25 l 1
 538.25 521.5 l 1
 412.75 324.25 l 1
EndSplineSet
EndChar

StartChar: Ccedilla
Encoding: 199 199 60
Width: 569
VWidth: 0
Flags: HW
LayerCount: 2
Fore
SplineSet
94.75 391.25 m 0
 131.5 624.5 205 740 404 740 c 0
 525 740 579.75 729.75 657.5 702.5 c 1
 637.25 574.5 l 1
 631 575.25 527.5 591.5 426.5 591 c 1
 349.75 590.75 295.25 595 259.25 366 c 0
 232.75 202.5 249 145.25 354 143 c 1
 443.75 142.25 535.5 149.25 571 151.75 c 1
 551 23.75 l 1
 480.25 -1.5 414.25 -8.25 287 -6 c 0
 101.75 -3.75 59.25 164.25 94.75 391.25 c 0
171 -179.75 m 9
 182.25 -111.25 l 25
 225.25 -96.25 l 17
 255.5 -85.25 258.5 -74.25 264.5 -36.25 c 1
 271.5 -36.5 369 -36.25 369 -36.25 c 17
 353 -138.25 318.5 -179.75 229.5 -179.75 c 2
 171 -179.75 l 9
EndSplineSet
Substitution2: "'c2sc' Capitals to Small Capitals in Latin lookup 17 subtable" ccedilla.smcp
EndChar

StartChar: Eth
Encoding: 208 208 61
Width: 647
VWidth: 0
Flags: HW
LayerCount: 2
Fore
SplineSet
42 338.5 m 1
 53.25 407.5 l 1
 118.25 407.5 l 1
 169.5 731.75 l 1
 169.5 732 465 732 480 732 c 1
 685.5 732 703.5 526.25 673.25 340.5 c 0
 633.25 95.25 551.5 0 379 0 c 2
 53.5 0 l 1
 107 338.5 l 1
 42 338.5 l 1
240 142.25 m 1
 371.5 142.25 l 2
 446.75 142.25 486.5 221 509 364 c 0
 538.75 550.25 509.25 590.5 442.5 590.5 c 2
 311 590.5 l 1
 282.25 407.5 l 1
 383.75 407.5 l 1
 372.5 338.5 l 1
 271 338.5 l 1
 240 142.25 l 1
EndSplineSet
Substitution2: "'c2sc' Capitals to Small Capitals in Latin lookup 17 subtable" eth.smcp
EndChar

StartChar: Oslash
Encoding: 216 216 76
Width: 666
VWidth: 0
Flags: HW
LayerCount: 2
Fore
SplineSet
33 0 m 1
 110 89.25 l 1
 84 143 76.25 250.5 97.75 383.5 c 0
 151.75 726.5 283.5 737 453.25 737 c 0
 525 737 588 730.5 632.5 699.25 c 1
 660.25 732 l 1
 740 732 l 1
 674.25 655 l 1
 706.75 600 716.75 487.25 693.75 338.5 c 0
 643.25 15.5 518.5 -4 340.25 -4 c 0
 261.25 -4 193 2.25 147.25 40.25 c 1
 112.75 0 l 1
 33 0 l 1
261.75 361 m 0
 254.5 315 251.5 281.5 253.75 255.75 c 1
 517.75 567.5 l 1
 499.5 584.75 470.25 588 431.75 588 c 0
 332.5 588 294.5 570 261.75 361 c 0
265.75 177 m 1
 282 152.5 312.25 145 361.75 145 c 0
 461.75 145 501.25 182.5 529.75 361 c 0
 539.5 424 543 468 539 500 c 1
 265.75 177 l 1
EndSplineSet
Substitution2: "'c2sc' Capitals to Small Capitals in Latin lookup 17 subtable" oslash.smcp
EndChar

StartChar: ae
Encoding: 230 230 88
Width: 830
VWidth: 0
Flags: HW
LayerCount: 2
Fore
SplineSet
56.25 307.25 m 0
 101.75 530.75 211 538.5 309.5 541 c 0
 361.75 543 438.5 535 486.75 515.25 c 1
 523 531.75 560.5 540.25 624.25 541 c 0
 734.5 541.75 855 512.25 849 388 c 0
 838.25 137.5 556.25 185.75 519.25 200.75 c 1
 508.75 135.25 528.5 120.5 599.5 120.25 c 0
 653 118.75 740.75 127.75 797 138 c 1
 776.75 22 l 1
 698 -2.5 619 -16 497.75 -7 c 0
 442 -3.25 402.5 20.5 378.75 62.25 c 1
 334.75 6.5 243 -7 191 -7 c 0
 90.25 -7 13.75 99.5 56.25 307.25 c 0
217 277.25 m 0
 204 190.25 200.75 128 260 127.75 c 0
 299.25 127.5 337.25 140 352 161 c 1
 349.25 202.5 352.75 252 363.25 308 c 0
 370.25 346 379 379.75 390.75 407 c 1
 366.75 415.5 330.5 419 307 414 c 0
 269.25 405.75 233.75 390.25 217 277.25 c 0
531.75 307.25 m 1
 531.75 307.25 666.5 279.25 681.25 361.75 c 0
 688.75 403.5 666.5 415.25 622.5 414.5 c 0
 551.25 413 541.75 363.75 531.75 307.25 c 1
EndSplineSet
Substitution2: "'smcp' Lowercase to Small Capitals lookup 16-1" ae.smcp
EndChar

StartChar: ccedilla
Encoding: 231 231 89
Width: 491
VWidth: 0
Flags: HW
LayerCount: 2
Fore
SplineSet
75.25 288.5 m 0
 111 507.75 192.5 536.5 292.5 536.5 c 3
 344.5 536.5 449 536.5 538 502.5 c 1
 522.5 403.5 l 1
 522.5 403.5 443.75 410 354.75 410 c 3
 289 410 263 409.5 238.25 263.5 c 0
 217.25 134.75 238 121 308.25 121 c 3
 400.25 121 486 129.75 486 129.75 c 1
 470.25 30.25 l 17
 386.75 -15.25 292.5 -4.75 209.5 -5.25 c 0
 109.75 -5 41.75 82.25 75.25 288.5 c 0
122 -181.25 m 9
 132.5 -112.75 l 25
 176.25 -97.75 l 17
 206.25 -85.75 208.75 -75.75 214.75 -37.75 c 1
 221.75 -38 319.25 -37.75 319.25 -37.75 c 17
 303.25 -139.75 269.5 -181.25 180.5 -181.25 c 2
 122 -181.25 l 9
EndSplineSet
Substitution2: "'smcp' Lowercase to Small Capitals lookup 16-1" ccedilla.smcp
EndChar

StartChar: eth
Encoding: 240 240 98
Width: 540
VWidth: 0
Flags: HW
LayerCount: 2
Fore
SplineSet
67 279.75 m 0
 95.25 454.25 163.5 531 298.5 531 c 1
 339.25 531 l 2
 345.25 531 398.25 531 415.5 523.5 c 1
 410.75 558.25 398 586.25 377.5 607.5 c 1
 267 555.5 l 1
 246 612.5 l 1
 308.75 641.5 l 1
 275 651 231.75 651.75 186.5 650.5 c 1
 207.75 783 l 1
 331.25 783 414.25 762.5 471.5 722.5 c 1
 560.5 764.25 l 1
 582.5 707.25 l 1
 518.5 678 l 1
 590.5 583.5 581.25 407.25 555 240 c 0
 524 47 438.5 0 324 0 c 1
 214.5 0 l 1
 77.5 0 40.25 112.25 67 279.75 c 0
231 262.5 m 0
 216 168 224.25 150 269.5 150.5 c 1
 316.75 150.5 l 1
 360.25 150.25 374.75 162 391 262.5 c 0
 407.5 366 404 382 353 382 c 2
 307.75 382 l 1
 265.75 382 247 362.5 231 262.5 c 0
EndSplineSet
Substitution2: "'smcp' Lowercase to Small Capitals lookup 16-1" eth.smcp
EndChar

StartChar: oslash
Encoding: 248 248 105
Width: 556
VWidth: 0
Flags: HW
LayerCount: 2
Fore
SplineSet
18.75 0 m 1
 87.25 70.25 l 1
 64 112.25 61.25 191 74.5 275.25 c 0
 108.5 492.25 181.5 536 363 536 c 0
 429 536 477.75 526.5 512 504.75 c 1
 537.5 531 l 1
 618.5 531 l 1
 551.5 462.5 l 1
 577 418 580.25 333.5 565 240 c 0
 533.5 43 467.25 -5 280.25 -5 c 0
 211.5 -5 160.75 5.5 126 28.25 c 1
 98.5 0 l 1
 18.75 0 l 1
237.5 220.75 m 1
 399.5 390.75 l 1
 391 405.5 372.75 409.5 343.5 409.5 c 0
 271.25 409.5 259.75 389.5 238.5 258 c 0
 236 241.25 235.25 229.25 237.5 220.75 c 1
239.25 142.25 m 1
 248.25 124.5 267.5 121.5 298 121.5 c 0
 365.5 121.5 379.25 131 401 258 c 0
 405 283.5 406.25 301.5 403.5 313.75 c 1
 239.25 142.25 l 1
EndSplineSet
Substitution2: "'smcp' Lowercase to Small Capitals lookup 16-1" oslash.smcp
EndChar

StartChar: thorn
Encoding: 254 254 106
Width: 556
VWidth: 0
Flags: HW
LayerCount: 2
Fore
SplineSet
4.5 -270 m 1
 171.5 782 l 1
 335.5 782 l 1
 286.25 474 l 17
 326.5 503.5 381.5 532.5 442.75 532.5 c 3
 561.5 532.5 599.5 416.5 572.5 243.75 c 0
 548.5 92.75 508.25 -13.75 355.75 -13.75 c 3
 310.75 -13.75 253 -2.25 214.75 21.5 c 1
 168.5 -270 l 1
 4.5 -270 l 1
231.5 126.5 m 1
 257 112.5 292.25 109.75 324.25 109 c 1
 359.5 109 388.5 129.25 407.5 255.5 c 0
 424.25 368.5 407.75 397.75 371 396.5 c 1
 331.25 395.5 295.5 386 269.25 367.25 c 1
 231.5 126.5 l 1
EndSplineSet
Substitution2: "'smcp' Lowercase to Small Capitals lookup 16-1" thorn.smcp
EndChar

StartChar: Thorn
Encoding: 222 222 113
Width: 542
VWidth: 0
Flags: HW
LayerCount: 2
Fore
SplineSet
40.5 0 m 1
 78.5 243 117.5 486 155.5 729 c 1
 319.5 729 l 1
 297.5 588 l 1
 427 588 l 2
 501.5 588 595.5 544.5 569 365.25 c 0
 538.75 159.75 436.25 152.5 359 150.25 c 0
 314.5 148.75 277.25 148.5 231.75 169.5 c 1
 204.5 0 l 1
 40.5 0 l 1
251 291.75 m 2
 320.5 291.75 l 2
 374.5 291.75 391.75 298.75 403.75 373.25 c 1
 414.5 444.25 382 446.25 344.5 446.25 c 1
 275 446.25 l 1
 251 291.75 l 2
EndSplineSet
Substitution2: "'c2sc' Capitals to Small Capitals in Latin lookup 17 subtable" thorn.smcp
EndChar

StartChar: uni00B5
Encoding: 181 181 114
Width: 585
VWidth: 0
Flags: HW
LayerCount: 2
Fore
SplineSet
17.75 -270 m 1
 89.5 183.5 l 1
 144.75 531 l 1
 308.75 531 l 1
 252.75 180.5 l 2
 245 132.5 261 117.5 290.25 117.5 c 0
 338 117.5 368 130 400.75 159.5 c 1
 459.75 531 l 1
 623.75 531 l 1
 539.75 0 l 1
 405.25 0 l 1
 384.25 54.5 l 1
 345.75 33 315 11.25 274.5 2.25 c 0
 257.25 -1.5 241.25 -2.25 224.5 -0.5 c 1
 181.75 -270 l 1
 17.75 -270 l 1
EndSplineSet
EndChar

StartChar: germandbls
Encoding: 223 223 115
Width: 573
VWidth: 0
Flags: HW
LayerCount: 2
Fore
SplineSet
40.5 0 m 1
 130.5 566 l 2
 148.5 682 227 782.25 409.75 782.25 c 3
 694.25 782.25 671.75 551.25 554.75 429.75 c 0
 520 395.25 481.25 387.75 475 349 c 0
 465.5 292 606 289.5 587.25 169.5 c 2
 583.25 145 l 2
 563.5 20.25 473.5 -8 386.5 -8 c 3
 318.5 -8 283.5 1.75 250.25 11 c 9
 267.5 124.25 l 17
 300.75 121.25 331 118.5 358 118.5 c 3
 385.75 118.5 415.75 131 422.25 171 c 2
 424.75 184.75 l 1
 434.75 249.5 301.25 238.25 318.25 350.25 c 0
 328.5 417.25 356.25 443 415.75 484.5 c 0
 450 510.75 462.25 535.75 466 562.5 c 0
 475.25 624.5 446 635.5 396.5 635.5 c 3
 328 635.5 299.75 602.75 283.25 498.5 c 2
 204.5 0 l 1
 40.5 0 l 1
EndSplineSet
Substitution2: "'smcp' Lowercase to Small Capitals lookup 16-1" germandbls.smcp
EndChar

StartChar: asciitilde
Encoding: 126 126 116
Width: 411
VWidth: 0
Flags: HW
LayerCount: 2
Fore
SplineSet
126.5 591.5 m 17
 161 626.75 204.5 664 259.75 664 c 27
 303.75 664 319.75 629 359.75 629 c 1
 399.5 627.5 433 647.75 459.75 669 c 9
 474 603 l 17
 446 572 401 531 349.5 531 c 3
 306 531 280 566 241 566 c 3
 202 566 178 552.5 142.25 531 c 9
 126.5 591.5 l 17
EndSplineSet
EndChar

StartChar: asciicircum
Encoding: 94 94 117
Width: 381
VWidth: 0
Flags: HW
LayerCount: 2
Fore
SplineSet
117.5 531 m 1
 243.5 668.75 l 1
 359.5 668.75 l 1
 432 531 l 1
 331.5 531 l 1
 295.25 589.25 l 1
 237.5 531 l 1
 117.5 531 l 1
EndSplineSet
EndChar

StartChar: grave
Encoding: 96 96 118
Width: 245
VWidth: 0
Flags: HW
LayerCount: 2
Fore
SplineSet
119 671.5 m 25
 249.5 671.5 l 25
 316.5 531 l 25
 217.5 531 l 25
 119 671.5 l 25
EndSplineSet
Substitution2: "'smcp' Lowercase to Small Capitals lookup 16-1" grave.smcp
EndChar

StartChar: dieresis
Encoding: 168 168 119
Width: 444
VWidth: 0
Flags: HW
LayerCount: 2
Fore
SplineSet
125.5 582 m 0
 131 616 163.25 643.25 197.25 643.25 c 0
 231.25 643.25 254.5 616 249 582 c 0
 243.5 548 211.5 519.75 177.5 519.75 c 0
 143.5 519.75 120 548 125.5 582 c 0
380.5 582 m 0
 386 616 418.25 643.25 452.25 643.25 c 0
 486.25 643.25 509.5 616 504 582 c 0
 498.5 548 466.5 519.75 432.5 519.75 c 0
 398.5 519.75 375 548 380.5 582 c 0
EndSplineSet
Substitution2: "'smcp' Lowercase to Small Capitals lookup 16-1" dieresis.smcp
EndChar

StartChar: acute
Encoding: 180 180 120
Width: 243
VWidth: 0
Flags: HW
LayerCount: 2
Fore
SplineSet
97.25 531 m 25
 204.25 671.5 l 25
 336.75 671.5 l 25
 196.25 531 l 25
 97.25 531 l 25
EndSplineSet
Substitution2: "'smcp' Lowercase to Small Capitals lookup 16-1" acute.smcp
EndChar

StartChar: cedilla
Encoding: 184 184 121
Width: 241
VWidth: 0
Flags: HW
LayerCount: 2
Fore
SplineSet
5.5 -180.5 m 9
 16.75 -112 l 25
 59.75 -97 l 17
 89.75 -85 92.25 -75 98.25 -37 c 1
 202.75 -37 l 17
 186.75 -139 153 -180.5 64 -180.5 c 2
 5.5 -180.5 l 9
EndSplineSet
EndChar

StartChar: exclam
Encoding: 33 33 122
Width: 274
VWidth: 0
Flags: HW
LayerCount: 2
Fore
SplineSet
64 23 m 2
 80.5 125 l 2
 82.5 140 92.5 150 108.5 150 c 2
 208.5 150 l 2
 223.5 150 229.5 139 227.5 125 c 2
 211 23 l 2
 209 8 199 0 185 0 c 2
 85 0 l 2
 71 0 62 9 64 23 c 2
101 197 m 1
 170.5 731 l 1
 330.75 731 l 1
 229.25 197 l 1
 101 197 l 1
EndSplineSet
Substitution2: "'smcp' Lowercase to Small Capitals lookup 16-1" exclam.smcp
EndChar

StartChar: degree
Encoding: 176 176 123
Width: 267
VWidth: 0
Flags: HW
LayerCount: 2
Fore
SplineSet
131.5 632 m 0
 135.25 689 183.5 732 239.5 732 c 0
 295.5 732 338.25 689 334.5 632 c 0
 330.75 575 283.5 533.75 227.5 533.75 c 0
 171.5 533.75 127.75 575 131.5 632 c 0
192.75 632 m 25
 191.25 609.5 208.75 592.25 231.25 592.25 c 27
 253.75 592.25 271.75 609.5 273.25 632 c 25
 274.75 654.5 259 672.75 236.5 672.75 c 27
 214 672.75 194.25 654.5 192.75 632 c 25
EndSplineSet
Substitution2: "'smcp' Lowercase to Small Capitals lookup 16-1" degree.smcp
EndChar

StartChar: period
Encoding: 46 46 124
Width: 259
VWidth: 0
Flags: W
HStem: 0 150<77.4493 206.75>
VStem: 60.25 163.5
LayerCount: 2
Fore
SplineSet
60.25 23 m 2
 76.75 125 l 2
 78.75 140 88.75 150 104.75 150 c 2
 202.75 150 l 2
 220.75 150 226.75 141 223.75 125 c 2
 207.25 23 l 2
 204.25 5 193.25 0 179.25 0 c 2
 81.25 0 l 2
 67.25 0 58.25 9 60.25 23 c 2
EndSplineSet
EndChar

StartChar: periodcentered
Encoding: 183 183 125
Width: 259
VWidth: 0
Flags: HW
LayerCount: 2
Fore
SplineSet
109.25 334.5 m 2
 125.75 436.5 l 2
 127.75 451.5 137.75 461.5 153.75 461.5 c 2
 251.75 461.5 l 2
 269.75 461.5 275.75 452.5 272.75 436.5 c 2
 256.25 334.5 l 2
 253.25 316.5 242.25 311.5 228.25 311.5 c 2
 130.25 311.5 l 2
 116.25 311.5 107.25 320.5 109.25 334.5 c 2
EndSplineSet
Substitution2: "'smcp' Lowercase to Small Capitals lookup 16-1" periodcentered.smcp
EndChar

StartChar: comma
Encoding: 44 44 126
Width: 257
VWidth: 0
Flags: W
HStem: -88 54.5<57 88.3789>
VStem: 48.25 173.5
LayerCount: 2
Fore
SplineSet
48.25 -88 m 1
 57 -33.5 l 0
 87 -34.5 89.5 -20.25 91.5 -10 c 2
 93.25 0 l 1
 82.25 0 l 2
 68.25 0 58.25 8 61.25 25 c 2
 76.75 124 l 2
 79.75 142 90 151 106 151 c 2
 202 151 l 2
 220 151 223.75 139 221.75 124 c 2
 200.25 -11 l 2
 181.5 -127.75 48.25 -88 48.25 -88 c 1
EndSplineSet
EndChar

StartChar: bullet
Encoding: 256 8226 127
Width: 307
VWidth: 0
Flags: HW
LayerCount: 2
Fore
SplineSet
106.75 314.75 m 2
 127 447.25 l 2
 130 468.25 144 482.25 166 482.25 c 2
 292.5 482.25 l 2
 317.5 482.25 324.5 469.25 321.5 447.25 c 2
 301.25 314.75 l 2
 297.25 290.75 280.25 282.75 260.25 282.75 c 2
 133.75 282.75 l 2
 113.75 282.75 103.75 294.75 106.75 314.75 c 2
EndSplineSet
Substitution2: "'smcp' Lowercase to Small Capitals lookup 16-1" bullet.smcp
EndChar

StartChar: quoteleft
Encoding: 257 8216 128
Width: 254
VWidth: 0
Flags: HW
LayerCount: 2
Fore
SplineSet
132.75 499 m 2
 155.25 643.75 l 2
 175.25 768.75 313.25 737.5 313.25 737.5 c 1
 302.75 674.75 l 0
 272 675 267.75 653.5 265.75 643 c 2
 263.25 624.75 l 1
 274.5 624.75 l 2
 288.75 624.75 299 616.75 296 599.25 c 2
 280.25 499 l 2
 277.25 480.5 266 471.25 249.5 471.25 c 2
 152.25 471.25 l 2
 133.75 471.25 130.5 483.75 132.75 499 c 2
EndSplineSet
Substitution2: "'smcp' Lowercase to Small Capitals lookup 16-1" quoteleft.smcp
EndChar

StartChar: quoteright
Encoding: 258 8217 129
Width: 254
VWidth: 0
Flags: HW
LayerCount: 2
Fore
SplineSet
133.75 474.5 m 1
 143.5 537.5 l 0
 174.25 537.25 178.25 558.75 180.25 569.25 c 2
 183.5 587.25 l 1
 172.25 587.25 l 2
 158 587.25 147.75 595.5 150.75 613 c 2
 166.75 713.25 l 2
 169.75 731.75 180 741 196.5 741 c 2
 293.75 741 l 2
 312.25 741 316.5 728.5 314.25 713.25 c 2
 290.75 568.5 l 2
 270.75 443.5 133.75 474.5 133.75 474.5 c 1
EndSplineSet
Substitution2: "'smcp' Lowercase to Small Capitals lookup 16-1" quoteright.smcp
EndChar

StartChar: quotesinglbase
Encoding: 259 8218 130
Width: 254
VWidth: 0
Flags: HW
LayerCount: 2
Fore
SplineSet
40.75 -113 m 1
 50.5 -50.25 l 0
 81.25 -50.5 85.25 -28.75 87.25 -18.25 c 2
 90.5 -0.25 l 1
 79.25 -0.25 l 2
 65 -0.25 54.75 8 57.75 25.5 c 2
 73.75 125.75 l 2
 76.75 144.25 87 153.5 103.5 153.5 c 2
 200.75 153.5 l 2
 219.25 153.5 223.5 141 221.25 125.75 c 2
 197.75 -19 l 2
 177.75 -144 40.75 -113 40.75 -113 c 1
EndSplineSet
Substitution2: "'smcp' Lowercase to Small Capitals lookup 16-1" quotesinglbase.smcp
EndChar

StartChar: quotedblleft
Encoding: 260 8220 131
Width: 427
VWidth: 0
Flags: HW
LayerCount: 2
Fore
SplineSet
128 497.5 m 2
 150.5 642.25 l 2
 170.5 767.25 307.5 736 307.5 736 c 1
 298 673.25 l 0
 267.25 673.5 263 652 261 641.5 c 2
 258.5 623.25 l 1
 269.75 623.25 l 2
 284 623.25 294.25 615.25 291.25 597.75 c 2
 275.5 497.5 l 2
 272.5 479 261.25 469.75 244.75 469.75 c 2
 147.5 469.75 l 2
 129 469.75 125.75 482.25 128 497.5 c 2
311.25 497.5 m 2
 333.75 642.25 l 2
 353.75 767.25 490.75 736 490.75 736 c 1
 481.25 673.25 l 0
 450.5 673.5 446.25 652 444.25 641.5 c 2
 441.75 623.25 l 1
 453 623.25 l 2
 467.25 623.25 477.5 615.25 474.5 597.75 c 2
 458.75 497.5 l 2
 455.75 479 444.5 469.75 428 469.75 c 2
 330.75 469.75 l 2
 312.25 469.75 309 482.25 311.25 497.5 c 2
EndSplineSet
Substitution2: "'smcp' Lowercase to Small Capitals lookup 16-1" quotedblleft.smcp
EndChar

StartChar: quotedblright
Encoding: 261 8221 132
Width: 427
VWidth: 0
Flags: HW
LayerCount: 2
Fore
SplineSet
128.75 473 m 1
 138.5 536 l 0
 169.25 535.75 173.25 557.25 175.25 567.75 c 2
 178.5 585.75 l 1
 167.25 585.75 l 2
 153 585.75 142.75 594 145.75 611.5 c 2
 161.75 711.75 l 2
 164.75 730.25 175 739.5 191.5 739.5 c 2
 288.75 739.5 l 2
 307.25 739.5 311.5 727 309.25 711.75 c 2
 285.75 567 l 2
 265.75 442 128.75 473 128.75 473 c 1
312 473 m 1
 321.75 536 l 0
 352.5 535.75 356.5 557.25 358.5 567.75 c 2
 361.75 585.75 l 1
 350.5 585.75 l 2
 336.25 585.75 326 594 329 611.5 c 2
 345 711.75 l 2
 348 730.25 358.25 739.5 374.75 739.5 c 2
 472 739.5 l 2
 490.5 739.5 494.75 727 492.5 711.75 c 2
 469 567 l 2
 449 442 312 473 312 473 c 1
EndSplineSet
Substitution2: "'smcp' Lowercase to Small Capitals lookup 16-1" quotedblright.smcp
EndChar

StartChar: quotedblbase
Encoding: 262 8222 133
Width: 426
VWidth: 0
Flags: HW
LayerCount: 2
Fore
SplineSet
35.75 -112.75 m 1
 45.5 -50 l 0
 76.25 -50.25 80.25 -28.5 82.25 -18 c 2
 85.5 0 l 1
 74.25 0 l 2
 60 0 49.75 8.25 52.75 25.75 c 2
 68.75 126 l 2
 71.75 144.5 82 153.75 98.5 153.75 c 2
 195.75 153.75 l 2
 214.25 153.75 218.5 141.25 216.25 126 c 2
 192.75 -18.75 l 2
 172.75 -143.75 35.75 -112.75 35.75 -112.75 c 1
219 -112.75 m 1
 228.75 -50 l 0
 259.5 -50.25 263.5 -28.5 265.5 -18 c 2
 268.75 0 l 1
 257.5 0 l 2
 243.25 0 233 8.25 236 25.75 c 2
 252 126 l 2
 255 144.5 265.25 153.75 281.75 153.75 c 2
 379 153.75 l 2
 397.5 153.75 401.75 141.25 399.5 126 c 2
 376 -18.75 l 2
 356 -143.75 219 -112.75 219 -112.75 c 1
EndSplineSet
Substitution2: "'smcp' Lowercase to Small Capitals lookup 16-1" quotedblbase.smcp
EndChar

StartChar: colon
Encoding: 58 58 134
Width: 260
VWidth: 0
Flags: HW
LayerCount: 2
Fore
SplineSet
60.25 23 m 2
 76.75 125 l 2
 78.75 140 88.75 150 104.75 150 c 2
 202.75 150 l 2
 220.75 150 226.75 141 223.75 125 c 2
 207.25 23 l 2
 204.25 5 193.25 0 179.25 0 c 2
 81.25 0 l 2
 67.25 0 58.25 9 60.25 23 c 2
120.75 404.25 m 2
 137.25 506.25 l 2
 139.25 521.25 149.25 531.25 165.25 531.25 c 2
 263.25 531.25 l 2
 281.25 531.25 286.5 522.25 283.5 506.25 c 2
 267.75 404.25 l 2
 264.75 386.25 253.5 381.25 239.5 381.25 c 2
 141.5 381.25 l 2
 127.5 381.25 118.75 390.25 120.75 404.25 c 2
EndSplineSet
EndChar

StartChar: semicolon
Encoding: 59 59 135
Width: 260
VWidth: 0
Flags: HW
LayerCount: 2
Fore
SplineSet
48.25 -88 m 1
 57 -33.5 l 0
 87 -34.5 89.5 -20.25 91.5 -10 c 2
 93.25 0 l 1
 82.25 0 l 2
 68.25 0 58.5 9.25 61.25 25 c 2
 76.75 124 l 2
 79.5 141 90.25 151 106 151 c 2
 202 151 l 2
 219.25 151 223.75 139 221.75 124 c 2
 200.25 -11 l 2
 181.5 -127.75 48.25 -88 48.25 -88 c 1
122 404.5 m 2
 137.75 506.5 l 2
 139.75 521.5 149.75 531.5 165.75 531.5 c 2
 263.75 531.5 l 2
 281.75 531.5 287.75 522.5 284.75 506.5 c 2
 269 404.5 l 2
 266 386.5 254.25 381.5 240.25 381.5 c 2
 142.25 381.5 l 2
 128.25 381.5 120 390.5 122 404.5 c 2
EndSplineSet
EndChar

StartChar: quotedbl
Encoding: 34 34 136
Width: 468
VWidth: 0
Flags: HW
LayerCount: 2
Fore
SplineSet
153 531 m 1
 162.25 665 l 1
 173.25 732 l 1
 330 732 l 1
 319 665 l 1
 288 531 l 1
 153 531 l 1
348.75 531 m 1
 359.5 665 l 1
 370.5 732 l 1
 527.25 732 l 1
 516.25 665 l 1
 485.25 531 l 1
 348.75 531 l 1
EndSplineSet
Substitution2: "'smcp' Lowercase to Small Capitals lookup 16-1" quotedbl.smcp
EndChar

StartChar: exclamdown
Encoding: 161 161 137
Width: 278
VWidth: 0
Flags: HW
LayerCount: 2
Fore
SplineSet
14.25 -269.75 m 1
 116.75 264.25 l 1
 245.75 264.25 l 1
 178 -269.75 l 1
 14.25 -269.75 l 1
119.25 338.5 m 2
 134.75 438.25 l 2
 136.75 452.25 148.75 460.25 162.75 461.25 c 1
 260.5 461.25 l 1
 272.5 460.25 282.5 449.25 280.5 435.25 c 2
 265 338.5 l 1
 262.75 325.75 255.75 313 239.5 312 c 1
 138.5 312 l 1
 125.5 312.25 116.75 320.75 119.25 338.5 c 2
EndSplineSet
Substitution2: "'case' Case-Sensitive Forms lookup 1-1" exclamdown.alt
Substitution2: "'smcp' Lowercase to Small Capitals lookup 16-1" exclamdown.smcp
EndChar

StartChar: zero
Encoding: 48 48 138
Width: 624
VWidth: 0
Flags: W
HStem: 0 149<247.455 428.574> 583 149<313.244 493.674>
DStem2: 74.75 184.5 244 215.25 0.157638 0.987497<3.13605 421.213> 448.25 214.5 607.75 184.5 0.156452 0.987686<-57.7205 360.974>
LayerCount: 2
Fore
SplineSet
74.75 184.5 m 10
 131.5 540 l 2
 151.75 666.25 214.25 732 335.25 732 c 2
 499.25 732 l 2
 638.25 732 680.5 642.25 665.25 547.5 c 2
 607.75 184.5 l 18
 588.75 65.5 529.5 0 412.5 0 c 2
 248.5 0 l 2
 128.25 0 55.75 64.5 74.75 184.5 c 10
244 215.25 m 2
 233.75 150.5 271.75 149 300.25 149 c 10
 372.75 149 l 18
 413.5 149 439.25 160.5 448.25 214.5 c 2
 496.75 517.5 l 2
 504.25 566.25 486.5 583 447.75 583 c 2
 364 583 l 2
 305.25 583 295 538.75 291.75 517.5 c 2
 244 215.25 l 2
EndSplineSet
Substitution2: "'dnom' Denominators lookup 0 subtable" zero.denominator
Substitution2: "'sups' Superscript lookup 2 subtable" zerosuperior
Substitution2: "'onum' Oldstyle Figures in Latin lookup 5-1" zero.oldstyle
Substitution2: "'tnum' Tabular Numbers in Latin lookup 7-1" zero.tnum
Substitution2: "'numr' Numerators lookup 9 subtable" zero.numerator
Substitution2: "'zero' Slashed Zero lookup 20-1" uni0338
Substitution2: "'sinf' Scientific Inferiors lookup 3-1" zeroinferior
Substitution2: "'frac' Diagonal Fractions lookup 13-1" zero.numerator
Substitution2: "'smcp' Lowercase to Small Capitals lookup 16-1" zero.smcp
EndChar

StartChar: one
Encoding: 49 49 139
Width: 374
VWidth: 0
Flags: W
HStem: 0 21G<156.25 323.406> 0 21G<156.25 323.406> 544.5 105.5<128.5 188.979> 712 20G<255.75 435.75>
VStem: 112.25 323.5
DStem2: 156.25 0 320.25 0 0.155859 0.987779<25.5608 577.425>
LayerCount: 2
Fore
SplineSet
112.25 544.5 m 1xb8
 128.5 650 l 1
 153.5 650 237.75 690.75 273.75 732 c 1
 435.75 732 l 1
 320.25 0 l 1
 156.25 0 l 1
 247 570.25 l 1
 209.5 544.5 136.25 544.5 112.25 544.5 c 1xb8
EndSplineSet
Substitution2: "'dnom' Denominators lookup 0 subtable" one.denominator
Substitution2: "'sups' Superscript lookup 2 subtable" onesuperior
Substitution2: "'onum' Oldstyle Figures in Latin lookup 5-1" one.oldstyle
Substitution2: "'tnum' Tabular Numbers in Latin lookup 7-1" one.tnum
Substitution2: "'numr' Numerators lookup 9 subtable" one.numerator
Substitution2: "'sinf' Scientific Inferiors lookup 3-1" oneinferior
Substitution2: "'frac' Diagonal Fractions lookup 13-1" one.numerator
Substitution2: "'smcp' Lowercase to Small Capitals lookup 16-1" one.smcp
EndChar

StartChar: two
Encoding: 50 50 140
Width: 583
VWidth: 0
Flags: W
HStem: 0 149<333.25 551.75> 592 150<173.645 455.614> 592 122.5<140.5 291.834>
LayerCount: 2
Fore
SplineSet
34.25 0 m 25xc0
 57.25 143 l 17
 158.75 204.75 453.75 410 469.25 507.75 c 1
 479.75 573.5 448 592 364 592 c 2xc0
 121 592 l 2
 140.5 714.5 l 1xa0
 230.25 731.25 306 742 441.75 742 c 3
 592.5 742 651.5 623.75 632.5 492.25 c 0
 611.75 342 408.5 205.25 333.25 149 c 9
 575.75 149 l 25
 551.75 0 l 25
 34.25 0 l 25xc0
EndSplineSet
Substitution2: "'dnom' Denominators lookup 0 subtable" two.denominator
Substitution2: "'sups' Superscript lookup 2 subtable" twosuperior
Substitution2: "'onum' Oldstyle Figures in Latin lookup 5-1" two.oldstyle
Substitution2: "'tnum' Tabular Numbers in Latin lookup 7-1" two.tnum
Substitution2: "'numr' Numerators lookup 9 subtable" two.numerator
Substitution2: "'sinf' Scientific Inferiors lookup 3-1" twoinferior
Substitution2: "'frac' Diagonal Fractions lookup 13-1" two.numerator
Substitution2: "'smcp' Lowercase to Small Capitals lookup 16-1" two.smcp
EndChar

StartChar: three
Encoding: 51 51 141
Width: 579
VWidth: 0
Flags: W
HStem: -7 150<49.25 381.424> 21 122<49.25 128.57> 297.75 133<156.25 284.132> 585 149<153.536 444.866>
DStem2: 397.5 202.25 557.5 161 0.158041 0.987432<-47.5327 70.4982 251.552 371.72>
LayerCount: 2
Fore
SplineSet
29.25 21 m 1x70
 49.25 143 l 1
 287.25 143 l 2
 357.75 143 389.5 150.25 397.5 202.25 c 2
 400.75 224.5 l 2
 410 284 377 285.75 316.25 289.25 c 2
 134.25 297.75 l 2
 156.25 430.75 l 1
 340.25 439.25 l 2
 409.25 442.25 439 451 446.75 500.75 c 2
 450.25 524 l 2
 460 581.25 415.25 585 363.25 585 c 2
 112.25 585 l 1
 131.25 706 l 1
 224.25 737 344.75 736 461.75 734 c 0
 568.25 732 636 652 618 539 c 2
 610 492.5 l 2
 597.75 417.5 562.75 373.5 507.75 364 c 1
 565 346 575.75 273.5 563.75 197.5 c 2
 557.5 161 l 2
 539 43 459.75 -7 337.75 -7 c 0xb0
 223.75 -7 112.25 -10 29.25 21 c 1x70
EndSplineSet
Substitution2: "'dnom' Denominators lookup 0 subtable" three.denominator
Substitution2: "'sups' Superscript lookup 2 subtable" threesuperior
Substitution2: "'onum' Oldstyle Figures in Latin lookup 5-1" three.oldstyle
Substitution2: "'tnum' Tabular Numbers in Latin lookup 7-1" three.tnum
Substitution2: "'numr' Numerators lookup 9 subtable" three.numerator
Substitution2: "'sinf' Scientific Inferiors lookup 3-1" threeinferior
Substitution2: "'frac' Diagonal Fractions lookup 13-1" three.numerator
Substitution2: "'smcp' Lowercase to Small Capitals lookup 16-1" three.smcp
EndChar

StartChar: four
Encoding: 52 52 142
Width: 627
VWidth: 0
Flags: W
HStem: 149.5 153<286.75 404.5> 512 20G<484.561 630> 712 20G<354.211 546>
DStem2: 381.5 2 546.25 2 0.156082 0.987744<25.7145 149.282 329.868 458.4>
LayerCount: 2
Fore
SplineSet
48.25 224 m 1
 366.75 732 l 1
 546 732 l 1
 286.75 302.5 l 1
 428.5 302.5 l 1
 453.25 454.75 l 1
 495.5 532 l 1
 630 532 l 1
 593.25 302.5 l 1
 660.75 302.5 l 1
 641.25 176 l 1
 569.25 149.5 l 1
 546.25 2 l 1
 381.5 2 l 1
 404.5 149.5 l 1
 70.25 149.5 l 1
 48.25 224 l 1
EndSplineSet
Substitution2: "'dnom' Denominators lookup 0 subtable" four.denominator
Substitution2: "'sups' Superscript lookup 2 subtable" foursuperior
Substitution2: "'onum' Oldstyle Figures in Latin lookup 5-1" four.oldstyle
Substitution2: "'tnum' Tabular Numbers in Latin lookup 7-1" four.tnum
Substitution2: "'numr' Numerators lookup 9 subtable" four.numerator
Substitution2: "'sinf' Scientific Inferiors lookup 3-1" fourinferior
Substitution2: "'frac' Diagonal Fractions lookup 13-1" four.numerator
Substitution2: "'smcp' Lowercase to Small Capitals lookup 16-1" four.smcp
EndChar

StartChar: five
Encoding: 53 53 143
Width: 594
VWidth: 0
Flags: W
HStem: -4.25 154<75.25 407.176> 19.75 130<75.25 231.206> 327 141.75<299.29 430.334> 583 149<325.75 619.25>
LayerCount: 2
Fore
SplineSet
54.25 19.75 m 1x70
 75.25 149.75 l 1
 349.25 149.75 l 2
 413 149.75 421.5 188.25 425.25 212.75 c 2
 433.25 262.5 l 2
 438.25 294.5 435 327 385 327 c 1
 314.25 327 l 2
 280.5 327 258.25 311.25 252.25 274.5 c 1
 95.5 274.5 l 1
 190.25 732 l 17
 643.25 732 l 1
 619.25 583 l 1
 325.75 583 l 25
 298 446 l 1
 324.25 462.75 353 467.25 372 468.75 c 0
 404.5 471.5 445.75 469.25 462.75 468.5 c 0
 571.75 461 613.75 375.75 599.5 271.25 c 2
 584 158.25 l 2
 562 21.25 458.25 -4 361.75 -4.25 c 1xb0
 237.25 -4.5 184.25 -3.25 54.25 19.75 c 1x70
EndSplineSet
Substitution2: "'dnom' Denominators lookup 0 subtable" five.denominator
Substitution2: "'sups' Superscript lookup 2 subtable" fivesuperior
Substitution2: "'onum' Oldstyle Figures in Latin lookup 5-1" five.oldstyle
Substitution2: "'tnum' Tabular Numbers in Latin lookup 7-1" five.tnum
Substitution2: "'numr' Numerators lookup 9 subtable" five.numerator
Substitution2: "'sinf' Scientific Inferiors lookup 3-1" fiveinferior
Substitution2: "'frac' Diagonal Fractions lookup 13-1" five.numerator
Substitution2: "'smcp' Lowercase to Small Capitals lookup 16-1" five.smcp
EndChar

StartChar: six
Encoding: 54 54 144
Width: 604
VWidth: 0
Flags: W
HStem: -0.75 148.25<264.849 421.908> 309 141.5<279.425 446.999> 589 124.75<493.5 634.5>
LayerCount: 2
Fore
SplineSet
104.5 399 m 0
 146.5 664 244.25 723.75 333.25 734.25 c 0
 435.75 746.25 565.25 732 654 713.75 c 1
 634.5 589 l 1
 398 589 l 2
 308.25 589 289.75 505.25 277 429.5 c 1
 328.75 446.25 379 450.25 460.5 450.5 c 1
 603.75 451 623 352.25 608 256.5 c 2
 591.75 148 l 2
 571.5 22.5 492.5 -0.75 382 -0.75 c 2
 241.75 -0.75 l 2
 126.5 -0.75 54.5 84 104.5 399 c 0
257.5 309 m 1
 240.25 201 246.5 147.5 320.25 147.5 c 2
 374 147.5 l 2
 407 147.5 430 157.25 437.25 202.75 c 2
 445 249 l 2
 452.75 296.5 447 309 403.5 309 c 2
 257.5 309 l 1
EndSplineSet
Substitution2: "'dnom' Denominators lookup 0 subtable" six.denominator
Substitution2: "'sups' Superscript lookup 2 subtable" sixsuperior
Substitution2: "'onum' Oldstyle Figures in Latin lookup 5-1" six.oldstyle
Substitution2: "'tnum' Tabular Numbers in Latin lookup 7-1" six.tnum
Substitution2: "'numr' Numerators lookup 9 subtable" six.numerator
Substitution2: "'sinf' Scientific Inferiors lookup 3-1" sixinferior
Substitution2: "'frac' Diagonal Fractions lookup 13-1" six.numerator
Substitution2: "'smcp' Lowercase to Small Capitals lookup 16-1" six.smcp
EndChar

StartChar: seven
Encoding: 55 55 145
Width: 557
VWidth: 0
Flags: W
HStem: 0 21G<123.25 310.098> 0 21G<123.25 310.098> 583 149<136.25 428.25>
DStem2: 123.25 0 299.75 0 0.459523 0.888166<81.1059 657.955>
LayerCount: 2
Fore
SplineSet
112.25 583 m 1xa0
 136.25 732 l 1
 611.75 732 l 1
 642 661.5 l 1
 299.75 0 l 1
 123.25 0 l 1
 428.25 583 l 1
 112.25 583 l 1xa0
EndSplineSet
Substitution2: "'dnom' Denominators lookup 0 subtable" seven.denominator
Substitution2: "'sups' Superscript lookup 2 subtable" sevensuperior
Substitution2: "'onum' Oldstyle Figures in Latin lookup 5-1" seven.oldstyle
Substitution2: "'tnum' Tabular Numbers in Latin lookup 7-1" seven.tnum
Substitution2: "'numr' Numerators lookup 9 subtable" seven.numerator
Substitution2: "'sinf' Scientific Inferiors lookup 3-1" seveninferior
Substitution2: "'frac' Diagonal Fractions lookup 13-1" seven.numerator
Substitution2: "'smcp' Lowercase to Small Capitals lookup 16-1" seven.smcp
EndChar

StartChar: percent
Encoding: 37 37 146
Width: 965
VWidth: 0
Flags: HW
LayerCount: 2
Fore
SplineSet
103.75 492.75 m 2
 122.5 610.75 l 2
 135.5 695.25 176.25 732 279.75 732 c 2
 380.75 732 l 2
 475.75 732 507.75 677 494.5 590.5 c 2
 475.75 472.5 l 18
 462.25 385.5 420.5 349 318.75 349 c 2
 217.75 349 l 2
 125.5 349 90.75 408 103.75 492.75 c 2
217.5 504 m 2
 213.25 475.25 216.75 459 253.25 459 c 2
 316.75 459 l 2
 356 459 365.25 475.5 369.5 504 c 10
 380.75 577 l 2
 386.5 614 377.25 622 344.5 622 c 2
 281 622 l 2
 250 622 234.25 613.75 228.75 577 c 2
 217.5 504 l 2
199.5 0 m 1
 765.5 732 l 1
 876.25 732 l 1
 315.5 0 l 1
 199.5 0 l 1
588.25 142.25 m 2
 606.25 260.25 l 2
 619.25 344.75 659.25 385.25 762.75 385.25 c 2
 864.5 385.25 l 2
 959.5 385.25 990.75 328 978.25 241.5 c 2
 961 123.5 l 18
 947.5 36.5 904 2.25 802.25 2.25 c 2
 700.5 2.25 l 2
 608.25 2.25 575.25 57.5 588.25 142.25 c 2
701.25 157.25 m 2
 697 128.5 701 112.25 737.5 112.25 c 2
 800.25 112.25 l 2
 839.5 112.25 849 128.75 853.25 157.25 c 10
 864.5 230.25 l 2
 870.25 267.25 860.75 275.25 828 275.25 c 2
 765.25 275.25 l 2
 734.25 275.25 718 267 712.5 230.25 c 2
 701.25 157.25 l 2
EndSplineSet
Substitution2: "'smcp' Lowercase to Small Capitals lookup 16-1" percent.smcp
EndChar

StartChar: nine
Encoding: 57 57 147
Width: 603
VWidth: 0
Flags: W
HStem: 19.75 124.75<86.75 219.004> 283 141.5<274.78 442.575> 586 148.25<297.876 455.872>
LayerCount: 2
Fore
SplineSet
67.25 19.75 m 1
 86.75 144.5 l 1
 323.25 144.5 l 2
 413 144.5 432.25 228.25 445 304 c 1
 393.25 287.25 342.25 283.25 260.75 283 c 1
 117.5 282.5 99.75 388.75 114.75 484.5 c 2
 129.5 578 l 2
 149 703.5 227.25 734.25 337.75 734.25 c 2
 478 734.25 l 2
 597.75 734.25 666 634.5 616 319.5 c 0
 574 54.5 477.75 9.75 388.75 -0.75 c 0
 286.25 -12.75 159.75 0 67.25 19.75 c 1
277 484.5 m 2
 269.25 437 274.25 424.5 317.75 424.5 c 2
 463.75 424.5 l 1
 481 532.5 474 586 400.25 586 c 2
 347.25 586 l 2
 314.25 586 291.25 576.25 284 530.75 c 2
 277 484.5 l 2
EndSplineSet
Substitution2: "'dnom' Denominators lookup 0 subtable" nine.denominator
Substitution2: "'sups' Superscript lookup 2 subtable" ninesuperior
Substitution2: "'onum' Oldstyle Figures in Latin lookup 5-1" nine.oldstyle
Substitution2: "'tnum' Tabular Numbers in Latin lookup 7-1" nine.tnum
Substitution2: "'numr' Numerators lookup 9 subtable" nine.numerator
Substitution2: "'sinf' Scientific Inferiors lookup 3-1" nineinferior
Substitution2: "'frac' Diagonal Fractions lookup 13-1" nine.numerator
Substitution2: "'smcp' Lowercase to Small Capitals lookup 16-1" nine.smcp
EndChar

StartChar: eight
Encoding: 56 56 148
Width: 620
VWidth: 0
Flags: W
HStem: 0 141.5<245.541 422.767> 307 133<294.37 444.481> 595.5 141.5<313.768 490.816>
DStem2: 77.25 187.75 244.75 195.25 0.156513 0.987676<-8.6062 139.134 293.769 432.879> 438.25 195.25 599.5 162.25 0.156718 0.987643<-48.6411 101.534 261.721 395.023>
LayerCount: 2
Fore
SplineSet
77.25 187.75 m 2
 87 252 l 2
 96 308 130 344.75 184.75 352.75 c 1
 117.25 386 119.5 456.25 129 514 c 2
 139.25 579 l 2
 161 717.75 251.75 737 357.25 737 c 2
 510.75 737 l 2
 624 737 680 671.75 660.75 548.25 c 2
 652.75 499 l 2
 649.25 473.25 625.75 408 557.75 397.5 c 1
 621.5 383.25 619.5 286.75 612.25 243.75 c 2
 599.5 162.25 l 2
 574.25 4.5 484.75 0 392.75 0 c 2
 240.25 0 l 2
 55.75 0 68.25 130.5 77.25 187.75 c 2
244.75 195.25 m 2
 238 154.5 252 141.5 296.5 141.5 c 2
 371.75 141.5 l 2
 414.5 141.5 433 159.25 438.25 195.25 c 2
 447 251.5 l 2
 452.25 285.25 441.25 307 401 307 c 2
 320.75 307 l 2
 277.75 307 259 287.25 253.5 251.5 c 2
 244.75 195.25 l 2
292 494 m 2
 284.75 448 307.5 440 341.5 440 c 2
 420.25 440 l 2
 471.5 440 480.25 462.5 485.5 494 c 2
 491.25 533.5 l 2
 500.5 589.5 478 595.5 444 595.5 c 2
 368.5 595.5 l 2
 325.25 595.5 305.75 585.5 297.75 533.5 c 2
 292 494 l 2
EndSplineSet
Substitution2: "'dnom' Denominators lookup 0 subtable" eight.denominator
Substitution2: "'sups' Superscript lookup 2 subtable" eightsuperior
Substitution2: "'onum' Oldstyle Figures in Latin lookup 5-1" eight.oldstyle
Substitution2: "'tnum' Tabular Numbers in Latin lookup 7-1" eight.tnum
Substitution2: "'numr' Numerators lookup 9 subtable" eight.numerator
Substitution2: "'sinf' Scientific Inferiors lookup 3-1" eightinferior
Substitution2: "'frac' Diagonal Fractions lookup 13-1" eight.numerator
Substitution2: "'smcp' Lowercase to Small Capitals lookup 16-1" eight.smcp
EndChar

StartChar: quotesingle
Encoding: 39 39 149
Width: 238
VWidth: 0
Flags: HW
LayerCount: 2
Fore
SplineSet
132 531 m 1
 142 665 l 1
 153 732 l 1
 318 732 l 1
 307 665 l 1
 276 531 l 1
 132 531 l 1
EndSplineSet
Substitution2: "'smcp' Lowercase to Small Capitals lookup 16-1" quotesingle.smcp
EndChar

StartChar: onesuperior
Encoding: 185 185 150
Width: 280
VWidth: 442
Flags: W
HStem: 696.5 85.5<120.5 179.299>
VStem: 107.5 246.5
DStem2: 152.25 355.25 277.25 355.25 0.156381 0.987697<19.5476 364.186>
LayerCount: 2
Fore
SplineSet
107.5 696.5 m 1
 120.5 782 l 1
 140.5 782 207 812.25 231 840 c 1
 354 840 l 1
 277.25 355.25 l 1
 152.25 355.25 l 1
 210.5 714.75 l 1
 185.25 695 126.75 696.5 107.5 696.5 c 1
EndSplineSet
EndChar

StartChar: twosuperior
Encoding: 178 178 151
Width: 403
VWidth: 442
Flags: HW
LayerCount: 2
Fore
SplineSet
64.5 355.25 m 25
 81.75 464.25 l 17
 145 501.75 333.5 622 343.25 683.25 c 1
 349.75 723.5 329.25 732.5 274.25 732.5 c 2
 120.25 732.5 l 2
 119.75 732.5 135.25 826.25 135.5 826 c 1
 196.5 837.75 244.75 846.25 337.75 846.25 c 3
 442.25 846.25 483.25 763.5 470.75 686.25 c 1
 454.75 582.75 345.75 503.5 299.5 469 c 9
 435.25 469 l 25
 417 355.25 l 25
 64.5 355.25 l 25
EndSplineSet
EndChar

StartChar: threesuperior
Encoding: 179 179 152
Width: 408
VWidth: 441
Flags: HW
LayerCount: 2
Fore
SplineSet
66.25 370.75 m 1
 81.75 464 l 1
 89.75 464 235.5 464.25 235.5 464.25 c 2
 284 464.25 303.5 469.25 307.5 497.5 c 2
 309.25 507 l 2
 313.5 536.25 292.5 541.25 251.5 543 c 2
 135.25 547.25 l 2
 150.75 648.5 l 1
 269.75 653 l 2
 315.5 655 335.25 659.75 339 686.25 c 2
 339.75 694.75 l 2
 345.25 723.25 321 727.75 281.5 727.75 c 2
 118.75 727.75 l 1
 133.25 820.25 l 1
 197 842.5 276.75 843 357.25 841.25 c 0
 434.25 840.25 479 784.25 467 710 c 2
 462.5 681.75 l 2
 454.5 633.25 429.75 602.25 389 595.25 c 1
 431 582 439.5 533.75 432 486.25 c 2
 428 464.25 l 2
 415.5 385.75 363.75 350.25 274.75 350.5 c 0
 196.25 350.5 122.5 348.5 66.25 370.75 c 1
EndSplineSet
EndChar

StartChar: ordmasculine
Encoding: 186 186 153
Width: 385
VWidth: 0
Flags: HW
LayerCount: 2
Fore
SplineSet
74.75 261.25 m 1
 86 334.25 l 1
 414 334.25 l 1
 402.75 261.25 l 1
 74.75 261.25 l 1
112.25 561.25 m 0
 135 703.5 188.25 734 310 734.25 c 1
 430.25 734.5 474.25 677.25 452 535.75 c 0
 431.25 406 384.25 372.75 254.75 372.75 c 1
 133 372.75 92.25 435.25 112.25 561.25 c 0
229 549.25 m 0
 217 475.5 228.5 469.5 269.5 469.25 c 1
 314 469 323 472.5 335.25 549.25 c 0
 347.5 628.75 346 637.5 296.25 637.75 c 1
 246.25 638 241.25 628.5 229 549.25 c 0
EndSplineSet
Ligature2: "'ordn' Ordinals lookup 21-1" o
Substitution2: "'smcp' Lowercase to Small Capitals lookup 16-1" ordmasculine.smcp
EndChar

StartChar: ordfeminine
Encoding: 170 170 154
Width: 362
VWidth: 0
Flags: HW
LayerCount: 2
Fore
SplineSet
60.75 260.5 m 1
 72 333.5 l 1
 399.25 333.5 l 1
 388 260.5 l 1
 60.75 260.5 l 1
92.5 577.25 m 0
 122 725 205.5 732 270 733.5 c 0
 321.75 734.75 409.25 724.25 443 691.5 c 9
 396.5 372.75 l 17
 311.5 372.75 l 1
 294 418.25 l 17
 276.25 385 223.5 368 184.75 368 c 3
 122.25 368 63 439 92.5 577.25 c 0
202.75 561.75 m 0
 194 506.25 196 470.75 232 470.75 c 3
 264.5 470.75 291.25 484.5 304 507 c 1
 323.25 638.75 l 1
 307.5 645.75 276 647.5 259.75 643.5 c 0
 237.25 638.25 212.5 627.25 202.75 561.75 c 0
EndSplineSet
Ligature2: "'ordn' Ordinals lookup 21-1" a
Substitution2: "'smcp' Lowercase to Small Capitals lookup 16-1" ordfeminine.smcp
EndChar

StartChar: slash
Encoding: 47 47 155
Width: 477
VWidth: 0
Flags: HW
LayerCount: 2
Fore
SplineSet
2 -72 m 1
 416 770 l 1
 585 770 l 1
 171 -72 l 1
 2 -72 l 1
EndSplineSet
Substitution2: "'numr' Numerators lookup 9 subtable" fraction
Substitution2: "'frac' Diagonal Fractions lookup 12-1" fraction
EndChar

StartChar: backslash
Encoding: 92 92 156
Width: 470
VWidth: 0
Flags: HW
LayerCount: 2
Fore
SplineSet
134.25 770 m 1
 299 770 l 1
 447 -72 l 1
 282.25 -72 l 1
 134.25 770 l 1
EndSplineSet
EndChar

StartChar: bar
Encoding: 124 124 157
Width: 248
VWidth: 0
Flags: HW
LayerCount: 2
Fore
SplineSet
45.5 -72 m 1
 178.5 770 l 1
 312.5 770 l 1
 179.5 -72 l 1
 45.5 -72 l 1
EndSplineSet
EndChar

StartChar: underscore
Encoding: 95 95 158
Width: 673
VWidth: 0
Flags: HW
LayerCount: 2
Fore
SplineSet
26.5 -1 m 1
 47.5 133 l 1
 681.5 133 l 1
 660.5 -1 l 1
 26.5 -1 l 1
EndSplineSet
EndChar

StartChar: hyphen
Encoding: 45 45 159
Width: 353
VWidth: 0
Flags: HW
LayerCount: 2
Fore
SplineSet
60.75 223 m 1
 81.75 357 l 1
 395.75 357 l 1
 374.75 223 l 1
 60.75 223 l 1
EndSplineSet
Substitution2: "'case' Case-Sensitive Forms lookup 1-1" hyphen.alt
Substitution2: "'c2sc' Capitals to Small Capitals in Latin lookup 17 subtable" hyphen.smcp
Substitution2: "'smcp' Lowercase to Small Capitals lookup 16-1" hyphen.smcp
EndChar

StartChar: numbersign
Encoding: 35 35 160
Width: 733
VWidth: 0
Flags: HW
LayerCount: 2
Fore
SplineSet
44.75 202 m 1
 79.5 314 l 1
 229.5 314 l 1
 264.25 419 l 1
 112.75 419 l 1
 148.75 531 l 1
 303.75 531 l 1
 373 732 l 1
 485 732 l 1
 415.75 531 l 1
 523.25 531 l 1
 591.5 732 l 1
 703.5 732 l 1
 635.25 531 l 1
 804.75 531 l 1
 770.25 419 l 1
 600 419 l 1
 565.25 313 l 1
 735.5 313 l 1
 702.25 201 l 1
 523 201 l 1
 454.25 0 l 1
 342.25 0 l 1
 411 201 l 1
 302.75 202 l 1
 234 0 l 1
 122 0 l 1
 190.75 202 l 1
 44.75 202 l 1
341.5 314 m 1
 453.25 313 l 1
 488 419 l 1
 376.25 419 l 1
 341.5 314 l 1
EndSplineSet
Substitution2: "'smcp' Lowercase to Small Capitals lookup 16-1" numbersign.smcp
EndChar

StartChar: dollar
Encoding: 36 36 161
Width: 568
VWidth: 0
Flags: HW
LayerCount: 2
Fore
SplineSet
63.5 23.75 m 1
 84 150.25 l 1
 123.25 147.25 220.75 140.5 313.75 140.5 c 0
 356.25 140.5 392 152.5 398.75 194.25 c 2
 403 223.25 l 2
 409 259.25 406 280.75 351.5 280.75 c 2
 274 280.75 l 2
 96.25 280.75 105.75 447.25 114.25 502.25 c 2
 122.75 564.5 l 1
 144.5 707.75 241.5 734.5 352.5 738 c 1
 365.75 824 l 1
 461.25 824 l 1
 448 737.25 l 1
 518.25 733.75 569.75 722.5 617 707.25 c 1
 596.75 579.5 l 1
 537 584.75 430 589.25 380.5 589.25 c 1
 322.5 590 293.25 583 284.5 530 c 2
 280.5 505.25 l 1
 274.25 465.25 281.25 444.75 342.25 444.75 c 2
 422.75 444.75 l 2
 571.25 444.75 583 304.5 570 224 c 2
 563.5 182.25 l 2
 536.25 12 429.25 -8 330 -8 c 1
 317 -90 l 1
 221.5 -90 l 1
 234.75 -6.75 l 1
 153.25 -4.25 125.25 3.5 63.5 23.75 c 1
EndSplineSet
Substitution2: "'smcp' Lowercase to Small Capitals lookup 16-1" dollar.smcp
EndChar

StartChar: zerosuperior
Encoding: 263 8304 162
Width: 434
VWidth: 442
Flags: HW
LayerCount: 2
Fore
SplineSet
60.5 478.5 m 2
 96.75 711 l 2
 110.5 796.5 156.5 839 241.5 839 c 2
 360 839 l 2
 457.5 839 490.75 782.5 479.75 715.5 c 2
 442.75 478.5 l 2
 429.25 395.25 387.75 355 305 355 c 2
 186.5 355 l 2
 106.25 355 47 394.75 60.5 478.5 c 2
189.5 508 m 2
 184 472.25 202.5 468.75 226 468.75 c 10
 274.25 468.75 l 18
 302.25 468.75 317.25 474.5 322.5 507.25 c 2
 354.75 686.75 l 2
 360 715.75 349.5 725.25 322.75 725.25 c 2
 267 725.25 l 2
 232 725.25 226 710.25 221.75 686.75 c 2
 189.5 508 l 2
EndSplineSet
EndChar

StartChar: foursuperior
Encoding: 264 8308 163
Width: 470
VWidth: 442
Flags: HW
LayerCount: 2
Fore
SplineSet
97.75 500 m 1
 309.25 839 l 1
 442.25 839 l 1
 274.5 562 l 1
 365.25 562 l 1
 380.5 657.5 l 1
 411.25 707.75 l 1
 509 707.75 l 1
 485.75 562 l 1
 530.25 562 l 1
 514.75 465 l 1
 465.25 446 l 1
 453 356.75 l 1
 332.25 356.75 l 1
 347 445.25 l 1
 119.5 445.25 l 1
 97.75 500 l 1
EndSplineSet
EndChar

StartChar: fivesuperior
Encoding: 265 8309 164
Width: 415
VWidth: 442
Flags: HW
LayerCount: 2
Fore
SplineSet
73.75 368.75 m 1
 89.25 467.75 l 1
 274 467.75 l 2
 310.5 467.75 319.75 476.5 322.5 502 c 2
 325.5 527.25 l 2
 327.75 545.5 327 563 294.25 563 c 1
 244.75 563 l 2
 222.75 563 211.5 554.25 207.75 533.5 c 1
 100.75 533.5 l 1
 164.25 839 l 17
 479.5 839 l 1
 461.25 725.25 l 1
 262.5 725.25 l 25
 247.5 654.75 l 1
 279.25 675.5 319.75 673 353.25 670.75 c 0
 443.75 664.75 458 591 450.75 535.75 c 2
 440.5 462 l 2
 430.75 368.5 357.5 351.5 289.75 351.75 c 1
 204.25 352 163.25 352.25 73.75 368.75 c 1
EndSplineSet
EndChar

StartChar: sixsuperior
Encoding: 266 8310 165
Width: 408
VWidth: 442
Flags: HW
LayerCount: 2
Fore
SplineSet
87 620.25 m 0
 116 802.25 175.75 835.25 238.75 842 c 0
 311.5 851 410 841.25 479 828.5 c 1
 463.5 732.75 l 1
 295.5 732.75 l 2
 232 732.75 225.5 686.5 218.5 644.25 c 1
 252.75 656.25 287.25 659.5 342 659.75 c 1
 440.75 660 462 593.25 451.25 527.25 c 2
 440.25 458 l 2
 427 373.25 372.25 355.25 291.25 355.25 c 2
 203.75 355.25 l 2
 122 355.25 54.25 413.5 87 620.25 c 0
204 559.5 m 1
 196.75 512.25 198 469 246 469 c 2
 284.5 469 l 2
 309.25 469 320 475.75 323 498.25 c 2
 327.75 528.5 l 2
 331.5 553.25 327.5 559.5 301.25 559.5 c 2
 204 559.5 l 1
EndSplineSet
EndChar

StartChar: sevensuperior
Encoding: 267 8311 166
Width: 440
VWidth: 442
Flags: HW
LayerCount: 2
Fore
SplineSet
106 725.75 m 1
 124.25 839.5 l 1
 486.5 839.5 l 1
 510 787.5 l 1
 258.5 355.25 l 1
 121.75 355.25 l 1
 337.75 725.75 l 1
 106 725.75 l 1
EndSplineSet
EndChar

StartChar: eightsuperior
Encoding: 268 8312 167
Width: 431
VWidth: 442
Flags: HW
LayerCount: 2
Fore
SplineSet
110.75 479.75 m 2
 117 520.5 l 2
 122.75 557.25 147.25 580 186.25 586.5 c 1
 137.5 610.5 139.25 656.25 145 694.5 c 2
 152 737.5 l 2
 167 831 233 843.25 306 843.25 c 2
 419.25 843.25 l 2
 497.25 843.25 540 800.25 527.25 718.75 c 2
 522 687 l 2
 519.25 670 503.75 627.75 454.25 620.75 c 1
 501.25 610.5 500 545.5 495.25 516.75 c 2
 487 464 l 2
 470.75 358.75 409.75 354.75 341 354.75 c 2
 228.25 354.75 l 2
 105.25 354.75 103.5 435 110.75 479.75 c 2
239 492 m 2
 235.5 470.5 242.5 462.75 271.5 462.75 c 2
 325.25 462.75 l 2
 354 462.75 361.75 472.25 364.5 492 c 2
 369.25 520.25 l 2
 372.25 539.25 366.5 551.25 339.75 551.25 c 2
 283.75 551.25 l 2
 255.25 551.25 247 540.75 244 520.25 c 2
 239 492 l 2
269.5 683.5 m 2
 265.5 658.25 277.75 653.25 300.5 653.25 c 2
 354.5 653.25 l 2
 388 653.25 392.25 666.5 394.75 683.5 c 2
 398.25 702.75 l 2
 403.25 732.75 388.25 735.5 366.75 735.5 c 2
 315 735.5 l 2
 289.5 735.5 277.75 731.5 273 702.75 c 2
 269.5 683.5 l 2
EndSplineSet
EndChar

StartChar: ninesuperior
Encoding: 269 8313 168
Width: 443
VWidth: 442
Flags: HW
LayerCount: 2
Fore
SplineSet
99.75 362.75 m 1
 115.25 459.25 l 1
 283.25 459.25 l 2
 346.75 459.25 354 507 361.75 552.25 c 1
 327.5 540.25 293 537 238.25 536.75 c 1
 138.75 536.5 119.75 609.25 130.5 676.75 c 2
 139.25 737 l 2
 151.75 823.25 205.75 848 286.75 846.5 c 2
 381 845 l 2
 465.75 845 525.5 777 492 565.75 c 0
 462.25 380 403.75 356.75 340 349.25 c 0
 267.25 340.25 165 349.5 99.75 362.75 c 1
254.25 678.5 m 2
 249.75 652.25 253 645.25 279.25 645.25 c 2
 376.5 645.25 l 1
 384.5 696.25 381.5 732.75 333.5 732.75 c 2
 295.75 732.75 l 2
 271 732.75 261.75 725.25 258 701.25 c 2
 254.25 678.5 l 2
EndSplineSet
EndChar

StartChar: zeroinferior
Encoding: 270 8320 169
Width: 457
VWidth: 0
Flags: HW
LayerCount: 2
Fore
SplineSet
90.75 -77.5 m 2
 127 155 l 2
 140.75 240.5 186.75 283 271.75 283 c 2
 390.25 283 l 2
 487.75 283 521 226.5 510 159.5 c 2
 473 -77.5 l 2
 459.5 -160.75 418 -201 335.25 -201 c 2
 216.75 -201 l 2
 136.5 -201 77.25 -161.25 90.75 -77.5 c 2
219.75 -48 m 2
 214.25 -83.75 232.75 -87.25 256.25 -87.25 c 10
 304.5 -87.25 l 18
 332.5 -87.25 347.5 -81.5 352.75 -48.75 c 2
 385 130.75 l 2
 390.25 159.75 379.75 169.25 353 169.25 c 2
 297.25 169.25 l 2
 262.25 169.25 256.25 154.25 252 130.75 c 2
 219.75 -48 l 2
EndSplineSet
EndChar

StartChar: oneinferior
Encoding: 271 8321 170
Width: 284
VWidth: 0
Flags: HW
LayerCount: 2
Fore
SplineSet
25.75 140.5 m 1
 38.75 226 l 1
 58.75 226 125.25 256.25 149.25 284 c 1
 272.25 284 l 1
 195.5 -200.75 l 1
 70.5 -200.75 l 1
 128.75 158.75 l 1
 103.5 139 45 140.5 25.75 140.5 c 1
EndSplineSet
EndChar

StartChar: twoinferior
Encoding: 272 8322 171
Width: 442
VWidth: 0
Flags: HW
LayerCount: 2
Fore
SplineSet
35.5 -200.75 m 25
 52.75 -91.75 l 17
 116 -54.25 304.5 66 314.25 127.25 c 1
 320.75 167.5 300.25 176.5 245.25 176.5 c 2
 91.25 176.5 l 2
 90.75 176.5 106.25 270.25 106.5 270 c 1
 167.5 281.75 215.75 290.25 308.75 290.25 c 3
 413.25 290.25 454.25 207.5 441.75 130.25 c 1
 425.75 26.75 316.75 -52.5 270.5 -87 c 9
 406.25 -87 l 25
 388 -200.75 l 25
 35.5 -200.75 l 25
EndSplineSet
EndChar

StartChar: threeinferior
Encoding: 273 8323 172
Width: 398
VWidth: 0
Flags: HW
LayerCount: 2
Fore
SplineSet
-6.75 -185.25 m 1
 8.5 -92 l 1
 16.5 -92 162.5 -91.75 162.5 -91.75 c 2
 211 -91.75 230.5 -86.75 234.5 -58.5 c 2
 236.25 -49 l 2
 240.5 -19.75 219.5 -14.75 178.5 -13 c 2
 62.25 -8.75 l 2
 77.75 92.5 l 1
 196.75 97 l 2
 242.5 99 262.25 103.75 266 130.25 c 2
 266.75 138.75 l 2
 272.25 167.25 248 171.75 208.5 171.75 c 2
 45.75 171.75 l 1
 60.25 264.25 l 1
 124 286.5 203.75 287 284.25 285.25 c 0
 361.25 284.25 406 228.25 394 154 c 2
 389.5 125.75 l 2
 381.5 77.25 356.75 46.25 316 39.25 c 1
 358 26 366.5 -22.25 359 -69.75 c 2
 355 -91.75 l 2
 342.5 -170.25 290.75 -205.75 201.75 -205.5 c 0
 123.25 -205.5 49.5 -207.5 -6.75 -185.25 c 1
EndSplineSet
EndChar

StartChar: fourinferior
Encoding: 274 8324 173
Width: 437
VWidth: 0
Flags: HW
LayerCount: 2
Fore
SplineSet
-5 -56 m 1
 206.5 283 l 1
 339.5 283 l 1
 171.75 6 l 1
 262.5 6 l 1
 277.75 101.5 l 1
 308.5 151.75 l 1
 406.25 151.75 l 1
 383 6 l 1
 427.5 6 l 1
 412 -91 l 1
 362.5 -110 l 1
 350.25 -199.25 l 1
 229.5 -199.25 l 1
 244.25 -110.75 l 1
 16.75 -110.75 l 1
 -5 -56 l 1
EndSplineSet
EndChar

StartChar: fiveinferior
Encoding: 275 8325 174
Width: 414
VWidth: 0
Flags: HW
LayerCount: 2
Fore
SplineSet
1.75 -187.25 m 1
 17.25 -88.25 l 1
 202 -88.25 l 2
 238.5 -88.25 247.75 -79.5 250.5 -54 c 2
 253.5 -28.75 l 2
 255.75 -10.5 255 7 222.25 7 c 1
 172.75 7 l 2
 150.75 7 139.5 -1.75 135.75 -22.5 c 1
 28.75 -22.5 l 1
 92.25 283 l 17
 407.5 283 l 1
 389.25 169.25 l 1
 190.5 169.25 l 25
 175.5 98.75 l 1
 207.25 119.5 247.75 117 281.25 114.75 c 0
 371.75 108.75 386 35 378.75 -20.25 c 2
 368.5 -94 l 2
 358.75 -187.5 285.5 -204.5 217.75 -204.25 c 1
 132.25 -204 91.25 -203.75 1.75 -187.25 c 1
EndSplineSet
EndChar

StartChar: sixinferior
Encoding: 276 8326 175
Width: 408
VWidth: 0
Flags: HW
LayerCount: 2
Fore
SplineSet
15 64.25 m 0
 44 246.25 103.75 279.25 166.75 286 c 0
 239.5 295 340.5 285.25 407 272.5 c 1
 391.5 176.75 l 1
 223.5 176.75 l 2
 160 176.75 153.5 130.5 146.5 88.25 c 1
 180.75 100.25 215.25 103.5 270 103.75 c 1
 368.75 104 390 37.25 379.25 -28.75 c 2
 368.25 -98 l 2
 355 -182.75 300.25 -200.75 219.25 -200.75 c 2
 131.75 -200.75 l 2
 50 -200.75 -17.75 -142.5 15 64.25 c 0
132 3.5 m 1
 124.75 -43.75 126 -87 174 -87 c 2
 212.5 -87 l 2
 237.25 -87 248 -80.25 251 -57.75 c 2
 255.75 -27.5 l 2
 259.5 -2.75 255.5 3.5 229.25 3.5 c 2
 132 3.5 l 1
EndSplineSet
EndChar

StartChar: seveninferior
Encoding: 277 8327 176
Width: 440
VWidth: 0
Flags: HW
LayerCount: 2
Fore
SplineSet
34 169.75 m 1
 52.25 283.5 l 1
 414.5 283.5 l 1
 438 231.5 l 1
 186.5 -200.75 l 1
 49.75 -200.75 l 1
 265.75 169.75 l 1
 34 169.75 l 1
EndSplineSet
EndChar

StartChar: eightinferior
Encoding: 278 8328 177
Width: 431
VWidth: 0
Flags: HW
LayerCount: 2
Fore
SplineSet
38.75 -76.25 m 2
 45 -35.5 l 2
 50.75 1.25 75.25 24 114.25 30.5 c 1
 65.5 54.5 67.25 100.25 73 138.5 c 2
 80 181.5 l 2
 95 275 161 287.25 234 287.25 c 2
 347.25 287.25 l 2
 425.25 287.25 468 244.25 455.25 162.75 c 2
 450 131 l 2
 447.25 114 431.75 71.75 382.25 64.75 c 1
 429.25 54.5 428 -10.5 423.25 -39.25 c 2
 415 -92 l 2
 398.75 -197.25 337.75 -201.25 269 -201.25 c 2
 156.25 -201.25 l 2
 33.25 -201.25 31.5 -121 38.75 -76.25 c 2
167 -64 m 2
 163.5 -85.5 170.5 -93.25 199.5 -93.25 c 2
 253.25 -93.25 l 2
 282 -93.25 289.75 -83.75 292.5 -64 c 2
 297.25 -35.75 l 2
 300.25 -16.75 294.5 -4.75 267.75 -4.75 c 2
 211.75 -4.75 l 2
 183.25 -4.75 175 -15.25 172 -35.75 c 2
 167 -64 l 2
197.5 127.5 m 2
 193.5 102.25 205.75 97.25 228.5 97.25 c 2
 282.5 97.25 l 2
 316 97.25 320.25 110.5 322.75 127.5 c 2
 326.25 146.75 l 2
 331.25 176.75 316.25 179.5 294.75 179.5 c 2
 243 179.5 l 2
 217.5 179.5 205.75 175.5 201 146.75 c 2
 197.5 127.5 l 2
EndSplineSet
EndChar

StartChar: nineinferior
Encoding: 279 8329 178
Width: 442
VWidth: 0
Flags: HW
LayerCount: 2
Fore
SplineSet
27.75 -193.25 m 1
 43.25 -96.75 l 1
 211.25 -96.75 l 2
 274.75 -96.75 282 -49 289.75 -3.75 c 1
 255.5 -15.75 221 -19 166.25 -19.25 c 1
 66.75 -19.5 47.75 53.25 58.5 120.75 c 2
 67.25 181 l 2
 79.75 267.25 133.75 292 214.75 290.5 c 2
 309 289 l 2
 393.75 289 453.5 221 420 9.75 c 0
 390.25 -176 331.75 -199.25 268 -206.75 c 0
 195.25 -215.75 91.25 -206.5 27.75 -193.25 c 1
182.25 122.5 m 2
 177.75 96.25 181 89.25 207.25 89.25 c 2
 304.5 89.25 l 1
 312.5 140.25 309.5 176.75 261.5 176.75 c 2
 223.75 176.75 l 2
 199 176.75 189.75 169.25 186 145.25 c 2
 182.25 122.5 l 2
EndSplineSet
EndChar

StartChar: zero.oldstyle
Encoding: 280 -1 179
Width: 610
VWidth: 0
Flags: W
HStem: 0 149<247.455 428.574> 483 149<297.994 478.695>
DStem2: 74.75 184.5 244 215.25 0.160325 0.987064<3.63562 320.06> 449 214.5 607.75 184.5 0.161356 0.986896<-57.0532 259.1>
LayerCount: 2
Fore
SplineSet
74.75 184.5 m 10
 116.25 440 l 2
 136.5 566.25 199 632 320 632 c 2
 484 632 l 2
 638 632 666 542.25 650.75 447.5 c 2
 607.75 184.5 l 18
 588.75 65.5 529.5 0 412.5 0 c 2
 248.5 0 l 2
 128.25 0 55 64.5 74.75 184.5 c 10
244 215.25 m 2
 233.75 150.5 271.75 149 300.25 149 c 10
 372.75 149 l 18
 413.5 149 440 160.5 449 214.5 c 2
 481.5 417.5 l 2
 489 466.25 472 483 433.25 483 c 2
 349.5 483 l 2
 293 483 279.75 438.75 276.5 417.5 c 2
 244 215.25 l 2
EndSplineSet
Substitution2: "'tnum' Tabular Numbers in Latin lookup 7-1" zero.tosf
Substitution2: "'lnum' Lining Figures lookup 19-1" zero
EndChar

StartChar: one.oldstyle
Encoding: 281 -1 180
Width: 367
VWidth: 0
Flags: W
HStem: 0 21G<141.5 306.903> 0 21G<141.5 306.903> 445.25 105.5<88 148.479>
VStem: 71.75 324
DStem2: 141.5 0 304 0 0.143668 0.989626<23.3461 476.274>
LayerCount: 2
Fore
SplineSet
71.75 445.25 m 1xb0
 88 550.75 l 1
 113 550.75 197.25 591.5 233.25 632.75 c 1
 395.75 632 l 1
 304 0 l 1
 141.5 0 l 1
 210.5 471.25 l 1
 172.25 444.75 95.75 445.25 71.75 445.25 c 1xb0
EndSplineSet
Substitution2: "'tnum' Tabular Numbers in Latin lookup 7-1" one.tosf
Substitution2: "'lnum' Lining Figures lookup 19-1" one
EndChar

StartChar: two.oldstyle
Encoding: 282 -1 181
Width: 588
VWidth: 0
Flags: W
HStem: 0 149<389.5 551.5> 483.75 149.75<169.387 451.688>
LayerCount: 2
Fore
SplineSet
34 0 m 25
 57 143 l 17
 171.75 194 446.25 312 461 405 c 1
 471.5 469 445 484.25 360.25 483.75 c 1
 347.75 483.75 116.75 483.5 116.75 483.5 c 2
 136.5 606 l 1
 225.75 623 299.25 633.5 437.25 633.5 c 3
 594.5 633.5 647.5 531.5 629 404.5 c 1
 608.75 257 465 182 389.5 149 c 9
 575.5 149 l 25
 551.5 0 l 25
 34 0 l 25
EndSplineSet
Substitution2: "'tnum' Tabular Numbers in Latin lookup 7-1" two.tosf
Substitution2: "'lnum' Lining Figures lookup 19-1" two
EndChar

StartChar: three.oldstyle
Encoding: 283 -1 182
Width: 584
VWidth: 0
Flags: W
HStem: -105.5 150<54.25 386.424> -77.5 122<54.25 133.57> 199.25 133<161.25 289.132> 486.5 149<158.536 449.866>
DStem2: 402.5 103.75 562.5 62.5 0.158041 0.987432<-47.5327 70.4982 251.552 371.72>
LayerCount: 2
Fore
SplineSet
34.25 -77.5 m 1x70
 54.25 44.5 l 1
 292.25 44.5 l 2
 362.75 44.5 394.5 51.75 402.5 103.75 c 2
 405.75 126 l 2
 415 185.5 382 187.25 321.25 190.75 c 2
 139.25 199.25 l 2
 161.25 332.25 l 1
 345.25 340.75 l 2
 414.25 343.75 444 352.5 451.75 402.25 c 2
 455.25 425.5 l 2
 465 482.75 420.25 486.5 368.25 486.5 c 2
 117.25 486.5 l 1
 136.25 607.5 l 1
 229.25 638.5 349.75 637.5 466.75 635.5 c 0
 573.25 633.5 641 553.5 623 440.5 c 2
 615 394 l 2
 602.75 319 567.75 275 512.75 265.5 c 1
 570 247.5 580.75 175 568.75 99 c 2
 562.5 62.5 l 2
 544 -55.5 464.75 -105.5 342.75 -105.5 c 0xb0
 228.75 -105.5 117.25 -108.5 34.25 -77.5 c 1x70
EndSplineSet
Substitution2: "'tnum' Tabular Numbers in Latin lookup 7-1" three.tosf
Substitution2: "'lnum' Lining Figures lookup 19-1" three
EndChar

StartChar: four.oldstyle
Encoding: 284 -1 183
Width: 614
VWidth: 0
Flags: W
HStem: 49.5 153<266 383.75>
DStem2: 360.75 -98 525.5 -98 0.156082 0.987744<25.7145 149.282 329.868 458.4>
LayerCount: 2
Fore
SplineSet
27.5 124 m 1
 346 632 l 1
 525.25 632 l 1
 266 202.5 l 1
 407.75 202.5 l 1
 432.5 354.75 l 1
 474.75 432 l 1
 609.25 432 l 1
 572.5 202.5 l 1
 640 202.5 l 1
 620.5 76 l 1
 548.5 49.5 l 1
 525.5 -98 l 1
 360.75 -98 l 1
 383.75 49.5 l 1
 49.5 49.5 l 1
 27.5 124 l 1
EndSplineSet
Substitution2: "'tnum' Tabular Numbers in Latin lookup 7-1" four.tosf
Substitution2: "'lnum' Lining Figures lookup 19-1" four
EndChar

StartChar: five.oldstyle
Encoding: 285 -1 184
Width: 601
VWidth: 0
Flags: W
HStem: -103.75 154<63.25 395.092> -79.75 130<63.25 206.607> 227 141.75<287.54 418.334> 483 149<314 607.25>
LayerCount: 2
Fore
SplineSet
42.25 -79.75 m 5x70
 63.25 50.25 l 5
 337.25 50.25 l 6
 401 50.25 409.5 88.75 413.25 113.25 c 6
 421.25 162.5 l 6
 426.25 194.5 423 227 373 227 c 5
 302.5 227 l 6
 268.75 227 246.5 211.25 240.5 174.5 c 5
 83.5 174.5 l 5
 178.25 632 l 21
 631.25 632 l 5
 607.25 483 l 5
 314 483 l 29
 286.25 346 l 5
 312.75 362.75 341.5 367.25 360.5 368.75 c 4
 392.75 371.25 434 369.25 450.75 368.5 c 4
 559.75 361 602 275.75 587.5 171.25 c 6
 572 58.75 l 6
 550 -78.25 446 -102.5 349.75 -103.75 c 5xb0
 225.5 -105.5 172.25 -102.75 42.25 -79.75 c 5x70
EndSplineSet
Substitution2: "'tnum' Tabular Numbers in Latin lookup 7-1" five.tosf
Substitution2: "'lnum' Lining Figures lookup 19-1" five
EndChar

StartChar: six.oldstyle
Encoding: 286 -1 185
Width: 603
VWidth: 0
Flags: W
HStem: -0.75 148.25<265.099 422.158> 309 141.5<279.675 447.249> 589 124.75<487.235 634.75>
LayerCount: 2
Fore
SplineSet
104.75 399 m 0
 146.75 664 244.5 723.75 333.5 734.25 c 0
 436 746.25 562 730.5 654.25 713.75 c 1
 634.75 589 l 1
 398.25 589 l 2
 308.5 589 290 505.25 277.25 429.5 c 1
 329 446.25 379.25 450.25 460.75 450.5 c 1
 604 451 623.25 352.25 608.25 256.5 c 2
 592 148 l 2
 571.75 22.5 492.75 -0.75 382.25 -0.75 c 2
 242 -0.75 l 2
 126.75 -0.75 54.75 84 104.75 399 c 0
257.75 309 m 1
 240.5 201 246.75 147.5 320.5 147.5 c 2
 374.25 147.5 l 2
 407.25 147.5 430.25 157.25 437.5 202.75 c 2
 445.25 249 l 2
 453 296.5 447.25 309 403.75 309 c 2
 257.75 309 l 1
EndSplineSet
Substitution2: "'tnum' Tabular Numbers in Latin lookup 7-1" six.tosf
Substitution2: "'lnum' Lining Figures lookup 19-1" six
EndChar

StartChar: seven.oldstyle
Encoding: 287 -1 186
Width: 568
VWidth: 0
Flags: W
HStem: 483 149<112 404>
DStem2: 99 -100 275.5 -100 0.459523 0.888166<81.1059 657.955>
LayerCount: 2
Fore
SplineSet
88 483 m 1
 112 632 l 1
 587.5 632 l 1
 617.75 561.5 l 1
 275.5 -100 l 1
 99 -100 l 1
 404 483 l 1
 88 483 l 1
EndSplineSet
Substitution2: "'tnum' Tabular Numbers in Latin lookup 7-1" seven.tosf
Substitution2: "'lnum' Lining Figures lookup 19-1" seven
EndChar

StartChar: eight.oldstyle
Encoding: 288 -1 187
Width: 618
VWidth: 0
Flags: W
HStem: 0 141.5<269.041 446.267> 307 133<317.87 467.981> 595.5 141.5<337.268 514.316>
DStem2: 100.75 187.75 268.25 195.25 0.156513 0.987676<-8.6062 139.134 293.769 432.879> 461.75 195.25 623 162.25 0.156718 0.987643<-48.6411 101.534 261.721 395.023>
LayerCount: 2
Fore
SplineSet
100.75 187.75 m 2
 110.5 252 l 2
 119.5 308 153.5 344.75 208.25 352.75 c 1
 140.75 386 143 456.25 152.5 514 c 2
 162.75 579 l 2
 184.5 717.75 275.25 737 380.75 737 c 2
 534.25 737 l 2
 647.5 737 703.5 671.75 684.25 548.25 c 2
 676.25 499 l 2
 672.75 473.25 649.25 408 581.25 397.5 c 1
 645 383.25 643 286.75 635.75 243.75 c 2
 623 162.25 l 2
 597.75 4.5 508.25 0 416.25 0 c 2
 263.75 0 l 2
 79.25 0 91.75 130.5 100.75 187.75 c 2
268.25 195.25 m 2
 261.5 154.5 275.5 141.5 320 141.5 c 2
 395.25 141.5 l 2
 438 141.5 456.5 159.25 461.75 195.25 c 2
 470.5 251.5 l 2
 475.75 285.25 464.75 307 424.5 307 c 2
 344.25 307 l 2
 301.25 307 282.5 287.25 277 251.5 c 2
 268.25 195.25 l 2
315.5 494 m 2
 308.25 448 331 440 365 440 c 2
 443.75 440 l 2
 495 440 503.75 462.5 509 494 c 2
 514.75 533.5 l 2
 524 589.5 501.5 595.5 467.5 595.5 c 2
 392 595.5 l 2
 348.75 595.5 329.25 585.5 321.25 533.5 c 2
 315.5 494 l 2
EndSplineSet
Substitution2: "'tnum' Tabular Numbers in Latin lookup 7-1" eight.tosf
Substitution2: "'lnum' Lining Figures lookup 19-1" eight
EndChar

StartChar: nine.oldstyle
Encoding: 289 -1 188
Width: 594
VWidth: 0
Flags: W
HStem: -81.75 124.75<87.25 235.175> 181.5 141.5<275.28 443.075> 484.5 148.25<298.376 456.372>
LayerCount: 2
Fore
SplineSet
67.75 -81.75 m 1
 87.25 43 l 1
 323.75 43 l 2
 413.5 43 432.75 126.75 445.5 202.5 c 1
 393.75 185.75 342.75 181.75 261.25 181.5 c 1
 118 181 100.25 287.25 115.25 383 c 2
 130 476.5 l 2
 149.5 602 227.75 632.75 338.25 632.75 c 2
 478.5 632.75 l 2
 598.25 632.75 666.5 533 616.5 218 c 0
 574.5 -47 478.25 -91.75 389.25 -102.25 c 0
 286.75 -114.25 160 -98.5 67.75 -81.75 c 1
277.5 383 m 2
 269.75 335.5 274.75 323 318.25 323 c 2
 464.25 323 l 1
 481.5 431 474.5 484.5 400.75 484.5 c 2
 347.75 484.5 l 2
 314.75 484.5 291.75 474.75 284.5 429.25 c 2
 277.5 383 l 2
EndSplineSet
Substitution2: "'tnum' Tabular Numbers in Latin lookup 7-1" nine.tosf
Substitution2: "'lnum' Lining Figures lookup 19-1" nine
EndChar

StartChar: ampersand
Encoding: 38 38 189
Width: 689
VWidth: 0
Flags: HW
LayerCount: 2
Fore
SplineSet
82 85 m 0
 23.5 185 47.5 285.5 154.25 365.25 c 2
 243.25 432.25 l 1
 207 496.25 l 1
 144.25 604.5 225.75 716.25 313.25 729.25 c 0
 433.25 748 528.75 728.25 604.75 710 c 1
 585.5 590 l 1
 435 590 l 2
 356.5 590 344.25 572.5 384.75 501 c 2
 499.75 300 l 1
 636.5 416.25 l 1
 684.5 345.25 l 1
 614.25 222.75 l 1
 568.5 179 l 1
 671.25 0 l 1
 490.25 0 l 1
 439.5 88.5 l 1
 364 29.75 l 2
 295.25 -24.25 147 -27 82 85 c 0
215 174.5 m 0
 236.5 141 273.75 127.75 315 161.5 c 2
 368.25 205.75 l 1
 305.25 311 l 1
 247.75 269.75 l 18
 197.5 230.5 198.5 199.75 215 174.5 c 0
EndSplineSet
AlternateSubs2: "'salt' Access All Alternates in Latin lookup 4-1" ampersand.salt
Substitution2: "'smcp' Lowercase to Small Capitals lookup 16-1" ampersand.smcp
EndChar

StartChar: asterisk
Encoding: 42 42 190
Width: 422
VWidth: 0
Flags: HW
LayerCount: 2
Fore
SplineSet
122.5 566 m 1
 132.25 628.5 l 1
 274.75 650 l 1
 265.5 561 l 1
 122.5 566 l 1
152.25 417 m 1
 198 554.25 l 1
 281.5 532 l 1
 208.25 398.25 l 1
 152.25 417 l 1
256.75 463.25 m 1
 317.5 538 l 1
 415.5 448.5 l 1
 371.5 398.5 l 1
 256.75 463.25 l 1
275.5 720.75 m 1
 338.25 741.25 l 1
 383.25 617.25 l 1
 295.25 584 l 1
 275.5 720.75 l 1
325.25 571 m 1
 457.25 650.75 l 1
 484.5 599.25 l 1
 370.25 502.25 l 1
 325.25 571 l 1
EndSplineSet
Substitution2: "'smcp' Lowercase to Small Capitals lookup 16-1" asterisk.smcp
EndChar

StartChar: Euro
Encoding: 290 8364 191
Width: 699
VWidth: 0
Flags: HW
LayerCount: 2
Fore
SplineSet
51.25 247.5 m 1
 63.5 324.5 l 1
 137.75 331.5 l 1
 146.25 387.5 l 1
 75 395.5 l 1
 86.5 468.5 l 1
 160.5 477.5 l 1
 171.5 549.5 207 740 451 740 c 3
 503 740 635 729.75 712.75 702.5 c 1
 694 583.5 l 2
 694 583.5 555.5 598.5 473.5 598.5 c 3
 345.5 598.5 337.25 552.75 324.5 477.5 c 1
 557.5 470.5 l 1
 545.25 394.5 l 1
 310.25 387.5 l 1
 301.75 331.5 l 1
 534.5 324.5 l 1
 522.25 247.5 l 1
 522.25 247.5 284.25 242.5 287.25 240.5 c 1
 270.5 136 332.5 128 399.5 128 c 27
 488.25 128 629.75 152.5 629.75 152.5 c 1
 611 36.5 l 1
 534.25 1.5 446 -6 333 -6 c 3
 256 -6 87.25 14.5 123.25 240.5 c 1
 51.25 247.5 l 1
EndSplineSet
Substitution2: "'smcp' Lowercase to Small Capitals lookup 16-1" Euro.smcp
EndChar

StartChar: parenleft
Encoding: 40 40 192
Width: 392
VWidth: 15
Flags: HW
LayerCount: 2
Fore
SplineSet
101.5 303.5 m 0
 158 654 366.25 815 366.25 815 c 1
 516.5 815 l 1
 516.5 815 314.5 574.25 265.5 281 c 0
 212.75 -35.5 346.5 -255 346.5 -255 c 1
 198 -255 l 1
 198 -255 41 -71.25 101.5 303.5 c 0
EndSplineSet
Substitution2: "'case' Case-Sensitive Forms lookup 1-1" parenleft.alt
Substitution2: "'c2sc' Capitals to Small Capitals in Latin lookup 17 subtable" parenleft.smcp
Substitution2: "'smcp' Lowercase to Small Capitals lookup 16-1" parenleft.smcp
EndChar

StartChar: parenright
Encoding: 41 41 193
Width: 394
VWidth: 15
Flags: HW
LayerCount: 2
Fore
SplineSet
-19.75 -255 m 1
 -19.75 -255 179.25 -32.25 231.25 280.5 c 0
 281 577.5 149.5 815 149.5 815 c 1
 298 815 l 1
 298 815 452 609.5 395.25 258 c 0
 335 -115.75 145.5 -255 145.5 -255 c 1
 -19.75 -255 l 1
EndSplineSet
Substitution2: "'case' Case-Sensitive Forms lookup 1-1" parenright.alt
Substitution2: "'c2sc' Capitals to Small Capitals in Latin lookup 17 subtable" parenright.smcp
Substitution2: "'smcp' Lowercase to Small Capitals lookup 16-1" parenright.smcp
EndChar

StartChar: plus
Encoding: 43 43 194
Width: 471
VWidth: 0
Flags: HW
LayerCount: 2
Fore
SplineSet
73 289 m 1
 94 423 l 1
 234 423 l 1
 256.5 564 l 1
 390.5 564 l 1
 368 423 l 1
 510 423 l 1
 489 289 l 1
 347 289 l 1
 324.5 148 l 1
 190.5 148 l 1
 213 289 l 1
 73 289 l 1
EndSplineSet
EndChar

StartChar: endash
Encoding: 291 8211 195
Width: 452
VWidth: 0
Flags: HW
LayerCount: 2
Fore
SplineSet
59.25 220 m 1
 81 355 l 1
 554 355 l 1
 532.25 220 l 1
 59.25 220 l 1
EndSplineSet
Substitution2: "'case' Case-Sensitive Forms lookup 1-1" endash.alt
Substitution2: "'c2sc' Capitals to Small Capitals in Latin lookup 17 subtable" endash.smcp
Substitution2: "'smcp' Lowercase to Small Capitals lookup 16-1" endash.smcp
EndChar

StartChar: emdash
Encoding: 292 8212 196
Width: 736
VWidth: 0
Flags: HW
LayerCount: 2
Fore
SplineSet
62 222 m 1
 83.75 357 l 1
 779.75 357 l 1
 758 222 l 1
 62 222 l 1
EndSplineSet
Substitution2: "'case' Case-Sensitive Forms lookup 1-1" emdash.alt
Substitution2: "'c2sc' Capitals to Small Capitals in Latin lookup 17 subtable" emdash.smcp
Substitution2: "'smcp' Lowercase to Small Capitals lookup 16-1" emdash.smcp
EndChar

StartChar: less
Encoding: 60 60 197
Width: 441
VWidth: 0
Flags: HW
LayerCount: 2
Fore
SplineSet
77.25 278 m 1
 100.75 425.5 l 1
 497.75 563.5 l 1
 474.5 416 l 1
 253 348.5 l 1
 452.25 278.75 l 1
 428.75 132.5 l 1
 77.25 278 l 1
EndSplineSet
EndChar

StartChar: equal
Encoding: 61 61 198
Width: 467
VWidth: 0
Flags: HW
LayerCount: 2
Fore
SplineSet
47 174.5 m 1
 68.25 308.5 l 1
 495.25 308.5 l 1
 474 174.5 l 1
 47 174.5 l 1
81.25 391 m 1
 102.5 525 l 1
 529.5 525 l 1
 508.25 391 l 1
 81.25 391 l 1
EndSplineSet
EndChar

StartChar: greater
Encoding: 62 62 199
Width: 441
VWidth: 0
Flags: HW
LayerCount: 2
Fore
SplineSet
54 132.5 m 1
 77.5 280.5 l 1
 301.25 360 l 1
 98.75 418.5 l 1
 122.25 563.5 l 1
 475 425.5 l 1
 452.5 278 l 1
 54 132.5 l 1
EndSplineSet
EndChar

StartChar: multiply
Encoding: 215 215 200
Width: 462
VWidth: 0
Flags: HW
LayerCount: 2
Fore
SplineSet
78 256.5 m 1
 192.25 355.5 l 1
 109.5 455 l 1
 212.75 546.5 l 1
 296.25 447 l 1
 419 551.25 l 1
 498.5 456 l 1
 374.5 349.5 l 1
 458.5 250.25 l 1
 356.5 165.5 l 1
 275 261 l 1
 159.75 157.5 l 1
 78 256.5 l 1
EndSplineSet
EndChar

StartChar: divide
Encoding: 247 247 201
Width: 490
VWidth: 0
Flags: HW
LayerCount: 2
Fore
SplineSet
78.25 286 m 1
 99.25 420 l 1
 523.5 420 l 1
 502.5 286 l 1
 78.25 286 l 1
199.25 148.25 m 2
 211.25 219.5 l 2
 213.25 234.5 223.25 244.5 239.25 244.5 c 2
 321.5 244.5 l 2
 338.75 244.5 344.75 235 342 219.5 c 2
 330 148.25 l 2
 327.25 131 316.5 125.25 302.5 125.25 c 2
 220.25 125.25 l 2
 206.25 125.25 197.25 134.25 199.25 148.25 c 2
252.5 480.25 m 2
 263.5 551.5 l 2
 265.5 566.5 275.5 576.5 291.5 576.5 c 2
 373.75 576.5 l 2
 391 576.5 397 567 394.25 551.5 c 2
 383.25 480.25 l 2
 380.5 463 368.75 457.25 354.75 457.25 c 2
 272.5 457.25 l 2
 258.5 457.25 250.5 466.25 252.5 480.25 c 2
EndSplineSet
EndChar

StartChar: question
Encoding: 63 63 202
Width: 543
VWidth: 0
Flags: HW
LayerCount: 2
Fore
SplineSet
106.25 590 m 2
 125.75 711.5 l 1
 219.25 732 298.25 744 412.25 739 c 1
 559.75 739 618.5 629.5 602.5 531.5 c 2
 591.75 453 l 2
 573 313 497 271.25 340.25 281 c 1
 340.25 280.25 327 196.5 327.25 195 c 1
 199.75 195 l 1
 232.25 402 l 1
 246.75 401.75 322.25 401.5 336.75 402 c 0
 385.75 404 420.75 422 429.5 478.5 c 2
 435 515 l 2
 443.5 569 415.5 590 347.25 590 c 2
 106.25 590 l 2
161.5 23 m 2
 178 125 l 2
 180 140 190 150 206 150 c 2
 304 150 l 2
 322 150 328 141 325 125 c 2
 308.5 23 l 2
 305.5 5 294.5 0 280.5 0 c 2
 182.5 0 l 2
 168.5 0 159.5 9 161.5 23 c 2
EndSplineSet
Substitution2: "'smcp' Lowercase to Small Capitals lookup 16-1" question.smcp
EndChar

StartChar: bracketleft
Encoding: 91 91 203
Width: 339
VWidth: 15
Flags: HW
LayerCount: 2
Fore
SplineSet
57 -23.75 m 2
 163 626.5 l 2
 183 747.25 236.75 797 379.5 797 c 2
 459.5 797 l 1
 438.5 663 l 1
 396 663 l 2
 358 663 332 646 321.75 584.5 c 2
 221 -38 l 2
 210.25 -104 227 -121 268 -121 c 2
 314.25 -121 l 1
 293.25 -255 l 1
 201.25 -255 l 2
 53.5 -255 41.25 -117.5 57 -23.75 c 2
EndSplineSet
EndChar

StartChar: bracketright
Encoding: 93 93 204
Width: 334
VWidth: 15
Flags: HW
LayerCount: 2
Fore
SplineSet
-19.75 -255 m 1
 1.25 -121 l 1
 43.75 -121 l 2
 81.75 -121 108.5 -104 118.75 -42.5 c 2
 217.25 580 l 2
 228 646 209 663 168 663 c 2
 125.5 663 l 1
 147.25 797 l 1
 230.25 797 l 2
 365.25 797 397.75 691.75 382 578.5 c 2
 285.75 -83.75 l 2
 272.5 -178.25 232.25 -255 75.25 -255 c 2
 -19.75 -255 l 1
EndSplineSet
EndChar

StartChar: braceleft
Encoding: 123 123 205
Width: 320
VWidth: 15
Flags: HW
LayerCount: 2
Fore
SplineSet
55.75 231.25 m 1
 75 350.75 l 1
 108.25 353.25 144 360 150.5 401.25 c 2
 187.5 633.5 l 2
 206.5 752.75 285 797 440.5 797 c 1
 419.5 663 l 1
 371 663.25 352 641 338 551 c 2
 313 390 l 2
 302 322.5 258.5 295.5 196.75 289.5 c 1
 255.75 278 289 244.25 280.5 191 c 2
 246.5 -20.25 l 2
 234.5 -96.75 242 -129.5 294.5 -128.5 c 1
 274.25 -255 l 1
 106.5 -255 58.75 -168.75 78 -50.25 c 2
 114.25 175.75 l 2
 119.75 211.75 95.75 234.25 55.75 231.25 c 1
EndSplineSet
EndChar

StartChar: braceright
Encoding: 125 125 206
Width: 320
VWidth: 15
Flags: HW
LayerCount: 2
Fore
SplineSet
-19.75 -255 m 1
 0.5 -128.5 l 1
 52 -128.75 69.25 -97.5 80.25 -27 c 2
 113.75 181.25 l 2
 122.5 236 165.75 267.5 228.25 279.5 c 1
 168.5 285 134 314.25 144.75 380.25 c 2
 170.5 544.25 l 2
 185.5 640.25 175 664 125.5 663 c 1
 147.25 797 l 1
 306 797 353 698 334.5 582.5 c 2
 310.25 392.5 l 2
 305.5 353.5 334.75 338.5 369.5 337 c 1
 350.25 217.5 l 1
 311.75 219.5 282 205.25 275.5 167 c 2
 233 -87 l 2
 211 -215.25 144.75 -255 -19.75 -255 c 1
EndSplineSet
EndChar

StartChar: at
Encoding: 64 64 207
Width: 907
VWidth: 0
Flags: HW
LayerCount: 2
Fore
SplineSet
46 46.5 m 2
 121 521 l 2
 147.25 684.25 243.5 729 394.25 729 c 2
 754.25 729 l 2
 909.5 729 944.25 617.5 923.5 476 c 2
 876.5 159.5 l 2
 862.75 65.25 819.25 3 675.25 3 c 2
 568.75 3 l 1
 545 55.5 l 1
 526 29.75 492.75 -5.25 419.75 -4 c 0
 298.25 -1.5 239 98.25 267.75 287.75 c 0
 301.75 509.5 408.75 545.5 505.25 545.5 c 0
 611.5 545.5 680.5 527.25 731.5 478.25 c 1
 681.5 129.5 l 1
 729.5 129.5 743.75 138.5 756 219.5 c 2
 796.25 491 l 2
 810 586.25 781.75 601.5 718.5 601.5 c 2
 366.5 601.5 l 2
 271.5 601.5 254.75 541.5 246.75 491 c 2
 174 31.5 l 2
 165 -25.5 175.25 -67.5 261.25 -67.5 c 2
 647.25 -67.5 l 1
 631 -167 l 1
 581 -177 465 -194 339 -194 c 2
 248.5 -194 l 2
 62.75 -194 27.5 -74 46 46.5 c 2
393.5 269 m 0
 383 195.25 378.5 120.5 450.5 122.5 c 0
 505.5 123.75 542.25 142.5 561.5 190 c 1
 596 412.25 l 1
 559.25 419.25 528 420 499.5 420 c 0
 443.75 420 410.5 387.25 393.5 269 c 0
EndSplineSet
Substitution2: "'case' Case-Sensitive Forms lookup 1-1" at.alt
Substitution2: "'smcp' Lowercase to Small Capitals lookup 16-1" at.smcp
EndChar

StartChar: breve
Encoding: 293 728 208
Width: 247
VWidth: 0
Flags: HW
LayerCount: 2
Fore
SplineSet
55.25 644 m 1
 117 644 l 1
 113.25 610.75 130 591.75 162.25 591.75 c 0
 201.5 591.5 219.25 610.25 222.75 644 c 1
 284.5 644 l 1
 277.25 572.75 232 531.5 161.5 531.5 c 0
 96.5 531.5 49.25 574.5 55.25 644 c 1
EndSplineSet
EndChar

StartChar: ogonek
Encoding: 294 731 209
Width: 207
VWidth: 0
Flags: HW
LayerCount: 2
Fore
SplineSet
215.25 0 m 1
 276.75 0 l 1
 189.75 -56.75 222 -111.5 270.5 -106 c 9
 257.5 -188.5 l 0
 150 -218 64.25 -74.5 215.25 0 c 1
EndSplineSet
EndChar

StartChar: caron
Encoding: 295 711 210
Width: 374
VWidth: 0
Flags: HW
LayerCount: 2
Fore
SplineSet
16.25 668.5 m 1
 115.75 668.5 l 1
 156.25 609.5 l 1
 219.25 668.5 l 1
 330.75 668.5 l 1
 204.75 531 l 1
 92.5 531 l 1
 16.25 668.5 l 1
EndSplineSet
Substitution2: "'smcp' Lowercase to Small Capitals lookup 16-1" caron.smcp
EndChar

StartChar: hungarumlaut
Encoding: 296 733 211
Width: 469
VWidth: 0
Flags: HW
LayerCount: 2
Fore
SplineSet
139 531 m 25
 246 671.5 l 25
 378.5 671.5 l 25
 238 531 l 25
 139 531 l 25
302.5 531 m 25
 409.5 671.5 l 25
 542 671.5 l 25
 401.5 531 l 25
 302.5 531 l 25
EndSplineSet
EndChar

StartChar: dotaccent
Encoding: 297 729 212
Width: 147
VWidth: 0
Flags: HW
LayerCount: 2
Fore
SplineSet
97.25 541 m 2
 110.75 625 l 2
 112.75 640 122.75 650 138.75 650 c 2
 218.75 650 l 2
 233.75 650 239.75 639 237.75 625 c 2
 224.25 541 l 2
 222.25 526 212.25 518 198.25 518 c 2
 118.25 518 l 2
 104.25 518 95.25 527 97.25 541 c 2
EndSplineSet
EndChar

StartChar: Lcaron
Encoding: 299 317 214
Width: 527
VWidth: 0
Flags: HW
LayerCount: 2
Fore
SplineSet
76.5 148.5 m 2
 169.25 732 l 1
 333 732 l 1
 248.75 201 l 2
 240.75 148 274 149 303 149 c 2
 534 149 l 1
 510.25 0 l 1
 211.25 0 l 2
 126.248 0 59.25 40.25 76.5 148.5 c 2
374.25 571 m 1
 384.25 705 l 1
 394.5 772 l 1
 498.5 772 l 1
 488.25 705 l 1
 457.25 571 l 1
 374.25 571 l 1
EndSplineSet
Substitution2: "'c2sc' Capitals to Small Capitals in Latin lookup 17 subtable" lcaron.smcp
EndChar

StartChar: lcaron
Encoding: 308 318 223
Width: 390
VWidth: 0
Flags: HW
LayerCount: 2
Fore
SplineSet
68.75 189 m 2
 162.75 783 l 1
 326.75 783 l 1
 237.25 219 l 2
 225 142.5 239.25 130.25 264 119 c 2
 264 119 311.75 98.75 317.25 98.75 c 1
 301.5 0 l 1
 196 0 l 2
 104 0 46.75 48.25 68.75 189 c 2
366.75 580.75 m 1
 376.75 714.75 l 1
 387.75 781.75 l 1
 491.75 781.75 l 1
 480.75 714.75 l 1
 449.75 580.75 l 1
 366.75 580.75 l 1
EndSplineSet
Substitution2: "'smcp' Lowercase to Small Capitals lookup 16-1" lcaron.smcp
EndChar

StartChar: tcaron
Encoding: 312 357 227
Width: 391
VWidth: 0
Flags: HW
LayerCount: 2
Fore
SplineSet
71.5 413 m 1
 85 499 l 1
 171.25 532 l 1
 220.5 680 l 1
 359 680 l 1
 335.25 532 l 1
 440.75 532 l 1
 422 413 l 1
 316.5 413 l 1
 285.75 220 l 2
 273.75 142 286.75 129.75 311.5 118.5 c 2
 311.5 118.5 359.25 98.25 364.75 98.25 c 1
 349.25 -0.5 l 1
 242.25 -0.5 l 2
 161.5 -0.5 95.25 49.25 117.25 190 c 2
 152.5 413 l 1
 71.5 413 l 1
406 599.75 m 1
 416.5 733.75 l 1
 427 800.75 l 1
 531.25 800.75 l 1
 520.5 733.75 l 1
 489 599.75 l 1
 406 599.75 l 1
EndSplineSet
AlternateSubs2: "'salt' Access All Alternates in Latin lookup 4-1" tcaron.salt
Substitution2: "'smcp' Lowercase to Small Capitals lookup 16-1" tcaron.smcp
EndChar

StartChar: dcaron
Encoding: 338 271 253
Width: 746
VWidth: 0
Flags: HW
LayerCount: 2
Fore
SplineSet
74 278.75 m 0
 103 462 145 539 290.75 539 c 3
 335.75 539 393.75 527.25 433.5 506.5 c 1
 478 785 l 1
 641.5 785 l 1
 517.25 0 l 1
 379.5 0 l 1
 360.5 51.5 l 17
 320.25 22 268.75 -6 207.5 -6 c 3
 83.25 -6 45 97.5 74 278.75 c 0
239.5 270.5 m 0
 221.5 157.75 237 130.25 275.5 130.25 c 3
 318.5 130.25 353.75 140 377.75 158.25 c 1
 416 398.5 l 1
 393.5 411.25 358.75 416.25 320.75 416.25 c 1
 284.75 416.25 259.75 396 239.5 270.5 c 0
678.5 580.5 m 1
 688.75 714.5 l 1
 698.75 781.5 l 1
 803 781.5 l 1
 792.75 714.5 l 1
 761.5 580.5 l 1
 678.5 580.5 l 1
EndSplineSet
AlternateSubs2: "'salt' Access All Alternates in Latin lookup 4-1" dcaron.salt
Substitution2: "'smcp' Lowercase to Small Capitals lookup 16-1" dcaron.smcp
EndChar

StartChar: Lslash
Encoding: 346 321 261
Width: 529
VWidth: 0
Flags: HW
LayerCount: 2
Fore
SplineSet
24.5 299.75 m 1
 36.75 375.75 l 1
 118.5 408 l 1
 169.25 732 l 1
 333 732 l 1
 293.25 478.25 l 1
 402.5 521.75 l 1
 390 446 l 1
 281.25 402.5 l 1
 249 201 l 2
 241 148 274 149 303 149 c 2
 534.25 149 l 1
 511 0 l 1
 212.25 0 l 2
 127.248 0 59.5 40.25 76.75 148.5 c 2
 106.25 332.25 l 1
 24.5 299.75 l 1
EndSplineSet
Substitution2: "'c2sc' Capitals to Small Capitals in Latin lookup 17 subtable" lslash.smcp
EndChar

StartChar: uni00AD
Encoding: 173 173 262
Width: 353
VWidth: 0
Flags: HW
LayerCount: 2
Fore
SplineSet
54.75 223 m 1
 75.75 357 l 1
 389.75 357 l 1
 368.75 223 l 1
 54.75 223 l 1
EndSplineSet
Substitution2: "'case' Case-Sensitive Forms lookup 1-1" uni00AD.alt
Substitution2: "'c2sc' Capitals to Small Capitals in Latin lookup 17 subtable" uni00AD.smcp
Substitution2: "'smcp' Lowercase to Small Capitals lookup 16-1" uni00AD.smcp
EndChar

StartChar: lslash
Encoding: 347 322 263
Width: 338
VWidth: 0
Flags: HW
LayerCount: 2
Fore
SplineSet
39.25 343.5 m 1
 51.5 419.5 l 1
 128.25 450.25 l 1
 181.5 783 l 1
 346.25 783 l 1
 304.75 520.25 l 1
 417.25 565.5 l 1
 404.75 489.75 l 1
 292.75 444.25 l 1
 255.75 219 l 2
 243.25 142.5 257.75 130.25 282.5 119 c 1
 282.5 119 330.25 98.75 335.75 98.75 c 1
 320.25 0 l 1
 222.25 0 l 2
 130.25 0 65.25 48.25 87.25 189 c 2
 116.75 374.5 l 1
 39.25 343.5 l 1
EndSplineSet
Substitution2: "'smcp' Lowercase to Small Capitals lookup 16-1" lslash.smcp
EndChar

StartChar: dcroat
Encoding: 349 273 265
Width: 554
VWidth: 0
Flags: HW
LayerCount: 2
Fore
SplineSet
74 280.25 m 0
 103 463.5 145 539 290.75 539 c 0
 335.75 539 393.75 527.25 433.5 506.5 c 1
 448.5 601 l 1
 347.5 601 l 1
 358.75 670 l 1
 459.75 670 l 1
 478 785 l 1
 641.5 785 l 1
 623.5 670 l 1
 685.75 670 l 1
 674.5 601 l 1
 612.25 601 l 1
 517.25 0 l 1
 379.5 0 l 1
 360.5 51.5 l 1
 320.25 22 268.75 -6 207.5 -6 c 0
 83.25 -6 45 99 74 280.25 c 0
239.5 270.5 m 0
 221.5 157.75 237 130.25 275.5 130.25 c 0
 318.5 130.25 353.75 140 377.75 158.25 c 1
 416 398.5 l 1
 393.5 411.25 358.75 416.25 320.75 416.25 c 0
 284.75 416.25 259.75 396 239.5 270.5 c 0
EndSplineSet
AlternateSubs2: "'salt' Access All Alternates in Latin lookup 4-1" dcroat.salt
Substitution2: "'smcp' Lowercase to Small Capitals lookup 16-1" dcroat.smcp
EndChar

StartChar: questiondown
Encoding: 191 191 266
Width: 541
VWidth: 0
Flags: HW
LayerCount: 2
Fore
SplineSet
14.75 -51.25 m 2
 24.75 12.25 l 2
 46.5 151.5 119.5 200 276.25 190.25 c 1
 276.25 191 290.25 274.75 290 276.25 c 1
 417.5 276.25 l 1
 384.75 69.25 l 1
 370.25 69.5 294.75 69.75 280.25 69.25 c 0
 231.25 67.25 196.5 49.25 187.75 -7.25 c 2
 181.5 -43.75 l 2
 173 -97.75 201.5 -118.75 269.75 -118.75 c 2
 510.75 -118.75 l 2
 491.5 -240.25 l 1
 398 -260.75 318.75 -272.75 204.75 -267.75 c 1
 57.25 -267.75 -1.25 -149.25 14.75 -51.25 c 2
293 346.25 m 2
 308.75 448.25 l 2
 311.5 465.5 323 471.25 337 471.25 c 2
 435.5 471.25 l 2
 449.5 471.25 457.75 462.25 455.75 448.25 c 2
 440 346.25 l 2
 438 331.25 428 321.25 412 321.25 c 2
 313.5 321.25 l 2
 296.25 321.25 290.25 330.75 293 346.25 c 2
EndSplineSet
Substitution2: "'case' Case-Sensitive Forms lookup 1-1" questiondown.alt
Substitution2: "'smcp' Lowercase to Small Capitals lookup 16-1" questiondown.smcp
EndChar

StartChar: at.alt
Encoding: 350 -1 267
Width: 830
VWidth: 0
Flags: HW
LayerCount: 2
Fore
SplineSet
62.5 106.5 m 2
 137.5 581 l 2
 163.75 744.25 260 789 410.75 789 c 2
 770.75 789 l 2
 926 789 960.75 677.5 940 536 c 2
 893 219.5 l 2
 879.25 125.25 835.75 63 691.75 63 c 2
 585.25 63 l 1
 561.5 115.5 l 1
 542.5 89.75 509.25 54.75 436.25 56 c 0
 314.75 58.5 255.5 158.25 284.25 347.75 c 0
 318.25 569.5 425.25 605.5 521.75 605.5 c 0
 628 605.5 697 587.25 748 538.25 c 1
 698 189.5 l 1
 746 189.5 760.25 198.5 772.5 279.5 c 2
 812.75 551 l 2
 826.5 646.25 798.25 661.5 735 661.5 c 2
 383 661.5 l 2
 288 661.5 271.25 601.5 263.25 551 c 2
 190.5 91.5 l 2
 181.5 34.5 191.75 -7.5 277.75 -7.5 c 2
 663.75 -7.5 l 1
 647.5 -107 l 1
 597.5 -117 481.5 -134 355.5 -134 c 2
 265 -134 l 2
 79.25 -134 44 -14 62.5 106.5 c 2
410 329 m 0
 399.5 255.25 395 180.5 467 182.5 c 0
 522 183.75 558.75 202.5 578 250 c 1
 612.5 472.25 l 1
 575.75 479.25 544.5 480 516 480 c 0
 460.25 480 427 447.25 410 329 c 0
EndSplineSet
EndChar

StartChar: questiondown.alt
Encoding: 351 -1 268
Width: 541
VWidth: 0
Flags: HW
LayerCount: 2
Fore
SplineSet
55.75 211.5 m 2
 65.75 275 l 2
 87 411.5 160.5 462 317.25 452.25 c 1
 317.25 453 331.25 536.75 331 538.25 c 1
 458.5 538.25 l 1
 425.75 331.25 l 1
 411.25 331.5 335.75 331.75 321.25 331.25 c 0
 272.25 329.25 237.5 311.25 228.75 254.75 c 2
 222.5 218.25 l 2
 214.25 166.75 242.5 143.25 310.75 143.25 c 2
 551.75 143.25 l 2
 532.5 21.75 l 1
 439 1.25 359.75 -10.75 245.75 -5.75 c 1
 98.25 -5.75 39.75 113.5 55.75 211.5 c 2
334 608.25 m 2
 349.75 710.25 l 2
 352.5 727.5 364 733.25 378 733.25 c 2
 476.5 733.25 l 2
 490.5 733.25 498.75 724.25 496.75 710.25 c 2
 481 608.25 l 2
 479 593.25 469 583.25 453 583.25 c 2
 354.5 583.25 l 2
 337.25 583.25 331.25 592.75 334 608.25 c 2
EndSplineSet
EndChar

StartChar: oe
Encoding: 352 339 269
Width: 853
VWidth: 0
Flags: HW
LayerCount: 2
Fore
SplineSet
67.5 277.5 m 0
 101.5 494.5 174.5 538.25 356 538.25 c 0
 422.25 538.25 470.75 524.5 502.5 496.75 c 1
 541 526.25 596 540.25 679.25 541 c 0
 789.5 541.75 899.5 512.25 893.5 388 c 0
 882.75 137.5 600 185.75 563 200.75 c 1
 552.5 135.25 572.25 120.25 643.25 120.25 c 0
 696.75 120.25 792.5 127.75 848.75 138 c 1
 828.75 22 l 1
 750 -2.5 663.25 -16 542 -7 c 0
 502.25 -4.75 472.75 8 452 31.5 c 1
 410.25 4.5 353 -5 273.5 -5 c 0
 90.25 -5 37.5 87.5 67.5 277.5 c 0
231.5 258 m 0
 211.5 136.25 227 121.5 291 121.5 c 0
 358.5 121.5 373 131 394 258 c 0
 414.75 387 408 411.75 336.75 411.75 c 0
 264.5 411.75 252.75 389.5 231.5 258 c 0
575.5 307.25 m 1
 575.5 307.25 710.25 279.25 725 361.75 c 0
 732.5 403.5 711 415.25 667 414.5 c 0
 595.75 413 585.5 363.75 575.5 307.25 c 1
EndSplineSet
Substitution2: "'smcp' Lowercase to Small Capitals lookup 16-1" oe.smcp
EndChar

StartChar: OE
Encoding: 353 338 270
Width: 1024
VWidth: 0
Flags: HW
LayerCount: 2
Fore
SplineSet
80.75 379.75 m 0
 134.75 722.75 265.75 737 435.5 737 c 0
 507.5 737 569.25 727.5 612.5 690.25 c 1
 649.25 727.5 699.5 735 750.5 732 c 2
 750.5 732 971.5 728 1057.75 716 c 1
 1036 579.25 l 1
 771.5 579.25 l 2
 720.5 579.25 714.5 550.25 710.5 523.25 c 2
 698.25 443.25 l 1
 964.5 432.5 l 1
 943.5 297 l 1
 674 287.75 l 1
 660 201.75 l 2
 651.5 148.75 684.5 149.75 713.5 149.75 c 2
 968 149.75 l 1
 946.75 14 l 1
 867.25 3.5 644.5 -3 644.5 -3 c 2
 607 -5.25 557.75 4.5 526.5 36.25 c 1
 470.5 1.25 402.5 -4 323.25 -4 c 0
 147.75 -4 27.75 46.75 80.75 379.75 c 0
244.75 361 m 0
 216.5 182 233 145 344 145 c 0
 444 145 484.25 182.5 512.75 361 c 0
 544.75 563.25 514 588 414.75 588 c 0
 315.5 588 277.5 570 244.75 361 c 0
EndSplineSet
EndChar

StartChar: guillemotright
Encoding: 187 187 272
Width: 584
VWidth: 0
Flags: HW
LayerCount: 2
Fore
SplineSet
69.75 233 m 1
 220.5 365 l 1
 117.25 481.5 l 1
 207.25 557 l 1
 381.5 352.75 l 1
 146.5 146 l 1
 69.75 233 l 1
295.25 233 m 1
 446 365 l 1
 342 481.5 l 1
 432 557 l 1
 607 352.75 l 1
 372 146 l 1
 295.25 233 l 1
EndSplineSet
EndChar

StartChar: cent
Encoding: 162 162 273
Width: 484
VWidth: 0
Flags: HW
LayerCount: 2
Fore
SplineSet
68 288.5 m 0
 104 509.25 185.25 537.75 289 536.5 c 1
 305 634 l 1
 401 634 l 1
 384.75 533.75 l 1
 430.75 529.25 483.5 520.25 531 502.5 c 1
 515.25 403.5 l 1
 515.25 403.5 436.5 410 347.5 410 c 0
 281.75 410 255.75 409.5 231 263.5 c 0
 210 134.75 230.75 121 301 121 c 0
 393 121 478.75 129.75 478.75 129.75 c 1
 463 30.25 l 1
 409.5 2 352.25 -5 296 -5.75 c 1
 282.25 -95.25 l 1
 186.25 -95.25 l 1
 200.75 -5.25 l 1
 101 -3.5 35 83.5 68 288.5 c 0
EndSplineSet
EndChar

StartChar: sterling
Encoding: 163 163 274
Width: 578
VWidth: 0
Flags: HW
LayerCount: 2
Fore
SplineSet
33.5 0 m 1
 53.75 126.5 l 1
 122 149 l 1
 147 307.5 l 1
 82.5 307.5 l 1
 95.5 390 l 1
 163.75 414.5 l 1
 177.25 497.5 l 2
 213 723 315.5 732 479.5 732 c 3
 536.5 732 657.5 716 657.5 716 c 1
 637.25 584 l 1
 452.5 584 l 2
 376.25 584 352.5 573 339.75 491.5 c 2
 327.75 414.5 l 1
 528.25 397.5 l 1
 514.5 307.5 l 1
 311 307.5 l 1
 286 149 l 1
 567.5 149 l 1
 543.5 0 l 1
 33.5 0 l 1
EndSplineSet
Substitution2: "'smcp' Lowercase to Small Capitals lookup 16-1" sterling.smcp
EndChar

StartChar: yen
Encoding: 165 165 275
Width: 646
VWidth: 0
Flags: HW
LayerCount: 2
Fore
SplineSet
124 134.25 m 1
 138.25 223.25 l 1
 265.75 223.25 l 1
 270.5 254.5 l 1
 143.25 254.5 l 1
 157.75 343.5 l 1
 237.25 343.5 l 1
 128.5 732 l 1
 306.25 732 l 1
 372 405.75 l 1
 553 732 l 1
 748.5 732 l 1
 497.25 343.5 l 1
 584.75 343.5 l 1
 570.25 254.5 l 1
 434.5 254.5 l 1
 429.75 223.25 l 1
 565.25 223.25 l 1
 551 134.25 l 1
 416 134.25 l 1
 396 0 l 1
 232 0 l 1
 252 134.25 l 1
 124 134.25 l 1
EndSplineSet
Substitution2: "'smcp' Lowercase to Small Capitals lookup 16-1" yen.smcp
EndChar

StartChar: section
Encoding: 167 167 276
Width: 536
VWidth: 0
Flags: HW
LayerCount: 2
Fore
SplineSet
75 11 m 1
 93 126 l 1
 320 126 l 2
 345 126 357 130.75 361 152.75 c 2
 365.25 180 l 2
 368.5 201 359.75 207.5 334 207.5 c 2
 230.75 207.5 l 2
 137 207.5 74.5 252 89.25 345.5 c 2
 93.25 370 l 2
 99 406.5 106.25 456.5 179.25 478 c 1
 120.75 510 125.5 573 130.75 605 c 2
 135.75 645 l 2
 148.5 742.25 208.75 784 305 784 c 3
 390.75 784 527 778.75 583.5 765 c 1
 565.75 650 l 1
 336.75 650 l 2
 312.5 650 301.5 640 298.25 619.5 c 2
 294.75 597.5 l 2
 292.5 581.25 298.75 567 324.75 567 c 2
 427.25 567 l 2
 533.25 567 584 520.25 570.75 434 c 2
 566.75 409.5 l 2
 561.25 373.25 546 320.5 484 302.5 c 1
 537.75 291.5 535.75 216 530.75 183 c 2
 523.5 132.5 l 2
 503.75 9.25 434.25 -8 360.5 -8 c 3
 265 -8 126.25 -3.5 75 11 c 1
259 371 m 2
 253.5 338 268.5 334 294.25 334 c 2
 346.5 334 l 2
 384.5 334 391.25 344 395.25 372 c 2
 396.25 373 400 401 400 401 c 2
 403.75 424.75 404 440 363 440 c 2
 310.75 440 l 2
 273 440 268 426.25 263.75 399 c 2
 259 371 l 2
EndSplineSet
EndChar

StartChar: g.salt
Encoding: 355 -1 277
Width: 517
VWidth: 0
Flags: HW
LayerCount: 2
Fore
SplineSet
12.25 -101 m 0
 54.25 114 l 0
 59.25 150 81.25 200 131.25 200 c 1
 74.75 234 78.25 313.5 86.25 366.5 c 0
 108.5 508.5 203 535 300.25 533 c 2
 397.75 531 l 2
 465.75 530.25 570.75 493.25 543.75 321.5 c 0
 532.25 244.5 474.75 148 332.75 148 c 2
 260.75 148 l 2
 244.75 148 220.5 153 215.5 132.25 c 0
 210.75 112.25 232.75 109.25 253 105.5 c 2
 378.5 82.75 l 2
 445.75 68.5 515.75 26 499.75 -75.5 c 2
 491.75 -123.5 l 2
 478.5 -207.75 442.25 -270 295.25 -270 c 2
 178.75 -270 l 2
 34.75 -270 -6.75 -197 12.25 -101 c 0
178 -93.5 m 2
 171 -130.75 182.25 -141 218.25 -141 c 2
 285.75 -141 l 2
 318.5 -141 326.75 -126.25 330.75 -101 c 2
 332.75 -85.75 l 2
 337.5 -53 326.5 -45.75 295 -40 c 2
 191.25 -24 l 1
 178 -93.5 l 2
250.25 344 m 0
 242.25 295 242.5 268 288.75 268 c 2
 322.25 268 l 2
 364.25 268 374.5 309 379.75 344 c 0
 388.75 399 386 414 345 414 c 2
 311.5 414 l 2
 268.5 414 259.25 396 250.25 344 c 0
EndSplineSet
EndChar

StartChar: guillemotleft
Encoding: 171 171 278
Width: 586
VWidth: 0
Flags: HW
LayerCount: 2
Fore
SplineSet
89.5 354 m 1
 327.5 557 l 1
 400.5 472.25 l 1
 252 344.75 l 1
 362.75 216.25 l 1
 267.5 146 l 1
 89.5 354 l 1
314 354 m 1
 552 557 l 1
 625 472.25 l 1
 476.5 344.75 l 1
 587.25 216.25 l 1
 492 146 l 1
 314 354 l 1
EndSplineSet
EndChar

StartChar: paragraph
Encoding: 182 182 279
Width: 575
VWidth: 0
Flags: HW
LayerCount: 2
Fore
SplineSet
105.25 515.5 m 2
 119.25 608.5 l 2
 135 708.25 208 732 297.75 732 c 2
 677.75 732 l 1
 659.75 618.5 l 1
 613.25 618.5 l 1
 515.25 0 l 1
 403.75 0 l 1
 502.5 620.5 l 1
 446 620.5 l 1
 305 -270 l 1
 193.5 -270 l 1
 294.75 372 l 1
 288.75 370 270.75 355 237.5 355 c 3
 124.75 355 93.75 441.5 105.25 515.5 c 2
219.25 514.5 m 2
 212 467.75 235.25 466.5 262.25 466.5 c 10
 309.5 466.5 l 25
 334.5 621.25 l 25
 288 621.25 l 2
 241.75 621.25 234 607.75 227.25 566 c 10
 219.25 514.5 l 2
EndSplineSet
EndChar

StartChar: macron
Encoding: 175 175 280
Width: 359
VWidth: 0
Flags: HW
LayerCount: 2
Fore
SplineSet
117.5 531 m 1
 131.25 616.5 l 1
 423.25 616.5 l 1
 409.5 531 l 1
 117.5 531 l 1
EndSplineSet
Substitution2: "'smcp' Lowercase to Small Capitals lookup 16-1" macron.smcp
EndChar

StartChar: copyright
Encoding: 169 169 281
Width: 794
VWidth: 0
Flags: HW
LayerCount: 2
Fore
SplineSet
93.5 383 m 0
 123.5 573.75 194.75 732 414.5 732 c 2
 629.5 732 l 2
 829.75 732 847.5 537.75 817 345.5 c 0
 778.5 103 670.75 0 519.75 0 c 2
 304.75 0 l 2
 112 0 63.25 190.5 93.5 383 c 0
195 368 m 0
 170.5 213 201 94 315 94 c 2
 524 94 l 2
 611 94 683.5 164 715.5 368 c 0
 734.5 488 749.25 638 618.25 638 c 2
 400.75 638 l 2
 312 638 230 589.75 195 368 c 0
277 377.75 m 0
 303.75 542.75 367.25 583 455 583 c 3
 496 583 581.75 578 636.5 559 c 1
 624 477 l 1
 562 486 503.5 489 470.5 489 c 3
 416.5 489 393 459.5 377.5 362 c 0
 364.5 278 383 241 436.5 241 c 27
 498.75 241 555.25 249.75 595 257 c 1
 582.5 175 l 17
 523.75 149.5 459.75 147 392.75 147 c 3
 313.75 147 249.75 206.5 277 377.75 c 0
EndSplineSet
EndChar

StartChar: registered
Encoding: 174 174 282
Width: 794
VWidth: 0
Flags: HW
LayerCount: 2
Fore
SplineSet
93.5 383 m 0
 123.5 573.75 194.75 732 414.5 732 c 2
 629.5 732 l 2
 829.75 732 847.5 537.75 817 345.5 c 0
 778.5 103 670.75 0 519.75 0 c 2
 304.75 0 l 2
 112 0 63.25 190.5 93.5 383 c 0
195 368 m 0
 170.5 213 201 94 315 94 c 2
 524 94 l 2
 611 94 683.5 164 715.5 368 c 0
 734.5 488 749.25 638 618.25 638 c 2
 400.75 638 l 2
 312 638 230 589.75 195 368 c 0
264.75 153 m 1
 332.75 580 l 1
 517.25 580 l 2
 579.75 580 646.25 553.75 629.5 443 c 0
 617 354 581.5 327.25 536.75 313.5 c 1
 597 153 l 1
 488.25 153 l 1
 432.5 308 l 1
 393 320 l 1
 366.25 153 l 1
 264.75 153 l 1
404.5 394 m 1
 463.5 394 l 2
 515.5 394 521.25 400.25 528 443.5 c 0
 534.25 483.25 518.25 486 478 486 c 2
 419 486 l 1
 404.5 394 l 1
EndSplineSet
EndChar

StartChar: plusminus
Encoding: 177 177 283
Width: 491
VWidth: 0
Flags: HW
LayerCount: 2
Fore
SplineSet
48 64.5 m 1
 69 198.5 l 1
 485 198.5 l 1
 464 64.5 l 1
 48 64.5 l 1
99 379.5 m 1
 119.75 513.5 l 1
 259.75 513.5 l 1
 282.25 654.5 l 1
 416.25 654.5 l 1
 393.75 513.5 l 1
 535.75 513.5 l 1
 515 379.5 l 1
 373 379.5 l 1
 350.25 238.5 l 1
 216.25 238.5 l 1
 239 379.5 l 1
 99 379.5 l 1
EndSplineSet
EndChar

StartChar: logicalnot
Encoding: 172 172 284
Width: 481
VWidth: 0
Flags: HW
LayerCount: 2
Fore
SplineSet
63.75 233.5 m 1
 84 360 l 1
 511 360 l 1
 502 303 487.75 216 478.75 159 c 1
 352.25 159 l 1
 364.25 233.5 l 1
 63.75 233.5 l 1
EndSplineSet
EndChar

StartChar: guilsinglleft
Encoding: 356 8249 285
Width: 283
VWidth: 0
Flags: HW
LayerCount: 2
Fore
SplineSet
13.25 354 m 1
 251.25 557 l 1
 324.25 472.25 l 1
 183.25 352.25 l 1
 286.5 231.25 l 1
 191.25 146 l 1
 13.25 354 l 1
EndSplineSet
EndChar

StartChar: guilsinglright
Encoding: 357 8250 286
Width: 357
VWidth: 0
Flags: HW
LayerCount: 2
Fore
SplineSet
89.5 233 m 1
 231.25 354.5 l 1
 129.5 474 l 1
 227 557 l 1
 401.25 352.75 l 1
 159.5 146 l 1
 89.5 233 l 1
EndSplineSet
EndChar

StartChar: perthousand
Encoding: 358 8240 287
Width: 1336
VWidth: 0
Flags: HW
LayerCount: 2
Fore
SplineSet
72.5 492.75 m 2
 91.25 610.75 l 2
 104.25 695.25 145 732 248.5 732 c 2
 349.5 732 l 2
 444.5 732 476.5 674.75 463.25 588.25 c 2
 444.5 470.25 l 18
 431 383.25 389.25 349 287.5 349 c 2
 186.5 349 l 2
 94.25 349 59.5 408 72.5 492.75 c 2
186.25 504 m 2
 182 475.25 185.5 459 222 459 c 2
 285.5 459 l 2
 324.75 459 334 475.5 338.25 504 c 10
 349.5 577 l 2
 355.25 614 346 622 313.25 622 c 2
 249.75 622 l 2
 218.75 622 203 613.75 197.5 577 c 2
 186.25 504 l 2
168.25 0 m 1
 734.25 732 l 1
 845 732 l 1
 284.25 0 l 1
 168.25 0 l 1
556.25 146 m 2
 575 264 l 2
 588 348.5 628 385.25 731.5 385.25 c 2
 833.25 385.25 l 2
 928.25 385.25 960.25 328 947 241.5 c 2
 928.25 123.5 l 18
 914.75 36.5 872.75 2.25 771 2.25 c 2
 669.25 2.25 l 2
 577 2.25 543.25 61.25 556.25 146 c 2
670 157.25 m 2
 665.75 128.5 669.75 112.25 706.25 112.25 c 2
 769 112.25 l 2
 808.25 112.25 817.75 128.75 822 157.25 c 10
 833.25 230.25 l 2
 839 267.25 829.5 275.25 796.75 275.25 c 2
 734 275.25 l 2
 703 275.25 686.75 267 681.25 230.25 c 2
 670 157.25 l 2
969.75 146 m 2
 988.5 264 l 2
 1001.5 348.5 1042.25 385.25 1145.75 385.25 c 2
 1246.75 385.25 l 2
 1341.75 385.25 1373.75 328 1360.5 241.5 c 2
 1341.75 123.5 l 18
 1328.25 36.5 1286.25 2.25 1184.5 2.25 c 2
 1083.5 2.25 l 2
 991.25 2.25 956.75 61.25 969.75 146 c 2
1083.5 157.25 m 2
 1079.25 128.5 1083.25 112.25 1119.75 112.25 c 2
 1183.25 112.25 l 2
 1222.5 112.25 1231.25 128.75 1235.5 157.25 c 10
 1246.75 230.25 l 2
 1252.5 267.25 1243.75 275.25 1211 275.25 c 2
 1147.5 275.25 l 2
 1116.5 275.25 1100.25 267 1094.75 230.25 c 2
 1083.5 157.25 l 2
EndSplineSet
Substitution2: "'smcp' Lowercase to Small Capitals lookup 16-1" perthousand.smcp
EndChar

StartChar: dagger
Encoding: 359 8224 288
Width: 539
VWidth: 0
Flags: HW
LayerCount: 2
Fore
SplineSet
101 440.25 m 1
 121.25 566.75 l 1
 256.25 580.5 l 1
 298.25 770 l 1
 443.75 770 l 1
 425.25 580.5 l 1
 555.25 566.75 l 1
 535 440.25 l 1
 401 426.5 l 1
 308.75 -72 l 1
 163.25 -72 l 1
 232 426.5 l 1
 101 440.25 l 1
EndSplineSet
EndChar

StartChar: daggerdbl
Encoding: 360 8225 289
Width: 509
VWidth: 0
Flags: HW
LayerCount: 2
Fore
SplineSet
82.75 136.5 m 1
 103 263 l 1
 241.25 279.75 l 1
 261.5 426.5 l 1
 131.25 440.25 l 1
 150.75 566.75 l 1
 286.5 580.5 l 1
 327.75 770 l 1
 473 770 l 1
 455.5 580.5 l 1
 584.75 566.75 l 1
 565.25 440.25 l 1
 430.5 426.5 l 1
 404 279 l 1
 537 263 l 1
 516.75 136.5 l 1
 374 121.25 l 1
 339 -72 l 1
 193.5 -72 l 1
 219.75 119.75 l 1
 82.75 136.5 l 1
EndSplineSet
EndChar

StartChar: trademark
Encoding: 361 8482 290
Width: 625
VWidth: 0
Flags: HW
LayerCount: 2
Fore
SplineSet
34.25 645.5 m 1
 48 732 l 1
 337 732 l 1
 323.25 645.5 l 1
 230 645.5 l 1
 188.75 383 l 1
 87.25 383 l 1
 128.5 645.5 l 1
 34.25 645.5 l 1
291 383 m 1
 388 732 l 1
 493.25 732 l 1
 508.25 545 l 1
 578 732 l 1
 689 732 l 1
 680 383 l 1
 578.5 383 l 1
 587.5 561 l 1
 532.75 383 l 1
 442.25 383 l 1
 435 559.75 l 1
 392.5 383 l 1
 291 383 l 1
EndSplineSet
EndChar

StartChar: notequal
Encoding: 362 8800 291
Width: 538
VWidth: 0
Flags: HW
LayerCount: 2
Fore
SplineSet
115.25 174.5 m 1
 136.5 309.75 l 1
 288 309.75 l 1
 348 389.75 l 1
 149.5 389.75 l 1
 170.75 525 l 1
 446.25 525 l 1
 493 587.25 l 1
 569 587.25 l 1
 522.25 525 l 1
 597.75 525 l 1
 576.5 389.75 l 1
 424 389.75 l 1
 364 309.75 l 1
 563.5 309.75 l 1
 542.25 174.5 l 1
 264.75 174.5 l 1
 210.75 101.25 l 1
 134.75 101.25 l 1
 188.75 174.5 l 1
 115.25 174.5 l 1
EndSplineSet
EndChar

StartChar: infinity
Encoding: 363 8734 292
Width: 662
VWidth: 0
Flags: HW
LayerCount: 2
Fore
SplineSet
43.5 356 m 0
 55.75 445 101 514 239 514 c 3
 312.5 514 360.75 482 395.75 422.5 c 1
 443.5 486.5 512 514 588 514 c 3
 724 514 742.25 413.25 729.5 326 c 0
 715.75 232.5 662.25 169 533 169 c 3
 469.75 169 411 184 368.5 260.5 c 1
 314.25 188.5 262 169 184 169 c 3
 59 169 30.75 267 43.5 356 c 0
161.75 341 m 0
 157.25 307.5 163.75 279.75 211.75 279.75 c 3
 254.5 279.75 285 310.75 310.25 341 c 1
 295.25 372.25 266.25 403.25 231.5 403.25 c 3
 176.75 403.25 166.25 375.5 161.75 341 c 0
459 340.25 m 1
 474.25 310 497 279.75 539.75 279.75 c 3
 586 279.75 606 306.25 611.25 341 c 0
 616.5 375.75 613.5 403.25 559.5 403.25 c 3
 517.25 403.25 484 371.5 459 340.25 c 1
EndSplineSet
EndChar

StartChar: lessequal
Encoding: 364 8804 293
Width: 522
VWidth: 0
Flags: HW
LayerCount: 2
Fore
SplineSet
83.5 73.25 m 1
 102.25 192.25 l 1
 476.75 192.25 l 1
 458 73.25 l 1
 83.5 73.25 l 1
129 361 m 1
 152.5 508.5 l 1
 546.75 631.5 l 1
 523.25 484 l 1
 305 427.75 l 1
 506.5 373.75 l 1
 483 230.5 l 1
 129 361 l 1
EndSplineSet
EndChar

StartChar: greaterequal
Encoding: 365 8805 294
Width: 420
VWidth: 0
Flags: HW
LayerCount: 2
Fore
SplineSet
44.25 73.25 m 1
 63 192.25 l 1
 438.25 192.25 l 1
 419.5 73.25 l 1
 44.25 73.25 l 1
68.5 229.5 m 1
 92 377.5 l 1
 314.25 440.5 l 1
 108.75 488.5 l 1
 132.25 630.5 l 1
 488 507.5 l 1
 464.5 360 l 1
 68.5 229.5 l 1
EndSplineSet
EndChar

StartChar: circumflex
Encoding: 366 710 295
Width: 311
VWidth: 0
Flags: HW
LayerCount: 2
Fore
SplineSet
44.25 531 m 1
 170.25 668.5 l 1
 286.25 668.5 l 1
 358.75 531 l 1
 259.25 531 l 1
 221.75 590 l 1
 155.75 531 l 1
 44.25 531 l 1
EndSplineSet
Substitution2: "'smcp' Lowercase to Small Capitals lookup 16-1" circumflex.smcp
EndChar

StartChar: tilde
Encoding: 367 732 296
Width: 413
VWidth: 0
Flags: HW
LayerCount: 2
Fore
SplineSet
117.5 591.5 m 17
 152 626.75 198.5 663 250.75 663 c 1
 296.25 662.25 313.75 628.5 350.75 628.25 c 1
 386.75 626.5 429.75 648.5 450.75 666.75 c 9
 465 600.75 l 17
 434 569.25 389.75 531 340.5 531.25 c 1
 294.25 531.5 270.75 566.25 232.5 566 c 1
 192.25 565.75 167.5 552.5 133.25 531 c 9
 117.5 591.5 l 17
EndSplineSet
Substitution2: "'smcp' Lowercase to Small Capitals lookup 16-1" tilde.smcp
EndChar

StartChar: ring
Encoding: 368 730 297
Width: 268
VWidth: 0
Flags: HW
LayerCount: 2
Fore
SplineSet
126.573 632 m 0
 131.57 689 180.076 732.75 236.076 732.75 c 0
 292.076 732.75 334.57 689 329.573 632 c 0
 324.577 575 277.842 531.5 221.842 531.5 c 0
 165.842 531.5 121.576 575 126.573 632 c 0
189.323 632 m 24
 187.167 610.25 203.392 593.75 225.142 593.75 c 27
 246.892 593.75 264.667 610.25 266.823 632 c 24
 268.979 653.75 253.776 671.25 232.026 671.25 c 27
 210.276 671.25 191.479 653.75 189.323 632 c 24
EndSplineSet
Substitution2: "'smcp' Lowercase to Small Capitals lookup 16-1" ring.smcp
EndChar

StartChar: ellipsis
Encoding: 369 8230 298
Width: 790
VWidth: 0
Flags: HW
LayerCount: 2
Fore
SplineSet
128.589 23 m 2
 145.082 125 l 2
 147.238 140 157.092 150 173.092 150 c 2
 271.092 150 l 2
 289.092 150 294.949 141 292.082 125 c 2
 275.589 23 l 2
 272.552 5 261.5 0 247.5 0 c 2
 149.5 0 l 2
 135.5 0 126.644 9 128.589 23 c 2
400.589 23 m 2
 417.082 125 l 2
 419.238 140 429.092 150 445.092 150 c 2
 543.092 150 l 2
 561.092 150 566.949 141 564.082 125 c 2
 547.589 23 l 2
 544.552 5 533.5 0 519.5 0 c 2
 421.5 0 l 2
 407.5 0 398.643 9 400.589 23 c 2
672.589 23 m 2
 689.082 125 l 2
 691.238 140 701.092 150 717.092 150 c 2
 815.092 150 l 2
 833.092 150 838.949 141 836.082 125 c 2
 819.589 23 l 2
 816.552 5 805.5 0 791.5 0 c 2
 693.5 0 l 2
 679.5 0 670.643 9 672.589 23 c 2
EndSplineSet
EndChar

StartChar: fraction
Encoding: 370 8260 299
Width: 354
VWidth: 0
Flags: HW
LayerCount: 2
Fore
SplineSet
-60.75 0 m 1
 421.201 760.5 l 1
 535.701 760.5 l 1
 53.75 0 l 1
 -60.75 0 l 1
EndSplineSet
EndChar

StartChar: dotlessi
Encoding: 371 305 300
Width: 237
VWidth: 0
Flags: HW
LayerCount: 2
Fore
SplineSet
30 0 m 1
 114 531 l 1
 278 531 l 1
 194 0 l 1
 30 0 l 1
EndSplineSet
EndChar

StartChar: fi
Encoding: 372 64257 301
Width: 606
VWidth: 0
Flags: HW
LayerCount: 2
Fore
SplineSet
40.5 412 m 1
 57 514 l 1
 138 531 l 1
 149.75 588.5 l 2
 169 711 261.75 783 403.25 786 c 1
 453.25 786.75 609.25 778.25 648 759.5 c 1
 632.5 664 l 1
 631.5 664 445.25 667.5 445.25 667.5 c 2
 393.25 668.5 321.75 654.75 306.25 558.5 c 2
 302 531 l 1
 642.75 521 l 1
 560 0 l 1
 395.75 0 l 1
 461 412 l 1
 282.75 412 l 1
 217.5 0 l 1
 53.5 0 l 1
 118.75 412 l 1
 40.5 412 l 1
EndSplineSet
Ligature2: "'liga' Standard Ligatures lookup 15-1" f i
EndChar

StartChar: fl
Encoding: 373 64258 302
Width: 690
VWidth: 0
Flags: HW
LayerCount: 2
Fore
SplineSet
77.75 412 m 1
 94.25 513.5 l 1
 175.75 531 l 1
 184.75 576.75 l 2
 212.75 754.75 317.75 785.5 436.75 785.5 c 1
 736.5 783.25 l 1
 647 219 l 2
 634.75 142.5 649 130.25 673.75 119 c 1
 673.75 119 721.5 98.75 727 98.75 c 1
 711.25 0 l 1
 613.25 0 l 2
 521.25 0 456.5 48.25 478.5 189 c 2
 554 666.25 l 1
 520.25 666.25 438.75 667 438.75 667 c 2
 384 667 356 644.25 344.25 569.25 c 2
 339.75 531 l 1
 454.5 531 l 1
 435.75 412 l 1
 320.75 412 l 1
 254.5 0 l 1
 90.5 0 l 1
 156.5 412 l 1
 77.75 412 l 1
EndSplineSet
Ligature2: "'liga' Standard Ligatures lookup 15-1" f l
EndChar

StartChar: exclamdown.alt
Encoding: 374 -1 303
Width: 325
VWidth: 0
Flags: HW
LayerCount: 2
Fore
SplineSet
77.75 -202.25 m 1
 179 331.75 l 1
 308 331.75 l 1
 239.5 -202.25 l 1
 77.75 -202.25 l 1
182.5 406 m 2
 198 505.75 l 2
 200 519.75 212 527.75 226 528.75 c 1
 323.75 528.75 l 1
 335.75 527.75 345.75 516.75 343.75 502.75 c 2
 328.25 406 l 1
 326 393.25 319 380.5 302.75 379.5 c 1
 201.75 379.5 l 1
 188.75 379.75 180 388.25 182.5 406 c 2
EndSplineSet
EndChar

StartChar: ampersand.salt
Encoding: 375 -1 304
Width: 990
VWidth: 0
Flags: HW
LayerCount: 2
Fore
SplineSet
82.25 346.75 m 2
 94 431.25 l 2
 118.5 609 215.5 627 390.75 628.5 c 1
 816.75 628.5 l 1
 853.25 744.5 l 1
 999.25 744.5 l 1
 980.75 627 l 1
 1075.75 627 l 1
 1058.5 517 l 1
 960.5 497.75 l 1
 917.5 207.25 l 2
 887.5 20 752.75 -1.5 610.5 -1.5 c 2
 447.5 -1.5 l 0
 346.75 -0.75 244.25 44 262.25 165.25 c 1
 146.25 165.25 61 213.75 82.25 346.75 c 2
245.5 338.5 m 2
 239 300.25 247 287.75 281.5 287.5 c 1
 301.25 410.5 383.5 452 505.75 452 c 2
 559.75 452 l 1
 657.5 452 744.25 421 725 295.75 c 1
 705 169.5 619.5 170.25 513.5 170.25 c 2
 427.75 170.25 l 1
 423.25 139.75 437.5 131 471 130.25 c 1
 631.25 130.25 l 2
 714.25 130.25 744.5 169.5 754.25 232 c 2
 795.75 497 l 1
 377.25 497 l 0
 281.25 496.5 268 477 258 416.25 c 2
 245.5 338.5 l 2
445.5 286 m 1
 529.75 286 l 2
 550.75 286 559.25 288.5 563.25 312.25 c 0
 566.25 332.75 559 336 538 336 c 2
 495.25 336 l 2
 468.5 336 453.5 334 445.5 286 c 1
EndSplineSet
EndChar

StartChar: a.superior
Encoding: 376 -1 305
Width: 400
VWidth: 0
Flags: HW
LayerCount: 2
Fore
SplineSet
102.5 574 m 0
 133 723.25 224.5 729.5 291.75 730.5 c 0
 349.75 731.5 437 719.5 472.5 686.5 c 1
 426 365.25 l 1
 330.75 365.25 l 1
 310.75 410.25 l 17
 293 378.5 257.5 360.25 202.25 360.25 c 3
 125.75 360.25 75 435.25 102.5 574 c 0
218.5 555 m 0
 210.5 500.25 209.75 462.5 246.5 462.5 c 3
 279.5 462.5 307 476.25 320 496.25 c 1
 339.75 631.25 l 1
 318.25 637 293.5 639.5 276.5 636.5 c 0
 254.25 632.75 227.75 621.75 218.5 555 c 0
EndSplineSet
EndChar

StartChar: b.superior
Encoding: 377 -1 306
Width: 410
VWidth: 0
Flags: HW
LayerCount: 2
Fore
SplineSet
89.75 367.5 m 1
 172.75 890.75 l 1
 297 890.75 l 1
 268.25 709 l 1
 302 725.25 343 733.75 375.5 733.75 c 3
 482 733.75 489 639 472.5 525.5 c 0
 454.75 404.25 408.5 363.5 316.75 363.5 c 3
 271.75 363.5 243.5 384.25 221 406.5 c 9
 192.75 367.5 l 1
 89.75 367.5 l 1
233.25 484.5 m 1
 246.75 473.5 264 467.5 294.5 467.5 c 3
 321 467.5 339.75 485.75 349 551.75 c 0
 360 629.25 348.25 639.5 322 639.5 c 1
 294.75 639.5 275.5 635.75 256 627 c 1
 233.25 484.5 l 1
EndSplineSet
Ligature2: "'ordn' Ordinals lookup 21-1" b
EndChar

StartChar: c.superior
Encoding: 378 -1 307
Width: 351
VWidth: 0
Flags: HW
LayerCount: 2
Fore
SplineSet
110.75 559.5 m 0
 134 704.75 191.75 725 264.75 725 c 3
 302.25 725 383.75 719.25 437.75 699.5 c 1
 425.5 624.25 l 1
 425.5 624.25 374.5 628.5 313.5 628.5 c 3
 268.5 628.5 250 627.25 235.5 543.25 c 0
 222.75 467.25 237.25 460.5 286.75 460.5 c 3
 349.75 460.5 405.75 465.25 405.75 465.25 c 1
 393.25 391.25 l 17
 338.25 368.25 295.5 363.25 210.25 364 c 0
 137.5 364.75 88.75 423 110.75 559.5 c 0
EndSplineSet
Ligature2: "'ordn' Ordinals lookup 21-1" c
EndChar

StartChar: d.superior
Encoding: 379 -1 308
Width: 410
VWidth: 0
Flags: HW
LayerCount: 2
Fore
SplineSet
111.5 567 m 0
 128.25 667 160.75 734 267.25 734 c 3
 299.75 734 338.5 725.5 367.75 709.25 c 1
 396.5 891.25 l 1
 520.25 891.25 l 1
 437 367.5 l 1
 334 367.5 l 1
 318.5 406.5 l 17
 287.5 382.5 256.25 363.5 211.25 363.5 c 3
 118.25 363.5 93 461.25 111.5 567 c 0
237.25 552 m 0
 227 482.25 237.75 467.5 264.25 467.5 c 3
 294.75 467.5 313.25 473.5 331 487.25 c 1
 353.5 628.5 l 1
 335.25 636.75 319.25 639.75 292 639.75 c 1
 265.75 639.75 249 629 237.25 552 c 0
EndSplineSet
Ligature2: "'ordn' Ordinals lookup 21-1" d
EndChar

StartChar: e.superior
Encoding: 380 -1 309
Width: 384
VWidth: 0
Flags: HW
LayerCount: 2
Fore
SplineSet
113 567.5 m 0
 132.75 678 165.75 726.75 301.5 727.5 c 1
 379.5 728.25 464.25 705 458.5 621.75 c 0
 447.75 463.75 250 492.5 225.75 503.25 c 1
 219.5 465.5 241.5 458 285 457.75 c 1
 321 456.75 385.75 462 423.75 467.75 c 1
 408.75 382.25 l 17
 354 364 292.75 352.5 208 360.75 c 0
 119.5 369 89.75 437.5 113 567.5 c 0
232.25 568 m 0
 232.25 568 329 541.75 340.5 598.25 c 0
 345.5 625.25 323.25 629.75 296 629.75 c 1
 245 629.75 238.5 605 232.25 568 c 0
EndSplineSet
Ligature2: "'ordn' Ordinals lookup 21-1" e
EndChar

StartChar: f.superior
Encoding: 381 -1 310
Width: 309
VWidth: 0
Flags: HW
LayerCount: 2
Fore
SplineSet
116.5 632.25 m 1
 129 710.5 l 1
 184.25 726 l 1
 194.25 775.25 l 2
 210 848.75 250.25 891.75 339.5 891.75 c 0
 375.75 891.75 405.25 887.75 434.25 874 c 1
 421.5 800.75 l 1
 420.75 800.75 361 801.5 361 801.5 c 2
 320.5 802.25 319.5 781.25 314.5 748 c 2
 310.75 723.5 l 1
 391.5 723.5 l 1
 377 632.25 l 1
 295.75 632.25 l 9
 254 367.5 l 17
 129 367.5 l 1
 170.75 632.25 l 1
 116.5 632.25 l 1
EndSplineSet
Ligature2: "'ordn' Ordinals lookup 21-1" f
EndChar

StartChar: g.superior
Encoding: 382 -1 311
Width: 403
VWidth: 0
Flags: HW
LayerCount: 2
Fore
SplineSet
76.25 196.5 m 1
 90 280.75 l 1
 244.25 280.75 l 2
 282.75 280.75 309 300.25 315.25 340 c 2
 323 391.75 l 1
 296 371 267.75 363 234.5 363 c 3
 125.75 363 97.25 446.5 117.5 571 c 0
 138.75 698.75 201.25 733 292.25 733 c 3
 370.75 733 462.5 721.25 499 707.75 c 1
 438.25 319 l 2
 422.5 221.5 363.5 168 247 180.5 c 2
 76.25 196.5 l 1
243.25 556 m 0
 233.25 495.75 230.5 457.75 277 457.75 c 3
 300.75 457.75 312.5 459 335.25 467.75 c 1
 362.5 641 l 2
 306.25 641 l 2
 257 641 249.75 593 243.25 556 c 0
EndSplineSet
Ligature2: "'ordn' Ordinals lookup 21-1" g
EndChar

StartChar: h.superior
Encoding: 383 -1 312
Width: 414
VWidth: 0
Flags: HW
LayerCount: 2
Fore
SplineSet
91.75 367.5 m 1
 174.75 889 l 1
 299 889 l 1
 266.5 683.5 l 1
 297.75 706.5 329.75 731.5 389.25 731.5 c 3
 484.25 731.5 493.5 673.5 482.25 601.75 c 2
 445.5 367.5 l 9
 320.5 367.5 l 17
 356 593 l 2
 360.75 624 350 634.25 329.75 634.25 c 3
 298.25 634.25 278.75 626.75 255 608 c 1
 216.75 367.5 l 1
 91.75 367.5 l 1
EndSplineSet
Ligature2: "'ordn' Ordinals lookup 21-1" h
EndChar

StartChar: i.superior
Encoding: 384 -1 313
Width: 191
VWidth: 0
Flags: HW
LayerCount: 2
Fore
SplineSet
90.5 367.5 m 1
 146.5 723.5 l 1
 271.5 723.5 l 1
 215.5 367.5 l 1
 90.5 367.5 l 1
154.25 771.25 m 2
 166.5 848 l 2
 168.5 859 175.5 867 187.5 867 c 2
 282.25 867 l 2
 293.25 867 297.5 859 295.5 848 c 2
 283.25 771.25 l 2
 281.25 760.25 275 754.25 264 754.25 c 2
 169.25 754.25 l 2
 158.25 754.25 152.25 760.25 154.25 771.25 c 2
EndSplineSet
Ligature2: "'ordn' Ordinals lookup 21-1" i
EndChar

StartChar: j.superior
Encoding: 385 -1 314
Width: 191
VWidth: 0
Flags: HW
LayerCount: 2
Fore
SplineSet
63 184.75 m 1
 148 721.75 l 1
 273.5 721.75 l 1
 216.5 363.75 l 2
 208.5 305.75 196.25 239.25 158.25 184.75 c 1
 63 184.75 l 1
154.5 770 m 2
 166.75 847.5 l 2
 168.75 858.5 175.75 866.5 187.75 866.5 c 2
 282.5 866.5 l 2
 293.5 866.5 298.5 858.5 296.5 847.5 c 2
 284.25 770 l 2
 282.25 759 275.25 752.75 264.25 752.75 c 2
 169.5 752.75 l 2
 158.5 752.75 152.5 759 154.5 770 c 2
EndSplineSet
Ligature2: "'ordn' Ordinals lookup 21-1" j
EndChar

StartChar: k.superior
Encoding: 386 -1 315
Width: 409
VWidth: 0
Flags: HW
LayerCount: 2
Fore
SplineSet
91.75 367.5 m 1
 174.75 888.5 l 1
 299.75 888.5 l 1
 252.25 598.25 l 1
 312.25 617.75 359 661.75 380.5 721.75 c 1
 510.5 721.75 l 1
 485 629.25 424.25 581.25 385 559.75 c 1
 486 367.5 l 1
 347.75 367.5 l 1
 269.5 526 l 1
 241.75 525.25 l 9
 216.75 367.5 l 17
 91.75 367.5 l 1
EndSplineSet
Ligature2: "'ordn' Ordinals lookup 21-1" k
EndChar

StartChar: l.superior
Encoding: 387 -1 316
Width: 240
VWidth: 0
Flags: HW
LayerCount: 2
Fore
SplineSet
111.75 494.75 m 2
 173.75 889.5 l 1
 299.5 889.5 l 1
 240.75 521.75 l 2
 233.25 473.75 240 464.25 259 456.25 c 2
 259 456.25 294.25 442.25 299.25 442.25 c 1
 287.75 367.5 l 1
 211 367.5 l 2
 142.75 367.5 96.75 400.75 111.75 494.75 c 2
EndSplineSet
Ligature2: "'ordn' Ordinals lookup 21-1" l
EndChar

StartChar: m.superior
Encoding: 388 -1 317
Width: 643
VWidth: 0
Flags: HW
LayerCount: 2
Fore
SplineSet
89.75 367.5 m 1
 145.75 720.75 l 1
 248 720.75 l 1
 259.75 679.25 l 1
 295.5 704.5 323 727 382.25 727 c 1
 433.5 727 463 708 474.75 677.75 c 1
 512 701.5 557.25 727 616 727 c 1
 705.25 727 722.5 671 711 598.75 c 2
 674.25 367.5 l 1
 549.25 367.5 l 1
 584.75 590 l 2
 589.25 619.75 578.25 630.5 558 630.5 c 1
 527.5 630.5 503.75 624.5 482 607.25 c 1
 481.25 603.5 479.25 591.75 478.5 587.25 c 2
 444 367.5 l 1
 319 367.5 l 1
 354.5 590 l 2
 359 619.75 347.5 630.5 327.25 630.5 c 1
 295.5 630.5 275.75 623 252 604.25 c 1
 214.75 367.5 l 1
 89.75 367.5 l 1
EndSplineSet
Ligature2: "'ordn' Ordinals lookup 21-1" m
EndChar

StartChar: n.superior
Encoding: 389 -1 318
Width: 414
VWidth: 0
Flags: HW
LayerCount: 2
Fore
SplineSet
91.75 367.5 m 1
 147.75 720.75 l 1
 249 720.75 l 1
 262.5 680 l 1
 296 704.5 326 727.75 386.25 727.75 c 3
 482.75 727.75 493.5 670.5 482.25 599.5 c 2
 445.5 367.5 l 9
 320.5 367.5 l 17
 356.25 591 l 2
 361 622 349.75 631.5 329.5 631.5 c 3
 297.75 631.5 278 623.75 254.25 605 c 1
 216.75 367.5 l 1
 91.75 367.5 l 1
EndSplineSet
Ligature2: "'ordn' Ordinals lookup 21-1" n
EndChar

StartChar: o.superior
Encoding: 390 -1 319
Width: 391
VWidth: 0
Flags: HW
LayerCount: 2
Fore
SplineSet
111.5 552.25 m 0
 133 694.75 177.25 725.25 309.75 725.25 c 3
 443.25 725.25 472.5 664.75 451.25 526.75 c 0
 430.75 395.5 393 363.75 255.5 363.75 c 3
 122.75 363.75 92.5 425.25 111.5 552.25 c 0
228.25 540.25 m 0
 216.25 466.25 227.75 460.25 269 460.25 c 3
 316.75 460.25 322 464 334.5 540.25 c 0
 347 618 346 628.75 295.75 628.75 c 3
 245 628.75 240.5 619.75 228.25 540.25 c 0
EndSplineSet
EndChar

StartChar: p.superior
Encoding: 391 -1 320
Width: 406
VWidth: 0
Flags: HW
LayerCount: 2
Fore
SplineSet
62.75 184 m 1
 145.75 706.25 l 1
 194 721.75 265.25 729.75 358 729.75 c 3
 448.75 729.75 490.5 659.75 472 535 c 0
 456.5 425 421.25 354.75 311.25 354.75 c 3
 279.25 354.75 239 363.25 218.75 384.75 c 1
 187 184 l 1
 62.75 184 l 1
231.75 463 m 1
 248.25 453.25 263.5 449.75 286.5 449.75 c 3
 323.75 449.75 336 470.25 348.5 548.5 c 0
 356.25 597.25 356.5 638 315 638 c 0
 259.75 638 l 1
 231.75 463 l 1
EndSplineSet
Ligature2: "'ordn' Ordinals lookup 21-1" p
EndChar

StartChar: q.superior
Encoding: 392 -1 321
Width: 408
VWidth: 0
Flags: HW
LayerCount: 2
Fore
SplineSet
113.5 562.75 m 0
 135.5 696.5 198 730 289 730 c 3
 367.5 730 455.25 719 491.75 705.5 c 1
 409.5 181.25 l 17
 284.5 181.25 l 9
 316.5 384.25 l 1
 289.5 362.75 261 355 229 354.75 c 1
 121 354.75 93.25 438.25 113.5 562.75 c 0
237.75 548.5 m 0
 227.75 488.25 225.75 449.5 272.25 449.5 c 1
 296.25 449.25 306 452.25 328.75 462.5 c 1
 356.75 638 l 2
 303 638 l 2
 253.75 638 244.25 585.5 237.75 548.5 c 0
EndSplineSet
Ligature2: "'ordn' Ordinals lookup 21-1" q
EndChar

StartChar: r.superior
Encoding: 393 -1 322
Width: 304
VWidth: 0
Flags: HW
LayerCount: 2
Fore
SplineSet
89.75 367.5 m 1
 145.75 720.75 l 1
 254.5 720.75 l 1
 257.5 670.5 l 1
 282 697.25 320.25 724.75 363.5 724.75 c 27
 378.75 724.75 391.75 724.25 401.25 720.25 c 1
 382.25 600.25 l 1
 371.75 600.75 350.75 601.25 329.5 601.25 c 27
 295 601.25 266 598 246 565 c 1
 214.75 367.5 l 1
 89.75 367.5 l 1
EndSplineSet
Ligature2: "'ordn' Ordinals lookup 21-1" r
EndChar

StartChar: s.superior
Encoding: 394 -1 323
Width: 356
VWidth: 0
Flags: W
HStem: 362.5 100.5<112 299.281> 503.25 80.75<231.914 298.766> 626 100.25<233.074 415.5>
VStem: 100.5 326.75
LayerCount: 2
Fore
SplineSet
100.5 387.5 m 9
 112 463 l 17
 276.25 463 l 18
 285.25 463 297 463.5 298.5 479.5 c 1
 299.5 486.5 l 2
 300.25 498 298.75 503.25 283 503.25 c 10
 208.75 503.25 l 2
 145.75 503.25 110 546.75 119.75 610 c 10
 124 640.5 l 18
 132.5 694.5 163.25 726.25 232.5 726.25 c 3
 313.5 726.25 406.5 725.5 427.25 702.75 c 9
 415.5 626 l 17
 258 626 l 2
 240.75 626 234.5 622 233 610.75 c 10
 232 601 l 18
 230 585.75 239.25 584 251.5 584 c 2
 328 584 l 2
 400 584 422.5 535.75 415.5 491.75 c 1
 408.75 452.5 l 2
 396 375.5 350 362.5 305.75 362.5 c 3
 226 362.5 121.25 363.5 100.5 387.5 c 9
EndSplineSet
Ligature2: "'ordn' Ordinals lookup 21-1" s
EndChar

StartChar: t.superior
Encoding: 395 -1 324
Width: 284
VWidth: 0
Flags: W
HStem: 367.75 75.25<282.315 321.5> 633 91.25<312 369.75>
VStem: 116.5 267.75
LayerCount: 2
Fore
SplineSet
116.5 633 m 1
 126.75 705.75 l 1
 190 726 l 1
 222.5 823.25 l 1
 327.75 823.25 l 1
 312 724.25 l 1
 384.25 724.25 l 1
 369.75 633 l 1
 297.5 633 l 1
 279 517.5 l 2
 271.25 469.5 278.75 462.75 297.5 455.75 c 2
 297.5 455.75 329.75 443 333.75 443 c 1
 321.5 367.75 l 1
 241.5 367.75 l 2
 182.5 367.75 135.75 400.5 150 491 c 2
 172.5 633 l 1
 116.5 633 l 1
EndSplineSet
Ligature2: "'ordn' Ordinals lookup 21-1" t
EndChar

StartChar: u.superior
Encoding: 396 -1 325
Width: 413
VWidth: 0
Flags: HW
LayerCount: 2
Fore
SplineSet
106.5 490.25 m 2
 143.25 720.75 l 9
 268.25 720.75 l 17
 232.5 497.25 l 2
 228 467.25 239.25 457 259.25 457 c 3
 290.25 457 308.75 464 332.5 482.75 c 1
 370 720.75 l 1
 495 720.75 l 1
 439 367.5 l 1
 337.5 367.5 l 1
 324.75 411.25 l 1
 288.25 380.75 262.75 360.5 202.5 360.5 c 3
 106 360.5 95.25 419.25 106.5 490.25 c 2
EndSplineSet
Ligature2: "'ordn' Ordinals lookup 21-1" u
EndChar

StartChar: v.superior
Encoding: 397 -1 326
Width: 391
VWidth: 0
Flags: HW
LayerCount: 2
Fore
SplineSet
129.25 720.75 m 25
 249.25 720.75 l 17
 278.25 496.25 l 1
 348 639.5 l 2
 357.5 657.25 367 683 370.25 722.25 c 9
 489 722.25 l 17
 499 678.5 480.25 631.5 464.25 602.25 c 1
 330.25 367.5 l 9
 196.75 367.5 l 25
 129.25 720.75 l 25
EndSplineSet
Ligature2: "'ordn' Ordinals lookup 21-1" v
EndChar

StartChar: w.superior
Encoding: 398 -1 327
Width: 603
VWidth: 0
Flags: HW
LayerCount: 2
Fore
SplineSet
129.25 720.75 m 1
 248 720.75 l 1
 276.75 497.5 l 1
 347.5 639.75 l 2
 357 657.5 366.5 683 369.75 722.25 c 1
 488.5 722.25 l 1
 495.5 692.75 489.5 662.25 478.75 635.25 c 1
 477.25 631.5 466 612.25 464.5 608.5 c 1
 489 497.5 l 1
 559.25 639.5 l 2
 568.75 657.25 578.5 683 581.75 722.25 c 1
 700.5 722.25 l 1
 710.5 678.5 691 631.5 675 602.25 c 1
 541.5 367.5 l 1
 411.5 367.5 l 1
 385 478.75 l 1
 329.5 367.5 l 1
 196 367.5 l 1
 129.25 720.75 l 1
EndSplineSet
Ligature2: "'ordn' Ordinals lookup 21-1" w
EndChar

StartChar: x.superior
Encoding: 399 -1 328
Width: 409
VWidth: 0
Flags: HW
LayerCount: 2
Fore
SplineSet
74 365.5 m 1
 223.5 552.5 l 1
 128.75 720.5 l 1
 262.25 720.5 l 1
 303.75 625.75 l 1
 374.25 720.5 l 1
 510.25 720.5 l 1
 358.25 532 l 1
 450.5 365.5 l 1
 320.75 365.5 l 1
 279.75 459.5 l 1
 210 365.5 l 1
 74 365.5 l 1
EndSplineSet
Ligature2: "'ordn' Ordinals lookup 21-1" x
EndChar

StartChar: y.superior
Encoding: 400 -1 329
Width: 419
VWidth: 0
Flags: HW
LayerCount: 2
Fore
SplineSet
142.25 160.25 m 0
 142.25 238.25 l 0
 208.25 275.5 246 329.75 264.75 366.5 c 1
 198.25 367.25 164 407.75 160 460 c 2
 130.25 721.75 l 1
 254.5 721.75 l 1
 274.5 485.75 l 2
 276.25 466 288.5 459 301.75 458.25 c 1
 377 623.25 l 2
 385.25 645 392.5 675.5 397.25 722.25 c 9
 516 722.25 l 17
 526 677.75 510.25 630.75 496.5 600 c 1
 390.25 365.75 l 2
 301.75 178.5 184.75 166 142.25 160.25 c 0
EndSplineSet
Ligature2: "'ordn' Ordinals lookup 21-1" y
EndChar

StartChar: z.superior
Encoding: 401 -1 330
Width: 352
VWidth: 0
Flags: HW
LayerCount: 2
Fore
SplineSet
92.5 368.5 m 25
 108.5 469.5 l 25
 271.75 618.25 l 17
 121.5 618.25 l 17
 138.25 720.75 l 25
 443.75 720.75 l 25
 429.5 632.25 l 25
 263.75 471 l 17
 403.5 471 l 17
 404.5 470 387.5 368.5 387.5 368.5 c 25
 92.5 368.5 l 25
EndSplineSet
Ligature2: "'ordn' Ordinals lookup 21-1" z
EndChar

StartChar: zero.tnum
Encoding: 402 -1 331
Width: 609
VWidth: 0
Flags: W
HStem: 0 149<239.955 421.074> 583 149<305.744 486.174>
DStem2: 67.25 184.5 236.5 215.25 0.157638 0.987497<3.13605 421.213> 440.75 214.5 600.25 184.5 0.156452 0.987686<-57.7205 360.974>
LayerCount: 2
Fore
SplineSet
67.25 184.5 m 10
 124 540 l 2
 144.25 666.25 206.75 732 327.75 732 c 2
 491.75 732 l 2
 630.75 732 673 642.25 657.75 547.5 c 2
 600.25 184.5 l 18
 581.25 65.5 522 0 405 0 c 2
 241 0 l 2
 120.75 0 48.25 64.5 67.25 184.5 c 10
236.5 215.25 m 2
 226.25 150.5 264.25 149 292.75 149 c 10
 365.25 149 l 18
 406 149 431.75 160.5 440.75 214.5 c 2
 489.25 517.5 l 2
 496.75 566.25 479 583 440.25 583 c 2
 356.5 583 l 2
 297.75 583 287.5 538.75 284.25 517.5 c 2
 236.5 215.25 l 2
EndSplineSet
Substitution2: "'onum' Oldstyle Figures in Latin lookup 5-1" zero.tosf
Substitution2: "'lnum' Lining Figures lookup 19-1" zero
EndChar

StartChar: one.tnum
Encoding: 403 -1 332
Width: 609
VWidth: 0
Flags: W
HStem: 0 135<111.5 249 413.25 530.5> 544.5 105.5<200.25 260.729> 712 20G<327.5 508.25>
DStem2: 249 135 413.25 135 0.157152 0.987574<25.8122 440.882>
LayerCount: 2
Fore
SplineSet
90.5 0 m 1
 111.5 135 l 1
 249 135 l 1
 319.25 570.25 l 1
 281 543.75 208 544.5 184 544.5 c 1
 200.25 650 l 1
 225.25 650 309.5 690.75 345.5 732 c 1
 508.25 732 l 1
 413.25 135 l 1
 551.5 135 l 1
 530.5 0 l 1
 90.5 0 l 1
EndSplineSet
Substitution2: "'onum' Oldstyle Figures in Latin lookup 5-1" one.tosf
Substitution2: "'lnum' Lining Figures lookup 19-1" one
EndChar

StartChar: two.tnum
Encoding: 404 -1 333
Width: 609
VWidth: 0
Flags: W
HStem: 0 149<343.25 561.75> 592 150<183.645 465.614> 592 122.5<150.5 301.834>
LayerCount: 2
Fore
SplineSet
44.25 0 m 25xc0
 67.25 143 l 17
 168.75 204.75 463.75 410 479.25 507.75 c 1
 489.75 573.5 458 592 374 592 c 2xc0
 131 592 l 2
 150.5 714.5 l 1xa0
 240.25 731.25 316 742 451.75 742 c 3
 602.5 742 661.5 623.75 642.5 492.25 c 0
 621.75 342 418.5 205.25 343.25 149 c 9
 585.75 149 l 25
 561.75 0 l 25
 44.25 0 l 25xc0
EndSplineSet
Substitution2: "'onum' Oldstyle Figures in Latin lookup 5-1" two.tosf
Substitution2: "'lnum' Lining Figures lookup 19-1" two
EndChar

StartChar: three.tnum
Encoding: 405 -1 334
Width: 609
VWidth: 0
Flags: W
HStem: -7 150<73 405.174> 21 122<73 152.32> 297.75 133<180 307.882> 585 149<177.286 468.616>
DStem2: 421.25 202.25 581.25 161 0.158041 0.987432<-47.5327 70.4982 251.552 371.72>
LayerCount: 2
Fore
SplineSet
53 21 m 1x70
 73 143 l 1
 311 143 l 2
 381.5 143 413.25 150.25 421.25 202.25 c 2
 424.5 224.5 l 2
 433.75 284 400.75 285.75 340 289.25 c 2
 158 297.75 l 2
 180 430.75 l 1
 364 439.25 l 2
 433 442.25 462.75 451 470.5 500.75 c 2
 474 524 l 2
 483.75 581.25 439 585 387 585 c 2
 136 585 l 1
 155 706 l 1
 248 737 368.5 736 485.5 734 c 0
 592 732 659.75 652 641.75 539 c 2
 633.75 492.5 l 2
 621.5 417.5 586.5 373.5 531.5 364 c 1
 588.75 346 599.5 273.5 587.5 197.5 c 2
 581.25 161 l 2
 562.75 43 483.5 -7 361.5 -7 c 0xb0
 247.5 -7 136 -10 53 21 c 1x70
EndSplineSet
Substitution2: "'onum' Oldstyle Figures in Latin lookup 5-1" three.tosf
Substitution2: "'lnum' Lining Figures lookup 19-1" three
EndChar

StartChar: four.tnum
Encoding: 406 -1 335
Width: 609
VWidth: 0
Flags: W
HStem: 149.5 153<292.5 410.25> 512 20G<490.311 635.75> 712 20G<359.961 551.75>
DStem2: 387.25 2 552 2 0.156082 0.987744<25.7145 149.282 329.868 458.4>
LayerCount: 2
Fore
SplineSet
54 224 m 1
 372.5 732 l 1
 551.75 732 l 1
 292.5 302.5 l 1
 434.25 302.5 l 1
 459 454.75 l 1
 501.25 532 l 1
 635.75 532 l 1
 599 302.5 l 1
 666.5 302.5 l 1
 647 176 l 1
 575 149.5 l 1
 552 2 l 1
 387.25 2 l 1
 410.25 149.5 l 1
 76 149.5 l 1
 54 224 l 1
EndSplineSet
Substitution2: "'onum' Oldstyle Figures in Latin lookup 5-1" four.tosf
Substitution2: "'lnum' Lining Figures lookup 19-1" four
EndChar

StartChar: five.tnum
Encoding: 407 -1 336
Width: 609
VWidth: 0
Flags: W
HStem: -3.25 154<85.25 417.092> 20.75 130<85.25 228.607> 327.5 141.75<309.54 440.334> 583.5 149<336 629.25>
LayerCount: 2
Fore
SplineSet
64.25 20.75 m 5x70
 85.25 150.75 l 5
 359.25 150.75 l 6
 423 150.75 431.5 189.25 435.25 213.75 c 6
 443.25 263 l 6
 448.25 295 445 327.5 395 327.5 c 5
 324.5 327.5 l 6
 290.75 327.5 268.5 311.75 262.5 275 c 5
 105.5 275 l 5
 200.25 732.5 l 21
 653.25 732.5 l 5
 629.25 583.5 l 5
 336 583.5 l 29
 308.25 446.5 l 5
 334.5 463.25 363 467.75 382 469.25 c 4
 414.5 472 455.75 469.75 472.75 469 c 4
 581.75 461.5 624 376.25 609.5 271.75 c 6
 594 159.25 l 6
 572 22.25 468 -2 371.75 -3.25 c 5xb0
 247.5 -5 194.25 -2.25 64.25 20.75 c 5x70
EndSplineSet
Substitution2: "'onum' Oldstyle Figures in Latin lookup 5-1" five.tosf
Substitution2: "'lnum' Lining Figures lookup 19-1" five
EndChar

StartChar: six.tnum
Encoding: 408 -1 337
Width: 609
VWidth: 0
Flags: W
HStem: -0.75 148.25<261.599 418.658> 309 141.5<276.175 443.749> 589 124.75<499.354 631.25>
LayerCount: 2
Fore
SplineSet
101.25 399 m 0
 143.25 664 241 723.75 330 734.25 c 0
 432.5 746.25 558.25 733.25 650.75 713.75 c 1
 631.25 589 l 1
 394.75 589 l 2
 305 589 286.5 505.25 273.75 429.5 c 1
 325.5 446.25 375.75 450.25 457.25 450.5 c 1
 600.5 451 619.75 352.25 604.75 256.5 c 2
 588.5 148 l 2
 568.25 22.5 489.25 -0.75 378.75 -0.75 c 2
 238.5 -0.75 l 2
 123.25 -0.75 51.25 84 101.25 399 c 0
254.25 309 m 1
 237 201 243.25 147.5 317 147.5 c 2
 370.75 147.5 l 2
 403.75 147.5 426.75 157.25 434 202.75 c 2
 441.75 249 l 2
 449.5 296.5 443.75 309 400.25 309 c 2
 254.25 309 l 1
EndSplineSet
Substitution2: "'onum' Oldstyle Figures in Latin lookup 5-1" six.tosf
Substitution2: "'lnum' Lining Figures lookup 19-1" six
EndChar

StartChar: seven.tnum
Encoding: 409 -1 338
Width: 609
VWidth: 0
Flags: W
HStem: 0 21G<148.25 335.098> 0 21G<148.25 335.098> 583 149<161.25 453.25>
DStem2: 148.25 0 324.75 0 0.459523 0.888166<81.1059 657.955>
LayerCount: 2
Fore
SplineSet
137.25 583 m 1xa0
 161.25 732 l 1
 636.75 732 l 1
 667 661.5 l 1
 324.75 0 l 1
 148.25 0 l 1
 453.25 583 l 1
 137.25 583 l 1xa0
EndSplineSet
Substitution2: "'onum' Oldstyle Figures in Latin lookup 5-1" seven.tosf
Substitution2: "'lnum' Lining Figures lookup 19-1" seven
EndChar

StartChar: eight.tnum
Encoding: 410 -1 339
Width: 609
VWidth: 0
Flags: W
HStem: 0 141.5<240.791 418.017> 307 133<289.62 439.731> 595.5 141.5<309.018 486.066>
DStem2: 72.5 187.75 240 195.25 0.156513 0.987676<-8.6062 139.134 293.769 432.879> 433.5 195.25 594.75 162.25 0.156718 0.987643<-48.6411 101.534 261.721 395.023>
LayerCount: 2
Fore
SplineSet
72.5 187.75 m 2
 82.25 252 l 2
 91.25 308 125.25 344.75 180 352.75 c 1
 112.5 386 114.75 456.25 124.25 514 c 2
 134.5 579 l 2
 156.25 717.75 247 737 352.5 737 c 2
 506 737 l 2
 619.25 737 675.25 671.75 656 548.25 c 2
 648 499 l 2
 644.5 473.25 621 408 553 397.5 c 1
 616.75 383.25 614.75 286.75 607.5 243.75 c 2
 594.75 162.25 l 2
 569.5 4.5 480 0 388 0 c 2
 235.5 0 l 2
 51 0 63.5 130.5 72.5 187.75 c 2
240 195.25 m 2
 233.25 154.5 247.25 141.5 291.75 141.5 c 2
 367 141.5 l 2
 409.75 141.5 428.25 159.25 433.5 195.25 c 2
 442.25 251.5 l 2
 447.5 285.25 436.5 307 396.25 307 c 2
 316 307 l 2
 273 307 254.25 287.25 248.75 251.5 c 2
 240 195.25 l 2
287.25 494 m 2
 280 448 302.75 440 336.75 440 c 2
 415.5 440 l 2
 466.75 440 475.5 462.5 480.75 494 c 2
 486.5 533.5 l 2
 495.75 589.5 473.25 595.5 439.25 595.5 c 2
 363.75 595.5 l 2
 320.5 595.5 301 585.5 293 533.5 c 2
 287.25 494 l 2
EndSplineSet
Substitution2: "'onum' Oldstyle Figures in Latin lookup 5-1" eight.tosf
Substitution2: "'lnum' Lining Figures lookup 19-1" eight
EndChar

StartChar: nine.tnum
Encoding: 411 -1 340
Width: 609
VWidth: 0
Flags: HW
HStem: 19.75 124.75<87 217.998> 283 141.5<275.03 442.825> 586 148.25<298.126 456.122>
LayerCount: 2
Fore
SplineSet
67.5 19.75 m 1
 87 144.5 l 1
 323.5 144.5 l 2
 413.25 144.5 432.5 228.25 445.25 304 c 1
 393.5 287.25 342.5 283.25 261 283 c 1
 117.75 282.5 100 388.75 115 484.5 c 2
 129.75 578 l 2
 149.25 703.5 227.5 734.25 338 734.25 c 2
 478.25 734.25 l 2
 598 734.25 666.25 634.5 616.25 319.5 c 0
 574.25 54.5 478 9.75 389 -0.75 c 0
 286.5 -12.75 156.75 0 67.5 19.75 c 1
277.25 484.5 m 2
 269.5 437 274.5 424.5 318 424.5 c 2
 464 424.5 l 1
 481.25 532.5 474.25 586 400.5 586 c 2
 347.5 586 l 2
 314.5 586 291.5 576.25 284.25 530.75 c 2
 277.25 484.5 l 2
EndSplineSet
Substitution2: "'onum' Oldstyle Figures in Latin lookup 5-1" nine.tosf
Substitution2: "'lnum' Lining Figures lookup 19-1" nine
EndChar

StartChar: zero.tosf
Encoding: 412 -1 341
Width: 609
VWidth: 0
Flags: W
HStem: 0 149<239.955 421.074> 483 149<290.494 471.195>
DStem2: 67.25 184.5 236.5 215.25 0.160325 0.987064<3.63562 320.06> 441.5 214.5 600.25 184.5 0.161356 0.986896<-57.0532 259.1>
LayerCount: 2
Fore
SplineSet
67.25 184.5 m 10
 108.75 440 l 2
 129 566.25 191.5 632 312.5 632 c 2
 476.5 632 l 2
 630.5 632 658.5 542.25 643.25 447.5 c 2
 600.25 184.5 l 18
 581.25 65.5 522 0 405 0 c 2
 241 0 l 2
 120.75 0 47.5 64.5 67.25 184.5 c 10
236.5 215.25 m 2
 226.25 150.5 264.25 149 292.75 149 c 10
 365.25 149 l 18
 406 149 432.5 160.5 441.5 214.5 c 2
 474 417.5 l 2
 481.5 466.25 464.5 483 425.75 483 c 2
 342 483 l 2
 285.5 483 272.25 438.75 269 417.5 c 2
 236.5 215.25 l 2
EndSplineSet
Substitution2: "'lnum' Lining Figures lookup 19-1" zero
EndChar

StartChar: one.tosf
Encoding: 413 -1 342
Width: 609
VWidth: 0
Flags: W
HStem: 0 135<127.75 262 429 541.75> 444.5 105.5<190.5 250.586>
DStem2: 262 135 429 135 0.136536 0.990635<22.8015 338.937>
LayerCount: 2
Fore
SplineSet
106.75 0 m 5
 127.75 135 l 5
 262 135 l 5
 312 470.25 l 5
 274.5 444.5 198 444.5 174 444.5 c 5
 190.5 550 l 5
 215.5 550 299.5 590.75 335.5 632 c 5
 497.5 632 l 5
 429 135 l 5
 562.75 135 l 5
 541.75 0 l 5
 106.75 0 l 5
EndSplineSet
Substitution2: "'lnum' Lining Figures lookup 19-1" one
EndChar

StartChar: two.tosf
Encoding: 414 -1 343
Width: 609
VWidth: 0
Flags: W
HStem: 0 149<399.5 561.5> 483.75 149.75<179.387 461.688>
LayerCount: 2
Fore
SplineSet
44 0 m 25
 67 143 l 17
 181.75 194 456.25 312 471 405 c 1
 481.5 469 455 484.25 370.25 483.75 c 1
 357.75 483.75 126.75 483.5 126.75 483.5 c 2
 146.5 606 l 1
 235.75 623 309.25 633.5 447.25 633.5 c 3
 604.5 633.5 657.5 531.5 639 404.5 c 1
 618.75 257 475 182 399.5 149 c 9
 585.5 149 l 25
 561.5 0 l 25
 44 0 l 25
EndSplineSet
Substitution2: "'lnum' Lining Figures lookup 19-1" two
EndChar

StartChar: three.tosf
Encoding: 415 -1 344
Width: 609
VWidth: 0
Flags: W
HStem: -105.5 150<58 390.174> -77.5 122<58 137.32> 199.25 133<165 292.882> 486.5 149<162.286 453.616>
DStem2: 406.25 103.75 566.25 62.5 0.158041 0.987432<-47.5327 70.4982 251.552 371.72>
LayerCount: 2
Fore
SplineSet
38 -77.5 m 1x70
 58 44.5 l 1
 296 44.5 l 2
 366.5 44.5 398.25 51.75 406.25 103.75 c 2
 409.5 126 l 2
 418.75 185.5 385.75 187.25 325 190.75 c 2
 143 199.25 l 2
 165 332.25 l 1
 349 340.75 l 2
 418 343.75 447.75 352.5 455.5 402.25 c 2
 459 425.5 l 2
 468.75 482.75 424 486.5 372 486.5 c 2
 121 486.5 l 1
 140 607.5 l 1
 233 638.5 353.5 637.5 470.5 635.5 c 0
 577 633.5 644.75 553.5 626.75 440.5 c 2
 618.75 394 l 2
 606.5 319 571.5 275 516.5 265.5 c 1
 573.75 247.5 584.5 175 572.5 99 c 2
 566.25 62.5 l 2
 547.75 -55.5 468.5 -105.5 346.5 -105.5 c 0xb0
 232.5 -105.5 121 -108.5 38 -77.5 c 1x70
EndSplineSet
Substitution2: "'lnum' Lining Figures lookup 19-1" three
EndChar

StartChar: four.tosf
Encoding: 416 -1 345
Width: 609
VWidth: 0
Flags: W
HStem: 49.5 153<276.5 394.25>
DStem2: 371.25 -98 536 -98 0.156082 0.987744<25.7145 149.282 329.868 458.4>
LayerCount: 2
Fore
SplineSet
38 124 m 1
 356.5 632 l 1
 535.75 632 l 1
 276.5 202.5 l 1
 418.25 202.5 l 1
 443 354.75 l 1
 485.25 432 l 1
 619.75 432 l 1
 583 202.5 l 1
 650.5 202.5 l 1
 631 76 l 1
 559 49.5 l 1
 536 -98 l 1
 371.25 -98 l 1
 394.25 49.5 l 1
 60 49.5 l 1
 38 124 l 1
EndSplineSet
Substitution2: "'lnum' Lining Figures lookup 19-1" four
EndChar

StartChar: five.tosf
Encoding: 417 -1 346
Width: 609
VWidth: 0
Flags: W
HStem: -103.75 154<59.25 391.092> -79.75 130<59.25 202.607> 227 141.75<283.54 414.334> 483 149<310 603.25>
LayerCount: 2
Fore
SplineSet
38.25 -79.75 m 1x70
 59.25 50.25 l 1
 333.25 50.25 l 2
 397 50.25 405.5 88.75 409.25 113.25 c 2
 417.25 162.5 l 2
 422.25 194.5 419 227 369 227 c 1
 298.5 227 l 2
 264.75 227 242.5 211.25 236.5 174.5 c 1
 79.5 174.5 l 1
 174.25 632 l 17
 627.25 632 l 1
 603.25 483 l 1
 310 483 l 25
 282.25 346 l 1
 308.5 362.75 337 367.25 356 368.75 c 0
 388.5 371.5 429.75 369.25 446.75 368.5 c 0
 555.75 361 598 275.75 583.5 171.25 c 2
 568 58.75 l 2
 546 -78.25 442 -102.5 345.75 -103.75 c 1xb0
 221.5 -105.5 168.25 -102.75 38.25 -79.75 c 1x70
EndSplineSet
Substitution2: "'lnum' Lining Figures lookup 19-1" five
EndChar

StartChar: six.tosf
Encoding: 418 -1 347
Width: 609
VWidth: 0
Flags: W
HStem: -0.75 148.25<261.599 418.658> 309 141.5<276.175 443.749> 589 124.75<493.281 631.25>
LayerCount: 2
Fore
SplineSet
101.25 399 m 0
 143.25 664 241 723.75 330 734.25 c 0
 432.5 746.25 556 732.75 650.75 713.75 c 1
 631.25 589 l 1
 394.75 589 l 2
 305 589 286.5 505.25 273.75 429.5 c 1
 325.5 446.25 375.75 450.25 457.25 450.5 c 1
 600.5 451 619.75 352.25 604.75 256.5 c 2
 588.5 148 l 2
 568.25 22.5 489.25 -0.75 378.75 -0.75 c 2
 238.5 -0.75 l 2
 123.25 -0.75 51.25 84 101.25 399 c 0
254.25 309 m 1
 237 201 243.25 147.5 317 147.5 c 2
 370.75 147.5 l 2
 403.75 147.5 426.75 157.25 434 202.75 c 2
 441.75 249 l 2
 449.5 296.5 443.75 309 400.25 309 c 2
 254.25 309 l 1
EndSplineSet
Substitution2: "'lnum' Lining Figures lookup 19-1" six
EndChar

StartChar: seven.tosf
Encoding: 419 -1 348
Width: 609
VWidth: 0
Flags: W
HStem: 483 149<145.25 437.25>
DStem2: 132.25 -100 308.75 -100 0.459523 0.888166<81.1059 657.955>
LayerCount: 2
Fore
SplineSet
121.25 483 m 1
 145.25 632 l 1
 620.75 632 l 1
 651 561.5 l 1
 308.75 -100 l 1
 132.25 -100 l 1
 437.25 483 l 1
 121.25 483 l 1
EndSplineSet
Substitution2: "'lnum' Lining Figures lookup 19-1" seven
EndChar

StartChar: eight.tosf
Encoding: 420 -1 349
Width: 609
VWidth: 0
Flags: W
HStem: 0 141.5<240.791 418.017> 307 133<289.62 439.731> 595.5 141.5<309.018 486.066>
DStem2: 72.5 187.75 240 195.25 0.156513 0.987676<-8.6062 139.134 293.769 432.879> 433.5 195.25 594.75 162.25 0.156718 0.987643<-48.6411 101.534 261.721 395.023>
LayerCount: 2
Fore
SplineSet
72.5 187.75 m 2
 82.25 252 l 2
 91.25 308 125.25 344.75 180 352.75 c 1
 112.5 386 114.75 456.25 124.25 514 c 2
 134.5 579 l 2
 156.25 717.75 247 737 352.5 737 c 2
 506 737 l 2
 619.25 737 675.25 671.75 656 548.25 c 2
 648 499 l 2
 644.5 473.25 621 408 553 397.5 c 1
 616.75 383.25 614.75 286.75 607.5 243.75 c 2
 594.75 162.25 l 2
 569.5 4.5 480 0 388 0 c 2
 235.5 0 l 2
 51 0 63.5 130.5 72.5 187.75 c 2
240 195.25 m 2
 233.25 154.5 247.25 141.5 291.75 141.5 c 2
 367 141.5 l 2
 409.75 141.5 428.25 159.25 433.5 195.25 c 2
 442.25 251.5 l 2
 447.5 285.25 436.5 307 396.25 307 c 2
 316 307 l 2
 273 307 254.25 287.25 248.75 251.5 c 2
 240 195.25 l 2
287.25 494 m 2
 280 448 302.75 440 336.75 440 c 2
 415.5 440 l 2
 466.75 440 475.5 462.5 480.75 494 c 2
 486.5 533.5 l 2
 495.75 589.5 473.25 595.5 439.25 595.5 c 2
 363.75 595.5 l 2
 320.5 595.5 301 585.5 293 533.5 c 2
 287.25 494 l 2
EndSplineSet
Substitution2: "'lnum' Lining Figures lookup 19-1" eight
EndChar

StartChar: nine.tosf
Encoding: 421 -1 350
Width: 609
VWidth: 0
Flags: W
HStem: -81.75 124.75<71 198.314> 181.5 141.5<259.03 426.825> 484.5 148.25<282.126 440.122>
LayerCount: 2
Fore
SplineSet
51.5 -81.75 m 1
 71 43 l 1
 307.5 43 l 2
 397.25 43 416.5 126.75 429.25 202.5 c 1
 377.5 185.75 326.5 181.75 245 181.5 c 1
 101.75 181 84 287.25 99 383 c 2
 113.75 476.5 l 2
 133.25 602 211.5 632.75 322 632.75 c 2
 462.25 632.75 l 2
 582 632.75 650.25 533 600.25 218 c 0
 558.25 -47 462 -91.75 373 -102.25 c 0
 270.5 -114.25 144.75 -103 51.5 -81.75 c 1
261.25 383 m 2
 253.5 335.5 258.5 323 302 323 c 2
 448 323 l 1
 465.25 431 458.25 484.5 384.5 484.5 c 2
 331.5 484.5 l 2
 298.5 484.5 275.5 474.75 268.25 429.25 c 2
 261.25 383 l 2
EndSplineSet
Substitution2: "'lnum' Lining Figures lookup 19-1" nine
EndChar

StartChar: partialdiff
Encoding: 422 8706 351
Width: 628
VWidth: 0
Flags: HW
LayerCount: 2
Fore
SplineSet
73 242 m 1
 97 393 201.5 465 343.75 465 c 3
 394.75 465 452.5 451.25 474 408 c 1
 492 538.5 462.75 591 384.5 591 c 3
 307.25 591 228.25 563 187.25 540 c 1
 183.5 662 l 1
 257.5 706 325.25 740 411.5 740 c 3
 598 740 669.5 572.25 635.75 357 c 0
 599.5 127.25 502.75 -5 297 -5 c 3
 163.5 -5 50.25 92 73 242 c 1
236.25 230 m 0
 227 171.75 267.5 141.75 317.25 141.75 c 3
 399.5 141.75 436.5 254.75 443.5 296.25 c 1
 426 307 393.5 318.25 352 318.25 c 3
 277.75 318.25 244.25 280 236.25 230 c 0
EndSplineSet
EndChar

StartChar: summation
Encoding: 423 8721 352
Width: 566
VWidth: 0
Flags: HW
LayerCount: 2
Fore
SplineSet
-4.75 -200 m 1
 19.25 -48 l 1
 283.25 270 l 1
 119.25 583 l 1
 143.25 732 l 1
 669.25 732 l 1
 645.25 583 l 9
 316.25 583 l 17
 484 266.25 l 9
 235.25 -48 l 25
 545.25 -48 l 17
 521.25 -200 l 1
 -4.75 -200 l 1
EndSplineSet
EndChar

StartChar: product
Encoding: 424 8719 353
Width: 653
VWidth: 0
Flags: HW
LayerCount: 2
Fore
SplineSet
84.25 0 m 1
 176.25 583 l 1
 105.25 583 l 1
 129.25 732 l 1
 755.75 732 l 1
 731.75 583 l 1
 659.75 583 l 1
 567.75 0 l 1
 403.75 0 l 1
 495.75 583 l 1
 340.25 583 l 1
 248.25 0 l 1
 84.25 0 l 1
EndSplineSet
EndChar

StartChar: pi
Encoding: 425 960 354
Width: 646
VWidth: 0
Flags: HW
LayerCount: 2
Fore
SplineSet
73.25 382 m 1
 97.25 531 l 1
 669.75 531 l 1
 645.75 382 l 1
 569.25 382 l 1
 539.75 196 l 2
 530 133.25 548.5 122.5 597.5 122.5 c 2
 653 122.5 l 1
 637.75 26 l 1
 609.75 9 574.75 -5 509.75 -5 c 3
 410.5 -5 353.25 56.5 374.25 188.5 c 2
 405.25 382 l 1
 308.25 382 l 1
 247.5 0 l 1
 83.5 0 l 1
 144.25 382 l 1
 73.25 382 l 1
EndSplineSet
EndChar

StartChar: integral
Encoding: 426 8747 355
Width: 443
VWidth: 0
Flags: HW
LayerCount: 2
Fore
SplineSet
-14.75 -179 m 1
 1.5 -77.5 l 1
 54 -77.5 l 1
 124 -77.5 140.25 10.75 152.75 88 c 9
 218.75 506 l 18
 245.25 671.75 310.25 800 427.25 800 c 3
 511.5 800 535.25 782 552.25 775 c 1
 536 673.5 l 1
 485.5 673.5 l 1
 416.5 673.5 397.5 596 382.75 506 c 1
 316.75 88 l 2
 288.75 -91.25 232.25 -204 112.25 -204 c 3
 47.25 -204 4.25 -193 -14.75 -179 c 1
EndSplineSet
EndChar

StartChar: Omega
Encoding: 427 937 356
Width: 757
VWidth: 0
Flags: HW
LayerCount: 2
Fore
SplineSet
49.25 0 m 1
 70.75 135.5 l 1
 175.75 145.5 l 1
 101 203.5 90.5 323.25 107.5 425.5 c 0
 132.75 579.25 227 739 489 739 c 3
 731.5 739 800.5 572.5 771.5 390.5 c 0
 752.5 273.5 714.75 209.5 639.25 144.5 c 1
 736.25 134.5 l 1
 714.75 0 l 1
 456.75 0 l 1
 480.25 145.5 l 1
 568.25 211 591 285 606.75 385 c 0
 620 470 612.5 590 472.5 590 c 3
 328 590 281.25 469.5 267.25 380 c 0
 251.5 281.75 251.25 221 322.75 145.5 c 1
 299.25 0 l 1
 49.25 0 l 1
EndSplineSet
EndChar

StartChar: radical
Encoding: 428 8730 357
Width: 670
VWidth: 0
Flags: HW
LayerCount: 2
Fore
SplineSet
48.25 224 m 1
 72.25 373 l 1
 246.5 373 l 1
 289.75 223 l 1
 605.25 800 l 1
 783.5 800 l 1
 349.75 0 l 1
 188 0 l 1
 109.25 224 l 1
 48.25 224 l 1
EndSplineSet
EndChar

StartChar: florin
Encoding: 429 402 358
Width: 556
VWidth: 0
Flags: HW
LayerCount: 2
Fore
SplineSet
-14.75 -179 m 1
 15.5 -77.5 l 1
 68 -77.5 l 2
 138 -77.5 164.75 10.75 185 88 c 2
 260.75 367 l 1
 179.75 367 l 1
 214.5 486.25 l 1
 295.5 486.25 l 1
 300.5 506 l 2
 341.25 656 411.5 792.5 528.5 800 c 1
 609 806 652 780.75 665.5 775 c 1
 636 673.5 l 1
 585.5 673.5 l 1
 516.25 673.5 490.5 596 465.25 506 c 2
 460.25 486 l 1
 566.75 486 l 1
 532 367 l 1
 425.5 367 l 1
 349.75 88 l 2
 307.5 -65.75 239 -195 116.75 -204 c 1
 51.5 -209.25 -0.5 -190.5 -14.75 -179 c 1
EndSplineSet
EndChar

StartChar: approxequal
Encoding: 430 8776 359
Width: 501
VWidth: 0
Flags: HW
LayerCount: 2
Fore
SplineSet
74.75 263.5 m 17
 114.5 295.75 168.75 334.5 232.75 334.5 c 27
 292.75 334.5 315.75 297.5 375.75 297.5 c 27
 422.75 297.5 450.25 311.75 495.75 336.5 c 9
 510 266.75 l 17
 468.5 230.75 419 192.5 357.5 192.5 c 3
 308.75 192.5 274.5 230.5 214.5 230.5 c 27
 163.5 230.5 134.75 207.5 84.5 192.5 c 25
 74.75 263.5 l 17
103.5 445.75 m 17
 143.25 478 197.5 516.75 261.5 516.75 c 27
 321.5 516.75 345.25 479.75 405.25 479.75 c 27
 452.25 479.75 479 494 524.5 518.75 c 9
 538.75 449 l 17
 497.25 413 447.75 374.75 386.25 374.75 c 3
 337.5 374.75 303.25 412.75 243.25 412.75 c 27
 192.25 412.75 163.5 389.75 113.25 374.75 c 25
 103.5 445.75 l 17
EndSplineSet
EndChar

StartChar: uni2206
Encoding: 431 8710 360
Width: 711
VWidth: 0
Flags: HW
LayerCount: 2
Fore
SplineSet
13.25 0 m 1
 440.25 732 l 1
 515.25 732 l 1
 698.25 0 l 1
 13.25 0 l 1
258 141.5 m 1
 539.25 141.5 l 1
 452 482.25 l 1
 258 141.5 l 1
EndSplineSet
EndChar

StartChar: lozenge
Encoding: 432 9674 361
Width: 508
VWidth: 0
Flags: HW
LayerCount: 2
Fore
SplineSet
72.25 373 m 1
 336.25 732 l 1
 410.25 732 l 1
 554.25 373 l 1
 294.25 0 l 1
 220.25 0 l 1
 72.25 373 l 1
223 367 m 1
 282 206.25 l 1
 408.5 380.75 l 1
 346.5 529.75 l 1
 223 367 l 1
EndSplineSet
EndChar

StartChar: onequarter
Encoding: 188 188 362
Width: 991
VWidth: 0
Flags: HW
LayerCount: 2
Fore
SplineSet
107.5 596.5 m 1
 120.5 682 l 1
 140.5 682 207 712.25 231 740 c 1
 354 740 l 1
 277.25 255.25 l 1
 152.25 255.25 l 1
 210.5 614.75 l 1
 185.25 595 126.75 596.5 107.5 596.5 c 1
199 0 m 1
 712 770 l 1
 833 770 l 1
 320 0 l 1
 199 0 l 1
577.25 144 m 1
 788.75 483.25 l 1
 922 483.25 l 1
 754.25 206 l 1
 844.75 206 l 1
 860 301.5 l 1
 890.75 351.75 l 1
 988.5 351.75 l 1
 965.25 206 l 1
 1010 206 l 1
 994.5 109 l 1
 944.75 90 l 1
 933.25 0.75 l 1
 812.75 0.75 l 1
 826.5 89.25 l 1
 599.25 89.25 l 1
 577.25 144 l 1
EndSplineSet
Ligature2: "'frac' Diagonal Fractions lookup 11 subtable" one fraction four
Ligature2: "'frac' Diagonal Fractions lookup 11 subtable" one slash four
EndChar

StartChar: brokenbar
Encoding: 166 166 363
Width: 249
VWidth: 0
Flags: HW
LayerCount: 2
Fore
SplineSet
45.5 -72 m 1
 97.5 256 l 1
 231.5 256 l 1
 179.5 -72 l 1
 45.5 -72 l 1
124.5 429 m 1
 178.5 770 l 1
 312.5 770 l 1
 258.5 429 l 1
 124.5 429 l 1
EndSplineSet
EndChar

StartChar: currency
Encoding: 164 164 364
Width: 443
VWidth: 0
Flags: HW
LayerCount: 2
Fore
SplineSet
65.5 180.75 m 1
 122 230 l 1
 112.25 254.25 107 280.25 111.5 310.5 c 0
 115.75 338.5 126.5 365 142.5 387.25 c 1
 100.25 434.25 l 1
 159.75 487.5 l 1
 200 441.75 l 1
 228.25 459.25 260.5 469.5 293 469.5 c 0
 325 469.5 354.5 460 377 443.5 c 1
 430.75 491.25 l 1
 479 439.75 l 1
 421 389 l 1
 430.75 365.75 434.5 337.25 430.25 308.5 c 0
 424.5 273.5 409.5 241.25 386.75 215 c 1
 427 169.5 l 1
 368.5 114.5 l 1
 322.5 166.5 l 1
 299.5 154.75 272.75 149.25 246.75 149.25 c 0
 216 149.25 187.5 159 165.5 174.75 c 1
 112 126.75 l 1
 65.5 180.75 l 1
198 310 m 0
 191.25 269.25 218.75 236 259 235.75 c 0
 303.75 235.5 336.75 268.5 344.25 309 c 0
 351.75 348.75 324.75 383.75 282.25 383.5 c 0
 239 383.25 204.75 350.25 198 310 c 0
EndSplineSet
EndChar

StartChar: onehalf
Encoding: 189 189 365
Width: 1026
VWidth: 0
Flags: HW
LayerCount: 2
Fore
SplineSet
107.5 596.5 m 1
 120.5 682 l 1
 140.5 682 207 712.25 231 740 c 1
 354 740 l 1
 277.25 255.25 l 1
 152.25 255.25 l 1
 210.5 614.75 l 1
 185.25 595 126.75 596.5 107.5 596.5 c 1
195.5 0 m 1
 708.5 770 l 1
 829.5 770 l 1
 316.5 0 l 1
 195.5 0 l 1
647.5 -0.75 m 25
 664.75 108.25 l 17
 728 145.75 916.5 266 926.25 327.25 c 1
 932.75 367.5 913 376.5 858 376.5 c 2
 704 376.5 l 2
 703.5 376.5 718.25 470.25 718.5 470 c 1
 779.5 481.75 827.75 490.25 920.75 490.25 c 3
 1025.25 490.25 1066.25 407.5 1053.75 330.25 c 1
 1037.75 226.75 928.75 147.5 882.5 113 c 9
 1018.25 113 l 25
 1000 -0.75 l 25
 647.5 -0.75 l 25
EndSplineSet
Ligature2: "'frac' Diagonal Fractions lookup 11 subtable" one fraction two
Ligature2: "'frac' Diagonal Fractions lookup 11 subtable" one slash two
EndChar

StartChar: threequarters
Encoding: 190 190 366
Width: 1102
VWidth: 0
Flags: HW
LayerCount: 2
Fore
SplineSet
66.25 270.75 m 1
 81.75 364 l 1
 89.75 364 235.5 364.25 235.5 364.25 c 2
 284 364.25 303.5 369.25 307.5 397.5 c 2
 309.25 407 l 2
 313.5 436.25 292.5 441.25 251.5 443 c 2
 135.25 447.25 l 2
 150.75 548.5 l 1
 269.75 553 l 2
 315.5 555 335.25 559.75 339 586.25 c 2
 339.75 594.75 l 2
 345.25 623.25 321 627.75 281.5 627.75 c 2
 118.75 627.75 l 1
 133.25 720.25 l 1
 197 742.5 276.75 743 357.25 741.25 c 0
 434.25 740.25 479 684.25 467 610 c 2
 462.5 581.75 l 2
 454.5 533.25 429.75 502.25 389 495.25 c 1
 431 482 439.5 433.75 432 386.25 c 2
 428 364.25 l 2
 415.5 285.75 363.75 250.25 274.75 250.5 c 0
 196.25 250.5 122.5 248.5 66.25 270.75 c 1
300 0 m 1
 813 770 l 1
 934 770 l 1
 421 0 l 1
 300 0 l 1
667.5 144 m 1
 879.75 483.25 l 1
 1012.75 483.25 l 1
 844.25 206 l 1
 935 206 l 1
 950.25 301.5 l 1
 981 351.75 l 1
 1078.75 351.75 l 1
 1055.5 206 l 1
 1100 206 l 1
 1085.25 109 l 1
 1035 90 l 1
 1023.5 0.75 l 1
 902.75 0.75 l 1
 916.75 89.25 l 1
 689.25 89.25 l 1
 667.5 144 l 1
EndSplineSet
Ligature2: "'frac' Diagonal Fractions lookup 11 subtable" three fraction four
Ligature2: "'frac' Diagonal Fractions lookup 11 subtable" three slash four
EndChar

StartChar: Hbar
Encoding: 435 294 369
Width: 669
VWidth: 0
Flags: HW
LayerCount: 2
Fore
SplineSet
55.75 0 m 1
 137.75 516.25 l 1
 73.75 516.25 l 1
 84 585.5 l 1
 148 585.5 l 1
 171.75 732 l 1
 335.75 732 l 1
 312 585.5 l 1
 527 585.5 l 1
 550.75 732 l 1
 714.75 732 l 1
 691 585.5 l 1
 754.5 585.5 l 1
 744.25 516.25 l 1
 680.75 516.25 l 1
 598.75 0 l 1
 434.75 0 l 1
 479.25 279.75 l 1
 264.25 279.75 l 1
 219.75 0 l 1
 55.75 0 l 1
287.75 429 m 1
 502.75 429 l 1
 516.75 516.25 l 1
 301.75 516.25 l 1
 287.75 429 l 1
EndSplineSet
Substitution2: "'c2sc' Capitals to Small Capitals in Latin lookup 17 subtable" hbar.smcp
EndChar

StartChar: hbar
Encoding: 440 295 374
Width: 570
VWidth: 0
Flags: HW
LayerCount: 2
Fore
SplineSet
60 0 m 1
 155.5 602.5 l 1
 91.25 602.5 l 1
 102.25 671.5 l 1
 166.5 671.5 l 1
 184 782.5 l 1
 348 782.5 l 1
 330.5 671.5 l 1
 435.25 671.5 l 1
 424.25 602.5 l 1
 319.5 602.5 l 1
 299.5 476.5 l 1
 353.75 507 389.5 540.25 466.75 540 c 0
 596.75 540 609.5 453.5 592.5 347.5 c 2
 537.25 0 l 1
 373.25 0 l 1
 428.5 350.5 l 2
 436.25 398.5 421 413.75 391.75 413.5 c 0
 350.5 413.25 316.5 401 283.75 371.5 c 1
 224.75 0 l 1
 60 0 l 1
EndSplineSet
Substitution2: "'smcp' Lowercase to Small Capitals lookup 16-1" hbar.smcp
EndChar

StartChar: jcircumflex
Encoding: 442 309 376
Width: 251
VWidth: 0
Flags: HW
LayerCount: 2
Fore
SplineSet
6.5 -270 m 1
 133.5 531 l 1
 298.75 531 l 1
 213.75 -4 l 2
 200.75 -90 182.75 -188.5 130.75 -270 c 1
 6.5 -270 l 1
61.25 594.75 m 1
 187 733.25 l 1
 303 733.25 l 1
 375.75 594.75 l 1
 275.25 594.75 l 1
 230.75 653 l 1
 166.25 594.75 l 1
 61.25 594.75 l 1
EndSplineSet
Substitution2: "'smcp' Lowercase to Small Capitals lookup 16-1" jcircumflex.smcp
EndChar

StartChar: f_f
Encoding: 457 64256 391
Width: 802
VWidth: 0
Flags: HW
LayerCount: 2
Fore
SplineSet
77.75 412 m 1
 94.25 514 l 1
 195.5 531 l 1
 209.5 620 l 2
 220 687.5 267.5 776 387.5 776 c 0
 436.5 776 485 769.5 523 752.25 c 1
 507.5 656 l 1
 506.75 656 430.75 656.75 430.75 656.75 c 2
 381.25 657.5 375.5 628.25 367.5 580.25 c 2
 359.5 531 l 1
 572.75 531 l 1
 588.5 630 l 2
 605 734.25 662.25 786 782.25 786 c 0
 831.25 786 871 781 909.75 762.25 c 1
 894.25 666.75 l 1
 893.5 666.75 809.25 667.5 809.25 667.5 c 2
 756 668.25 754.5 643.5 745 585 c 2
 736.75 531 l 1
 846.75 531 l 1
 828 412 l 1
 717.5 412 l 1
 652.25 0 l 1
 488.25 0 l 1
 553.5 412 l 1
 338.75 412 l 1
 273.5 0 l 1
 109.5 0 l 1
 174.75 412 l 1
 77.75 412 l 1
EndSplineSet
Ligature2: "'dlig' Discretionary Ligatures lookup 14-1" f f
EndChar

StartChar: f_f_i
Encoding: 458 64259 392
Width: 1020
VWidth: 0
Flags: HW
LayerCount: 2
Fore
SplineSet
77.75 412 m 1
 94.25 514 l 1
 195.5 531 l 1
 209.5 620 l 2
 220 687.5 267.5 776 387.5 776 c 0
 436.5 776 485 769.5 523 752.25 c 1
 507.5 656 l 1
 506.75 656 430.75 656.75 430.75 656.75 c 2
 381.25 657.5 377.25 628.25 366.75 580.25 c 2
 358.25 531 l 1
 558.5 531 l 1
 563.5 566 l 2
 582.75 688.75 683 783 823 786 c 1
 877.75 786.75 1028.75 781 1067.5 762.25 c 1
 1052.75 666.75 l 1
 1052 666.75 865.75 667.5 865.75 667.5 c 2
 812.25 667.5 742.25 654.5 726.75 558.5 c 2
 722.5 531 l 1
 1062.25 521 l 1
 980.25 0 l 1
 816 0 l 1
 881.25 412 l 1
 703.25 412 l 1
 638 0 l 1
 474 0 l 1
 539.25 412 l 1
 339.5 412 l 1
 274.25 0 l 1
 109.5 0 l 1
 174.75 412 l 1
 77.75 412 l 1
EndSplineSet
Ligature2: "'dlig' Discretionary Ligatures lookup 14-1" f f i
EndChar

StartChar: ffl
Encoding: 459 64260 393
Width: 1108
VWidth: 0
Flags: HW
LayerCount: 2
Fore
SplineSet
77.75 412 m 1
 94.25 514 l 1
 195.5 531 l 1
 209.5 620 l 2
 220 687.5 267.5 776 387.5 776 c 0
 436.5 776 485 769.5 523 752.25 c 1
 507.5 656 l 1
 506.75 656 430.75 656.75 430.75 656.75 c 2
 381.25 657.5 375.75 628.25 366.75 580.25 c 2
 358.25 531 l 1
 562.25 531 l 1
 568.75 573.5 l 2
 594.75 739.25 689.5 785 811 786 c 1
 1119 783.75 l 1
 1030.25 219 l 2
 1018.5 145.5 1031 131 1056.25 119 c 1
 1056.25 119 1104.5 98 1111.5 98 c 1
 1096 0 l 1
 993 0 l 2
 898.25 0 839 48 861 189 c 2
 936.75 666.75 l 1
 903 666.75 823.75 667.5 823.75 667.5 c 2
 770.25 667.5 744.5 647 732.75 573.5 c 2
 726.25 531 l 1
 836.25 531 l 1
 816.75 412 l 1
 706.25 412 l 1
 641 0 l 1
 477 0 l 1
 542.25 412 l 1
 339.5 412 l 1
 274.25 0 l 1
 109.5 0 l 1
 174.75 412 l 1
 77.75 412 l 1
EndSplineSet
Ligature2: "'dlig' Discretionary Ligatures lookup 14-1" f f l
EndChar

StartChar: c_t
Encoding: 460 -1 394
Width: 853
VWidth: 0
Flags: HW
LayerCount: 2
Fore
SplineSet
67.25 284.75 m 0
 106 522 192.75 532.25 292.75 532.25 c 0
 656 531.5 l 1
 704.75 679.25 l 1
 843.25 679.25 l 1
 820 531.25 l 1
 925.5 531.25 l 1
 906.75 411.75 l 1
 801.25 411.75 l 1
 770.5 219.25 l 2
 758.25 141.25 770.5 129.25 796.5 117.75 c 2
 796.5 117.75 844.25 97.5 849.75 97.5 c 1
 834 -1.25 l 1
 724.5 -1.25 l 2
 640.75 -1.25 580 48.5 602 189.25 c 2
 637.25 411.75 l 1
 355.75 411 l 3
 296 411 257.25 420.75 230.25 258.25 c 0
 208.5 125 233 119.5 303.25 119.5 c 3
 395.25 119.5 481 128.25 481 128.25 c 1
 465.25 28.75 l 17
 382.5 -0.25 322 -7 203.75 -6.75 c 0
 101.75 -6.5 30.75 59.75 67.25 284.75 c 0
EndSplineSet
Ligature2: "'dlig' Discretionary Ligatures lookup 14-1" c t
EndChar

StartChar: s_t
Encoding: 461 64262 395
Width: 888
VWidth: 0
Flags: HW
LayerCount: 2
Fore
SplineSet
52.75 26 m 9
 68.5 125.25 l 17
 310.25 125.25 l 18
 323 125.25 338.75 129 342.75 151.5 c 2
 345.75 167.75 l 2
 348.75 185.5 344.25 195 321.25 195 c 10
 213 195 l 2
 119 195 66.75 254.5 82.75 356.75 c 10
 88.5 403 l 18
 98.25 486.75 153.5 531.25 256.5 531.25 c 1
 687.25 531.25 l 1
 735.75 679.25 l 1
 874.25 679.25 l 1
 851.25 531.25 l 1
 956.75 531.25 l 1
 937.25 412.75 l 1
 831.75 412.75 l 1
 801.75 219.25 l 2
 789.75 141.25 801.5 129.25 827.5 117.75 c 2
 827.5 117.75 874.75 97.5 880.25 97.5 c 1
 864.5 -1.25 l 1
 755 -1.25 l 2
 671.25 -1.25 610.5 48.5 632.5 189.25 c 2
 667 404.5 l 1
 287.5 404.5 l 1
 261.75 404.5 253.25 394.25 250.25 376 c 10
 247.5 359.75 l 18
 242.5 331 260.25 333.5 276.25 333.5 c 2
 388.75 333.5 l 2
 495.25 333.5 524 256.25 511.25 178.25 c 1
 504.5 119.25 l 2
 491.25 9.5 413.5 -6.5 351.5 -6.5 c 3
 269.5 -6.5 84.5 -5.75 52.75 26 c 9
EndSplineSet
Ligature2: "'dlig' Discretionary Ligatures lookup 14-1" s t
EndChar

StartChar: t_t
Encoding: 462 -1 396
Width: 762
VWidth: 0
Flags: HW
LayerCount: 2
Fore
SplineSet
78.5 413 m 1
 92 499 l 1
 178.25 532 l 1
 227.5 680 l 1
 366 680 l 1
 342.25 532 l 1
 563.25 532 l 1
 612.5 680 l 1
 751 680 l 1
 727.25 532 l 1
 832.75 532 l 1
 814 413 l 1
 708.5 413 l 1
 678.5 220 l 2
 666.25 142 678.75 129.75 703.5 118.5 c 1
 703.5 118.5 751.25 98.25 756.75 98.25 c 1
 741.25 -0.5 l 1
 634.25 -0.5 l 2
 553.5 -0.5 487.25 49.25 509.25 190 c 2
 544.5 413 l 1
 323.5 413 l 1
 292.5 220 l 2
 280.25 142 293.5 129.75 318.25 118.5 c 1
 318.25 118.5 366 98.25 371.5 98.25 c 1
 356 -0.5 l 1
 249 -0.5 l 2
 168.25 -0.5 102 49.25 124.25 190 c 2
 159.5 413 l 1
 78.5 413 l 1
EndSplineSet
Ligature2: "'dlig' Discretionary Ligatures lookup 14-1" t t
EndChar

StartChar: f_t
Encoding: 463 -1 397
Width: 757
VWidth: 0
Flags: HW
LayerCount: 2
Fore
SplineSet
77.75 412 m 1
 94.25 514 l 1
 175.25 531 l 1
 191 630 l 2
 207.5 734.25 264.75 786 384.75 786 c 0
 433.75 786 473.5 781 512.25 762.25 c 1
 496.75 666.75 l 1
 496 666.75 411.75 667.5 411.75 667.5 c 2
 358.5 668.25 357 643.5 347.5 585 c 2
 339.25 532 l 1
 559.75 532 l 1
 608.25 680 l 1
 746.75 680 l 1
 723.75 532 l 1
 829.25 532 l 1
 810.5 413 l 1
 705 413 l 1
 674.75 220 l 2
 662.75 142 675.75 129.75 700.5 118.5 c 1
 700.5 118.5 747.75 98.25 753.25 98.25 c 1
 738.25 -0.5 l 1
 631.25 -0.5 l 2
 550.5 -0.5 484.5 49.25 506.25 190 c 2
 541 413 l 1
 320 413 l 1
 254.75 0 l 1
 90.75 0 l 1
 156 412 l 1
 77.75 412 l 1
EndSplineSet
Ligature2: "'dlig' Discretionary Ligatures lookup 14-1" f t
EndChar

StartChar: t_y
Encoding: 464 -1 398
Width: 947
VWidth: 0
Flags: HW
LayerCount: 2
Fore
SplineSet
78.5 413 m 1
 92 499 l 1
 178.25 532 l 1
 227.5 680 l 1
 366 680 l 1
 342.25 532 l 1
 483.75 532 l 1
 597.75 531.75 650.5 482.75 655.75 396.75 c 2
 672 175.75 l 2
 674.75 140.25 704.5 137.5 720.25 136.75 c 1
 834 409.25 l 2
 845 437 854.75 474 860 532.75 c 1
 1014.75 532.75 l 1
 1027.25 466.75 1004.75 398 985.25 352.75 c 1
 832.25 0.75 l 2
 718.5 -257.25 563.5 -283.25 493.75 -294.75 c 1
 493.75 -179.5 l 1
 586 -133.25 631 -72.75 668 0.5 c 1
 570.25 0.5 523 52.5 514.75 145 c 2
 493.75 339.75 l 2
 489 400.5 468 413 408.75 413 c 1
 323.5 413 l 1
 292.75 219.75 l 2
 280.5 141.75 293.75 129.5 318.5 118.25 c 2
 318.5 118.25 366.25 98 371.75 98 c 1
 356.25 -0.75 l 1
 249.25 -0.75 l 2
 168.5 -0.75 102.25 49 124.25 189.75 c 2
 159.5 413 l 1
 78.5 413 l 1
EndSplineSet
Ligature2: "'dlig' Discretionary Ligatures lookup 14-1" t y
EndChar

StartChar: f_y
Encoding: 465 -1 399
Width: 957
VWidth: 0
Flags: HW
LayerCount: 2
Fore
SplineSet
77.75 412 m 1
 94.25 514 l 1
 175.25 531 l 1
 191 630 l 2
 207.5 734.25 264.75 786 384.75 786 c 0
 433.75 786 473.5 781 512.25 762.25 c 1
 496.75 666.75 l 1
 496 666.75 411.75 667.5 411.75 667.5 c 2
 358.5 668.25 357 643.5 347.5 585 c 2
 339.25 531 l 1
 493.75 531 l 1
 611.5 531.75 664.5 481.5 669.75 395.75 c 2
 687 174.75 l 2
 690 139.25 720.75 136.5 732.75 135.75 c 1
 844.5 408.25 l 2
 855.25 436 865 473 870.25 531.75 c 1
 1025 531.75 l 1
 1037.5 465.75 1015.25 397 995.75 351.75 c 1
 842.5 -0.25 l 2
 728.75 -258.25 574 -284.25 504.25 -295.75 c 1
 504.25 -180.5 l 1
 596.5 -134.25 642.25 -73.75 679.25 -0.5 c 1
 586 -0.5 537.75 51.5 528.75 144 c 2
 508 338.75 l 2
 503 399.5 481.75 412.75 421.75 412 c 1
 320 412 l 1
 254.75 0 l 1
 90.75 0 l 1
 156 412 l 1
 77.75 412 l 1
EndSplineSet
Ligature2: "'dlig' Discretionary Ligatures lookup 14-1" f y
EndChar

StartChar: kgreenlandic
Encoding: 466 312 400
Width: 582
VWidth: 0
Flags: HW
LayerCount: 2
Fore
SplineSet
40.5 0 m 1
 124.5 531 l 1
 289.25 531 l 1
 256.25 322.5 l 1
 297 322.5 l 1
 464.25 531 l 1
 653.5 531 l 1
 439.25 250.25 l 1
 558.75 0 l 1
 378.25 0 l 1
 286.5 203.5 l 1
 237.75 203.5 l 9
 205.25 0 l 17
 40.5 0 l 1
EndSplineSet
EndChar

StartChar: Tbar
Encoding: 472 358 406
Width: 607
VWidth: 0
Flags: HW
LayerCount: 2
Fore
SplineSet
115.75 583 m 1
 139.75 732 l 1
 692.75 732 l 1
 668.75 583 l 1
 471.25 583 l 1
 447 429 l 1
 537 429 l 1
 526 360 l 1
 436 360 l 1
 379.25 0 l 1
 215.25 0 l 1
 272 360 l 1
 182 360 l 1
 193 429 l 1
 283 429 l 1
 307.25 583 l 1
 115.75 583 l 1
EndSplineSet
Substitution2: "'c2sc' Capitals to Small Capitals in Latin lookup 17 subtable" tbar.smcp
EndChar

StartChar: gcommaaccent
Encoding: 477 291 411
Width: 625
VWidth: 0
Flags: HW
LayerCount: 2
Fore
SplineSet
30.5 -248 m 1
 47.5 -139 l 1
 260.5 -139 l 2
 312 -139 350.5 -108 360.5 -44 c 2
 374 40.25 l 1
 337.5 12.75 296.5 2.25 251.5 2.25 c 3
 96.75 2.25 65.5 120 94.25 303.5 c 0
 123.5 487.25 210.5 541.5 332.25 541.5 c 3
 438.25 541.5 564.5 526.25 614.25 508.75 c 1
 523 -66.5 l 2
 500.75 -207 423.25 -289 262 -272 c 2
 30.5 -248 l 1
259 285.25 m 0
 243 183.5 236.25 125.5 303.75 125.5 c 3
 337.25 125.5 358.5 129.5 390.5 146 c 1
 434.75 422.5 l 2
 354 422.5 l 2
 283.75 422.5 268.25 341.5 259 285.25 c 0
333 627.5 m 2
 351.75 749 l 2
 368.75 854.5 489.25 818.25 489.25 818.25 c 1
 481.25 769 l 0
 454.25 770 451.25 757 450 747.75 c 2
 448.25 739 l 1
 458.25 739 l 2
 471.25 739 479.25 732 477.25 717 c 2
 463.5 627.5 l 2
 460.5 611.5 450.75 603.5 436.5 603.5 c 2
 350 603.5 l 2
 334 603.5 331 613.5 333 627.5 c 2
EndSplineSet
AlternateSubs2: "'salt' Access All Alternates in Latin lookup 4-1" gcommaaccent.salt
Substitution2: "'smcp' Lowercase to Small Capitals lookup 16-1" gcommaaccent.smcp
EndChar

StartChar: gcommaaccent.salt
Encoding: 478 -1 412
Width: 517
VWidth: 0
Flags: HW
LayerCount: 2
Fore
SplineSet
12.25 -101 m 0
 54.25 114 l 0
 59.25 150 81.25 200 131.25 200 c 1
 74.75 234 78.25 313.5 86.25 366.5 c 0
 108.5 508.5 203 535 300.25 533 c 2
 397.75 531 l 2
 465.75 530.25 570.75 493.25 543.75 321.5 c 0
 532.25 244.5 474.75 148 332.75 148 c 2
 260.75 148 l 2
 244.75 148 220.5 153 215.5 132.25 c 0
 210.75 112.25 232.75 109.25 253 105.5 c 2
 378.5 82.75 l 2
 445.75 68.5 515.75 26 499.75 -75.5 c 2
 491.75 -123.5 l 2
 478.5 -207.75 442.25 -270 295.25 -270 c 2
 178.75 -270 l 2
 34.75 -270 -6.75 -197 12.25 -101 c 0
178 -93.5 m 2
 171 -130.75 182 -140.5 218 -140.5 c 2
 285.5 -140.5 l 2
 318.25 -140.5 326.75 -126.25 330.75 -101 c 2
 332.75 -85.75 l 2
 337.5 -53 326.5 -45.75 295 -40 c 2
 191.25 -24 l 1
 178 -93.5 l 2
250.25 344 m 0
 242.25 295 242.5 268 288.75 268 c 2
 322.25 268 l 2
 364.25 268 374.5 309 379.75 344 c 0
 388.75 399 386 414 345 414 c 2
 311.5 414 l 2
 268.5 414 259.25 396 250.25 344 c 0
293 620 m 2
 312 741.5 l 2
 329 847 448.5 810.75 448.5 810.75 c 1
 441.5 761.5 l 0
 414.5 762.5 411.25 749.5 410 740.25 c 2
 408.5 731.5 l 1
 418.5 731.5 l 2
 431.5 731.5 439.5 724.5 437.5 709.5 c 2
 423.5 620 l 2
 420.5 604 411 596 396.75 596 c 2
 310.25 596 l 2
 294.25 596 291 606 293 620 c 2
EndSplineSet
EndChar

StartChar: tbar
Encoding: 479 359 413
Width: 373
VWidth: 0
Flags: HW
LayerCount: 2
Fore
SplineSet
59.75 253 m 1
 71 322 l 1
 137.75 322 l 1
 152 413 l 1
 71 413 l 1
 84.5 499 l 1
 170.75 532 l 1
 219.25 680 l 1
 357.75 680 l 1
 334.75 532 l 1
 440.25 532 l 1
 421.5 413 l 1
 316 413 l 1
 301.75 322 l 1
 376 322 l 1
 364.75 253 l 1
 290.5 253 l 1
 285.25 220 l 2
 273 142 286.25 129.75 311 118.5 c 1
 311 118.5 359 98.25 364.5 98.25 c 1
 348.75 -0.5 l 1
 241.75 -0.5 l 2
 161 -0.5 94.75 49.25 116.75 190 c 2
 126.5 253 l 1
 59.75 253 l 1
EndSplineSet
AlternateSubs2: "'salt' Access All Alternates in Latin lookup 4-1" tbar.salt
Substitution2: "'smcp' Lowercase to Small Capitals lookup 16-1" tbar.smcp
EndChar

StartChar: Eng
Encoding: 480 330 414
Width: 672
VWidth: 0
Flags: HW
LayerCount: 2
Fore
SplineSet
53.75 0 m 1
 169.75 732 l 1
 334.75 732 l 1
 517 303 l 1
 584.75 732 l 1
 748.75 732 l 1
 633 1 l 1
 622 -69 l 1
 592.75 -251.75 443.25 -266.75 325.25 -257 c 1
 344 -140 l 1
 397.5 -135.25 447 -136 458.5 -62.5 c 1
 469 1.5 l 1
 285.75 421.5 l 1
 218.75 0 l 1
 53.75 0 l 1
EndSplineSet
Substitution2: "'c2sc' Capitals to Small Capitals in Latin lookup 17 subtable" eng.smcp
EndChar

StartChar: eng
Encoding: 481 331 415
Width: 559
VWidth: 0
Flags: HW
LayerCount: 2
Fore
SplineSet
40.5 0 m 1
 124.5 531 l 1
 259 531 l 1
 280 476.5 l 1
 334.25 507 368 540 449 540 c 3
 579 540 591.75 453.5 574.75 347.5 c 2
 519.5 0 l 1
 509 -60 l 1
 480.5 -226.75 333.75 -264.5 268.5 -268 c 1
 245.25 -177.5 l 1
 299.25 -160.5 330 -148 345 -64 c 1
 355.5 0 l 1
 410.75 350.5 l 2
 418.5 398.5 403.25 413.5 374 413.5 c 3
 326.25 413.5 296.25 401 263.5 371.5 c 1
 204.5 0 l 1
 40.5 0 l 1
EndSplineSet
Substitution2: "'smcp' Lowercase to Small Capitals lookup 16-1" eng.smcp
EndChar

StartChar: exclam.smcp
Encoding: 502 -1 436
Width: 272
VWidth: 0
Flags: HW
LayerCount: 2
Fore
SplineSet
63.25 23 m 2
 79.75 125 l 2
 81.75 140 91.75 150 107.75 150 c 2
 207.75 150 l 2
 222.75 150 228.75 139 226.75 125 c 2
 210.25 23 l 2
 208.25 8 198.25 0 184.25 0 c 2
 84.25 0 l 2
 70.25 0 61.25 9 63.25 23 c 2
99 189.5 m 1
 145.5 570 l 1
 305 570 l 1
 226.5 189.5 l 1
 99 189.5 l 1
EndSplineSet
EndChar

StartChar: quotedbl.smcp
Encoding: 503 -1 437
Width: 467
VWidth: 0
Flags: HW
LayerCount: 2
Fore
SplineSet
129.75 386.5 m 1
 139 520.5 l 1
 150 587.5 l 1
 306.5 587.5 l 1
 295.5 520.5 l 1
 264.5 386.5 l 1
 129.75 386.5 l 1
325.5 386.5 m 1
 336.25 520.5 l 1
 347.25 587.5 l 1
 503.75 587.5 l 1
 492.75 520.5 l 1
 461.75 386.5 l 1
 325.5 386.5 l 1
EndSplineSet
EndChar

StartChar: numbersign.smcp
Encoding: 504 -1 438
Width: 625
VWidth: 0
Flags: HW
LayerCount: 2
Fore
SplineSet
35 142.5 m 1
 69.75 254.25 l 1
 189 254.25 l 1
 217 339.25 l 1
 97.25 339.25 l 1
 131.75 451 l 1
 251.75 451 l 1
 295.5 587.25 l 1
 407.5 587.25 l 1
 363.75 451 l 1
 449.5 451 l 1
 493 587.25 l 1
 605 587.25 l 1
 561.5 451 l 1
 685.25 451 l 1
 650.75 339.25 l 1
 526.75 339.25 l 1
 499 254.25 l 1
 621.75 253.5 l 1
 588.5 141.75 l 1
 463.5 141.75 l 1
 417.5 -0.25 l 1
 305.5 -0.25 l 1
 351.25 141.75 l 1
 265.75 142.5 l 1
 219.75 -0.25 l 1
 107.75 -0.25 l 1
 153.5 142.5 l 1
 35 142.5 l 1
301.25 254.25 m 1
 387 254.25 l 1
 414.5 339.25 l 1
 329 339.25 l 1
 301.25 254.25 l 1
EndSplineSet
EndChar

StartChar: dollar.smcp
Encoding: 505 -1 439
Width: 526
VWidth: 0
Flags: HW
LayerCount: 2
Fore
SplineSet
56.25 14.75 m 1
 74.25 130 l 1
 81.75 130 209.75 125 305.25 125 c 0
 331.75 125 349 141 351.75 157.75 c 1
 355.5 177.75 l 2
 359.75 203.5 346 210.75 321 210.75 c 2
 227 210.75 l 2
 100.5 210.75 78 302.25 91.5 388.75 c 2
 97.25 424.25 l 1
 113 523.75 171.25 571.75 289 573.5 c 1
 301.25 652 l 1
 398.25 652 l 1
 385.75 570 l 1
 440.75 566 508.25 558.5 553 550.25 c 1
 535 433.25 l 1
 535 433.25 394.75 440 309.25 440 c 1
 284 440 264.75 429.25 260.5 401.75 c 2
 257.75 385 l 1
 254 361 264.75 351.5 292.75 351.5 c 2
 396 351.5 l 2
 516.75 351.5 533.75 251 520.5 166.5 c 2
 515.25 134.5 l 2
 491.75 -13.25 414.25 -9.25 293.75 -9.25 c 1
 281.5 -84.75 l 1
 184.75 -84.75 l 1
 197 -6 l 1
 139 -2.5 74.5 4.5 56.25 14.75 c 1
EndSplineSet
EndChar

StartChar: percent.smcp
Encoding: 506 -1 440
Width: 996
VWidth: 0
Flags: HW
LayerCount: 2
Fore
SplineSet
71.5 347 m 2
 88 452.5 l 2
 101 537 136.5 577.5 240 577.5 c 2
 329.75 577.5 l 2
 424.75 577.5 462 524 448.75 437.5 c 2
 432.25 332 l 18
 419 245 384.25 207 282.5 207 c 2
 192.75 207 l 2
 100.5 207 58.75 262.25 71.5 347 c 2
185.25 362 m 2
 181.25 333.25 185.25 317 221.75 317 c 2
 274 317 l 2
 313.25 317 322 333.5 326 362 c 10
 335.75 422.5 l 2
 341.5 459.5 332.25 467.5 299.5 467.5 c 2
 247.25 467.5 l 2
 216.25 467.5 200.5 459.25 195 422.5 c 2
 185.25 362 l 2
299 0 m 1
 669 570 l 1
 780.5 570 l 1
 415 0 l 1
 299 0 l 1
637.75 140.25 m 2
 654.25 245.75 l 2
 667.25 330.25 702 370.75 805.5 370.75 c 2
 895.25 370.75 l 2
 990.25 370.75 1028.25 317.25 1015 230.75 c 2
 998.5 125.25 l 18
 985.5 38.25 950.5 0.25 848.75 0.25 c 2
 759 0.25 l 2
 666.75 0.25 625 55.5 637.75 140.25 c 2
751.5 155.25 m 2
 747.5 126.5 750.5 110.25 787 110.25 c 2
 839.25 110.25 l 2
 878.5 110.25 888.25 126.75 892.25 155.25 c 10
 901.25 215.75 l 2
 907 252.75 897.75 260.75 865 260.75 c 2
 812.75 260.75 l 2
 781.75 260.75 766 252.5 760.5 215.75 c 2
 751.5 155.25 l 2
EndSplineSet
EndChar

StartChar: ampersand.smcp
Encoding: 507 -1 441
Width: 594
VWidth: 0
Flags: HW
LayerCount: 2
Fore
SplineSet
65.75 84.25 m 0
 19.5 184 62 251.25 144.25 315.25 c 2
 199 357 l 1
 180.5 389 l 1
 132 473 197.75 560.5 268.5 570.5 c 0
 346 581.5 447.5 565 494 549.5 c 1
 476 436.5 l 1
 376.5 436.5 l 2
 342 436.5 321 423.25 341.25 389 c 2
 414.25 263.25 l 1
 535.5 343 l 1
 587.75 272.25 l 1
 516.5 177 l 1
 480.5 149.5 l 1
 571.75 0 l 1
 406.75 0 l 1
 366.75 64.5 l 1
 325.5 31.5 l 1
 270 -10.75 121.75 -37.75 65.75 84.25 c 0
197.25 153.25 m 0
 210.25 133.25 229 123.25 257.5 144 c 1
 299.25 176.5 l 1
 260 244 l 1
 216 212.5 l 18
 187.25 192 185.25 172.75 197.25 153.25 c 0
EndSplineSet
EndChar

StartChar: quotesingle.smcp
Encoding: 508 -1 442
Width: 269
VWidth: 0
Flags: HW
LayerCount: 2
Fore
SplineSet
129 386.5 m 1
 139 520.5 l 1
 150 587.5 l 1
 306.5 587.5 l 1
 295.5 520.5 l 1
 264.5 386.5 l 1
 129 386.5 l 1
EndSplineSet
EndChar

StartChar: asterisk.smcp
Encoding: 509 -1 443
Width: 422
VWidth: 0
Flags: HW
LayerCount: 2
Fore
SplineSet
96 396.75 m 1
 105.75 459.25 l 1
 248.25 480.75 l 1
 238.75 391.75 l 1
 96 396.75 l 1
125.5 247.75 m 1
 171.5 385 l 1
 255 362.75 l 1
 181.5 229 l 1
 125.5 247.75 l 1
230.25 294 m 1
 291 369 l 1
 389 279.25 l 1
 345 229.25 l 1
 230.25 294 l 1
249 551.5 m 1
 311.75 572 l 1
 356.75 448 l 1
 268.75 415 l 1
 249 551.5 l 1
298.75 402 m 1
 430.5 481.5 l 1
 458 430 l 1
 343.75 333 l 1
 298.75 402 l 1
EndSplineSet
EndChar

StartChar: zero.smcp
Encoding: 510 -1 444
Width: 559
VWidth: 0
Flags: HW
LayerCount: 2
Fore
SplineSet
71.75 177 m 10
 108 423 l 2
 124.5 535.75 207.25 570 305.75 570 c 2
 439.75 570 l 2
 585.5 570 586.5 448.75 577.25 393 c 1
 541.75 147 l 18
 525 28 450 0 348.75 0 c 2
 214.75 0 l 2
 123.75 0 52.75 57 71.75 177 c 10
239.5 202.5 m 2
 231.25 150.5 252.25 149 280.75 149 c 10
 329.25 149 l 18
 368.5 149 379.25 171 384.5 203.25 c 2
 409.5 360.75 l 2
 414.75 396 418.75 421 371 421 c 2
 322.5 421 l 2
 275.75 421 269.25 394 264.5 361.5 c 2
 239.5 202.5 l 2
EndSplineSet
EndChar

StartChar: one.smcp
Encoding: 511 -1 445
Width: 366
VWidth: 0
Flags: HW
LayerCount: 2
Fore
SplineSet
86.25 382.5 m 1
 102.5 488 l 1
 123.75 488 204.25 528.75 240.25 570 c 1
 402.25 570 l 1
 314.75 0 l 1
 150.75 0 l 1
 213.5 408.25 l 1
 177.25 381.75 110.25 382.5 86.25 382.5 c 1
EndSplineSet
EndChar

StartChar: two.smcp
Encoding: 512 -1 446
Width: 518
VWidth: 0
Flags: HW
LayerCount: 2
Fore
SplineSet
34 0 m 25
 57 143 l 17
 144 176 364.5 272.75 378.5 363.5 c 1
 386 411.75 371.25 427.25 286.5 427.25 c 2
 94.75 427 l 2
 114.25 548.5 l 1
 199.25 567.75 228 577 358.75 577 c 3
 511 577 564.75 488 545 358 c 1
 526 238.25 423.5 174.5 363.25 149 c 9
 509.25 149 l 25
 485.25 0 l 25
 34 0 l 25
EndSplineSet
EndChar

StartChar: three.smcp
Encoding: 513 -1 447
Width: 504
VWidth: 0
Flags: HW
LayerCount: 2
Fore
SplineSet
27.25 16 m 1
 46.5 140.25 l 1
 267.25 140.25 l 2
 291.75 140.25 312.75 145.25 316.75 171 c 2
 318.5 181.25 l 2
 323.25 210 308.5 214.25 279.25 215.25 c 2
 107.75 220.25 l 2
 127.75 349 l 1
 301 353 l 2
 336.25 354 348.25 357.75 352.75 386.75 c 2
 354.75 397.5 l 2
 360 424.5 345.75 427.75 314 427.75 c 2
 87 427.75 l 1
 107.25 551 l 1
 180.25 575 303 575.25 398.25 573 c 1
 488 570.75 536.5 504.25 523.25 421.5 c 2
 519.75 395 l 2
 510.75 338 494.75 295 441 282.25 c 1
 485 260 489.75 211 480.75 152 c 2
 478.25 133.5 l 2
 463.75 40.5 418 -1.5 302.25 -5 c 0
 212.5 -7.75 92.25 -8 27.25 16 c 1
EndSplineSet
EndChar

StartChar: four.smcp
Encoding: 514 -1 448
Width: 561
VWidth: 0
Flags: HW
LayerCount: 2
Fore
SplineSet
44 197.5 m 1
 275.75 570 l 1
 448.5 570 l 1
 261 261 l 1
 365 261 l 1
 382.25 366 l 1
 433.5 456 l 1
 560.5 456 l 1
 529 261 l 1
 589 261 l 1
 569.5 134.5 l 1
 506.5 115.5 l 1
 488.5 2 l 1
 324.5 2 l 1
 342.5 115.5 l 1
 75 115.5 l 1
 44 197.5 l 1
EndSplineSet
EndChar

StartChar: five.smcp
Encoding: 515 -1 449
Width: 525
VWidth: 0
Flags: HW
LayerCount: 2
Fore
SplineSet
54.25 23 m 1
 73.75 145.5 l 1
 303.5 145.5 l 2
 335 145.5 347.5 153.5 352.25 181.75 c 2
 355.25 201.75 l 2
 359.5 229 358.5 239 322 239 c 0
 271.5 239 l 2
 252 239 226.25 233 221 201.5 c 1
 83.5 201.5 l 1
 159.25 570 l 25
 551.75 570 l 1
 527.75 421 l 1
 273.75 421 l 25
 254.5 338 l 1
 277.25 358.75 306 363.25 330 364.25 c 1
 338.75 365.5 351 364.75 379 364.75 c 0
 497 364.75 534.5 296 518.5 192.5 c 2
 510.75 144.5 l 2
 492 24.75 413.25 0 321.25 -1 c 0
 222 -2 133.25 0 54.25 23 c 1
EndSplineSet
EndChar

StartChar: six.smcp
Encoding: 516 -1 450
Width: 534
VWidth: 0
Flags: HW
LayerCount: 2
Fore
SplineSet
88.75 315 m 0
 123 535.5 221.75 576 309.25 576 c 0
 388.25 576 490 576.75 566.5 561 c 1
 545.25 426 l 1
 330.75 426 l 1
 276.25 426 266.5 384.5 260.75 348.75 c 1
 315 359 351.5 360.5 409.5 360.75 c 0
 510 361.25 541.5 281 529 200.5 c 2
 520 144 l 2
 502 33.25 438.75 -1 359.75 -1 c 2
 242.75 -1 l 2
 128.5 -1 49.75 63.25 88.75 315 c 0
243.25 238 m 1
 235.75 188.75 232.75 149 274 149 c 2
 323.25 149 l 2
 345.5 149 356.75 154.5 360.75 182.5 c 2
 364.25 208.75 l 2
 368 234.5 361 238 337.5 238 c 2
 243.25 238 l 1
EndSplineSet
EndChar

StartChar: seven.smcp
Encoding: 517 -1 451
Width: 477
VWidth: 0
Flags: HW
LayerCount: 2
Fore
SplineSet
87 421 m 1
 110.25 570 l 1
 502.25 570 l 1
 537 499.5 l 1
 274.5 0 l 1
 98.5 0 l 1
 321 421 l 1
 87 421 l 1
EndSplineSet
EndChar

StartChar: eight.smcp
Encoding: 518 -1 452
Width: 554
VWidth: 0
Flags: HW
LayerCount: 2
Fore
SplineSet
70.75 145 m 2
 79.5 200 l 2
 88.5 258 127.5 269.75 161.25 278.25 c 1
 114.25 295.25 105 349 109.5 390 c 2
 114.25 433 l 2
 133.5 554.75 193.5 575 286.5 575 c 2
 452.5 575 l 2
 535.75 575 592.75 531.75 574.5 418 c 2
 567.5 382.5 l 2
 564.5 365.5 551.5 308.75 493.5 296.75 c 1
 534.25 287.25 542.5 226.5 537.5 192.5 c 2
 526.5 122.5 l 2
 508.75 9.25 426 0 366.5 0 c 2
 188 0 l 2
 65.5 0 61.25 87.25 70.75 145 c 2
238.25 170 m 2
 233 138.75 242.25 135 273.75 135 c 2
 327.25 135 l 2
 355.25 135 363.75 140.25 368.25 167.75 c 2
 372.5 195.25 l 2
 376.5 221.25 369.5 228.75 343.75 228.75 c 2
 282.25 228.75 l 2
 261.25 228.75 247.5 224.5 243.25 197.5 c 2
 238.25 170 l 2
271.75 380.75 m 2
 268.25 358.75 274.75 347.25 300.25 347.25 c 2
 364.75 347.25 l 2
 396.25 347.25 398.75 364 401.25 378.5 c 2
 406 408.5 l 2
 409.75 434.25 401.5 440 378 440 c 2
 317.5 440 l 2
 293.75 440 280.75 437.25 276.5 408.5 c 2
 271.75 380.75 l 2
EndSplineSet
EndChar

StartChar: nine.smcp
Encoding: 519 -1 453
Width: 533
VWidth: 0
Flags: HW
LayerCount: 2
Fore
SplineSet
60.5 14 m 1
 81.75 149 l 1
 296.25 149 l 1
 350.75 149 360.75 190.5 366.5 226.25 c 1
 292.75 215.25 264.5 214.5 208.75 214.25 c 0
 108.25 213.75 85.5 297 98 377.5 c 2
 107 434 l 2
 125 544.75 186.75 576 265.75 576 c 2
 384.25 576 l 2
 498.5 576 576.5 508.75 537.5 257 c 0
 503.25 36.5 405.5 -1 318 -1 c 0
 239 -1 137 -1.75 60.5 14 c 1
262 366.25 m 2
 258.25 340.5 264.5 337 288 337 c 2
 383.75 337 l 1
 391.25 386.25 392.25 426 351 426 c 2
 301.75 426 l 2
 279.5 426 270.25 420.5 266.25 392.5 c 2
 262 366.25 l 2
EndSplineSet
EndChar

StartChar: question.smcp
Encoding: 520 -1 454
Width: 463
VWidth: 0
Flags: HW
LayerCount: 2
Fore
SplineSet
79.5 420 m 2
 100.5 553 l 1
 163.5 564.5 255.5 576.75 340.5 572.75 c 1
 459 572.75 518.75 511.5 499.75 383 c 2
 496.25 357 l 1
 478.75 247.75 399.25 203 291.5 223.5 c 1
 291.5 223 286.5 190.25 286.75 189.25 c 1
 165.75 189.25 l 1
 188 334.5 l 1
 232 333.5 259.75 334 286.5 334.5 c 0
 316.75 335 327.25 341.5 331.5 368.25 c 2
 333.5 383 l 2
 338 414 324.25 420 286.5 420 c 2
 79.5 420 l 2
124.5 23 m 2
 141 125 l 2
 143 140 153 150 169 150 c 2
 267 150 l 2
 285 150 291 141 288 125 c 2
 271.5 23 l 2
 268.5 5 256.75 0 242.75 0 c 2
 144.75 0 l 2
 130.75 0 122.5 9 124.5 23 c 2
EndSplineSet
EndChar

StartChar: at.smcp
Encoding: 521 -1 455
Width: 906
VWidth: 0
Flags: HW
LayerCount: 2
Fore
SplineSet
52.25 64.25 m 2
 127.25 538.75 l 2
 153.5 702 249.75 739.25 400.5 739.25 c 2
 760.5 739.25 l 2
 915.75 739.25 950.5 635.25 929.75 493.75 c 2
 882.75 177.25 l 2
 869 83 825.5 20.75 681.5 20.75 c 2
 575 20.75 l 1
 551.25 73.25 l 1
 532.25 47.5 499 12.5 426 13.75 c 0
 304.5 16.25 245.25 116 274 305.5 c 0
 308 527.25 415 563.25 511.5 563.25 c 0
 617.75 563.25 686.75 545 737.75 496 c 1
 687.75 147.25 l 1
 735.75 147.25 750 156.25 762.25 237.25 c 2
 802.5 508.75 l 2
 816.25 604 788 619.25 724.75 619.25 c 2
 372.75 619.25 l 2
 277.75 619.25 261 559.25 253 508.75 c 2
 180.25 49.25 l 2
 171.25 -7.75 181.5 -49.75 267.5 -49.75 c 2
 653.5 -49.75 l 1
 637.25 -149.25 l 1
 587.25 -159.25 471.25 -176.25 345.25 -176.25 c 2
 254.75 -176.25 l 2
 69 -176.25 33.75 -56.25 52.25 64.25 c 2
399.75 286.75 m 0
 389.25 213 384.75 138.25 456.75 140.25 c 0
 511.75 141.5 548.5 160.25 567.75 207.75 c 1
 602.25 430 l 1
 565.5 437 534.25 437.75 505.75 437.75 c 0
 450 437.75 416.75 405 399.75 286.75 c 0
EndSplineSet
EndChar

StartChar: a.smcp
Encoding: 522 -1 456
Width: 612
VWidth: 0
Flags: HW
LayerCount: 2
Fore
SplineSet
23.75 0 m 1
 301.75 570 l 1
 503.25 570 l 1
 589.75 0 l 1
 431.25 0 l 1
 413.25 103.25 l 1
 245.25 103.25 l 1
 196.25 0 l 1
 23.75 0 l 1
303 229.75 m 1
 400.25 229.75 l 1
 376.25 375.25 l 1
 303 229.75 l 1
EndSplineSet
EndChar

StartChar: b.smcp
Encoding: 523 -1 457
Width: 549
VWidth: 0
Flags: HW
LayerCount: 2
Fore
SplineSet
53.75 0 m 1
 143.75 571 l 1
 413.5 571 l 2
 537.5 571 599.75 518 582.75 410.5 c 0
 569.5 327.25 526.5 294 478.25 291 c 1
 523.25 284 558.5 228 545.75 147 c 0
 525.5 21 451.25 0 325.25 0 c 2
 53.75 0 l 1
239.5 135 m 1
 332 135 l 2
 352.75 135 377 142.5 383.25 186.75 c 0
 387.5 221.5 379.5 239.25 348.25 239.25 c 2
 348.25 239.25 264.75 238.75 255.75 239.25 c 1
 239.5 135 l 1
273.75 350.75 m 1
 366.25 350.75 l 2
 399.5 350.75 410.25 364.25 415 395.5 c 0
 420 426.25 409 437 379.5 437 c 2
 287 437 l 1
 273.75 350.75 l 1
EndSplineSet
EndChar

StartChar: c.smcp
Encoding: 524 -1 458
Width: 512
VWidth: 0
Flags: HW
LayerCount: 2
Fore
SplineSet
84 322 m 0
 111.5 496.25 175 578 355.5 578 c 0
 442.75 578 512 572.5 576 545.5 c 1
 558.75 434 l 1
 543.75 437 445.25 451.5 380.25 451.5 c 3
 278.25 451.5 264.25 400.5 248 295 c 0
 233.75 205.25 213 124.5 328 122.5 c 1
 409.25 123 511.5 139.25 511.5 139.25 c 2
 494.25 29.75 l 1
 420.75 -0.75 369.75 -4 263.5 -4 c 3
 62.25 -4 57.5 155.5 84 322 c 0
EndSplineSet
EndChar

